<svg viewBox="0 0 330 200" xmlns="http://www.w3.org/2000/svg"><g><g><g><g><g><line x1="61.953125" y1="158.51753048780486" x2="56.953125" y2="158.51753048780486" style="visibility: inherit;" fill="rgb(0, 0, 0)" stroke="rgb(204, 204, 204)" stroke-width="1px"></line><line x1="61.953125" y1="134.6387195121951" x2="56.953125" y2="134.6387195121951" style="visibility: inherit;" fill="rgb(0, 0, 0)" stroke="rgb(204, 204, 204)" stroke-width="1px"></line><line x1="61.953125" y1="110.75990853658536" x2="56.953125" y2="110.75990853658536" style="visibility: inherit;" fill="rgb(0, 0, 0)" stroke="rgb(204, 204, 204)" stroke-width="1px"></line><line x1="61.953125" y1="86.88109756097559" x2="56.953125" y2="86.88109756097559" style="visibility: inherit;" fill="rgb(0, 0, 0)" stroke="rgb(204, 204, 204)" stroke-width="1px"></line><line x1="61.953125" y1="63.002286585365816" x2="56.953125" y2="63.002286585365816" style="visibility: inherit;" fill="rgb(0, 0, 0)" stroke="rgb(204, 204, 204)" stroke-width="1px"></line><line x1="61.953125" y1="39.123475609756085" x2="56.953125" y2="39.123475609756085" style="visibility: inherit;" fill="rgb(0, 0, 0)" stroke="rgb(204, 204, 204)" stroke-width="1px"></line><line x1="61.953125" y1="15.24466463414631" x2="56.953125" y2="15.24466463414631" style="visibility: inherit;" fill="rgb(0, 0, 0)" stroke="rgb(204, 204, 204)" stroke-width="1px"></line></g><g transform="translate(51.953125, 0)"><text x="0" y="158.51753048780486" dx="0em" dy="0.3em" style="text-anchor: end; visibility: inherit; font-family: Roboto, sans-serif; font-size: 12px; font-weight: 200;" fill="rgb(33, 33, 33)" stroke="none" stroke-width="1px">5e-3</text><text x="0" y="134.6387195121951" dx="0em" dy="0.3em" style="text-anchor: end; visibility: inherit; font-family: Roboto, sans-serif; font-size: 12px; font-weight: 200;" fill="rgb(33, 33, 33)" stroke="none" stroke-width="1px">0.01</text><text x="0" y="110.75990853658536" dx="0em" dy="0.3em" style="text-anchor: end; visibility: inherit; font-family: Roboto, sans-serif; font-size: 12px; font-weight: 200;" fill="rgb(33, 33, 33)" stroke="none" stroke-width="1px">0.015</text><text x="0" y="86.88109756097559" dx="0em" dy="0.3em" style="text-anchor: end; visibility: inherit; font-family: Roboto, sans-serif; font-size: 12px; font-weight: 200;" fill="rgb(33, 33, 33)" stroke="none" stroke-width="1px">0.02</text><text x="0" y="63.002286585365816" dx="0em" dy="0.3em" style="text-anchor: end; visibility: inherit; font-family: Roboto, sans-serif; font-size: 12px; font-weight: 200;" fill="rgb(33, 33, 33)" stroke="none" stroke-width="1px">0.025</text><text x="0" y="39.123475609756085" dx="0em" dy="0.3em" style="text-anchor: end; visibility: inherit; font-family: Roboto, sans-serif; font-size: 12px; font-weight: 200;" fill="rgb(33, 33, 33)" stroke="none" stroke-width="1px">0.03</text><text x="0" y="15.24466463414631" dx="0em" dy="0.3em" style="text-anchor: end; visibility: inherit; font-family: Roboto, sans-serif; font-size: 12px; font-weight: 200;" fill="rgb(33, 33, 33)" stroke="none" stroke-width="1px">0.035</text></g><line x1="61.953125" y1="0" x2="61.953125" y2="177" fill="rgb(0, 0, 0)" stroke="rgb(204, 204, 204)" stroke-width="1px"></line></g></g><g transform="translate(61, 0)" clip-path="url(#clip_0)"><clipPath id="clip_0"><rect width="268" height="177"></rect></clipPath><g><g><g><line x1="7.08450659316461" y1="0" x2="7.08450659316461" y2="177" fill="rgb(0, 0, 0)" stroke="rgb(66, 66, 66)" stroke-width="1px" opacity="0.25"></line><line x1="32.241764015176386" y1="0" x2="32.241764015176386" y2="177" fill="rgb(0, 0, 0)" stroke="rgb(66, 66, 66)" stroke-width="1px" opacity="0.25"></line><line x1="57.39902143718816" y1="0" x2="57.39902143718816" y2="177" fill="rgb(0, 0, 0)" stroke="rgb(66, 66, 66)" stroke-width="1px" opacity="0.25"></line><line x1="82.55627885919994" y1="0" x2="82.55627885919994" y2="177" fill="rgb(0, 0, 0)" stroke="rgb(66, 66, 66)" stroke-width="1px" opacity="0.25"></line><line x1="107.7135362812117" y1="0" x2="107.7135362812117" y2="177" fill="rgb(0, 0, 0)" stroke="rgb(66, 66, 66)" stroke-width="1px" opacity="0.25"></line><line x1="132.87079370322348" y1="0" x2="132.87079370322348" y2="177" fill="rgb(0, 0, 0)" stroke="rgb(66, 66, 66)" stroke-width="1px" opacity="0.25"></line><line x1="158.02805112523527" y1="0" x2="158.02805112523527" y2="177" fill="rgb(0, 0, 0)" stroke="rgb(66, 66, 66)" stroke-width="1px" opacity="0.25"></line><line x1="183.18530854724705" y1="0" x2="183.18530854724705" y2="177" fill="rgb(0, 0, 0)" stroke="rgb(66, 66, 66)" stroke-width="1px" opacity="0.25"></line><line x1="208.34256596925883" y1="0" x2="208.34256596925883" y2="177" fill="rgb(0, 0, 0)" stroke="rgb(66, 66, 66)" stroke-width="1px" opacity="0.25"></line><line x1="233.4998233912706" y1="0" x2="233.4998233912706" y2="177" fill="rgb(0, 0, 0)" stroke="rgb(66, 66, 66)" stroke-width="1px" opacity="0.25"></line><line x1="258.6570808132824" y1="0" x2="258.6570808132824" y2="177" fill="rgb(0, 0, 0)" stroke="rgb(66, 66, 66)" stroke-width="1px" opacity="0.25"></line></g><g><line x1="0" y1="158.51753048780486" x2="268.046875" y2="158.51753048780486" fill="rgb(0, 0, 0)" stroke="rgb(66, 66, 66)" stroke-width="1px" opacity="0.25"></line><line x1="0" y1="134.6387195121951" x2="268.046875" y2="134.6387195121951" fill="rgb(0, 0, 0)" stroke="rgb(66, 66, 66)" stroke-width="1px" opacity="0.25"></line><line x1="0" y1="110.75990853658536" x2="268.046875" y2="110.75990853658536" fill="rgb(0, 0, 0)" stroke="rgb(66, 66, 66)" stroke-width="1px" opacity="0.25"></line><line x1="0" y1="86.88109756097559" x2="268.046875" y2="86.88109756097559" fill="rgb(0, 0, 0)" stroke="rgb(66, 66, 66)" stroke-width="1px" opacity="0.25"></line><line x1="0" y1="63.002286585365816" x2="268.046875" y2="63.002286585365816" fill="rgb(0, 0, 0)" stroke="rgb(66, 66, 66)" stroke-width="1px" opacity="0.25"></line><line x1="0" y1="39.123475609756085" x2="268.046875" y2="39.123475609756085" fill="rgb(0, 0, 0)" stroke="rgb(66, 66, 66)" stroke-width="1px" opacity="0.25"></line><line x1="0" y1="15.24466463414631" x2="268.046875" y2="15.24466463414631" fill="rgb(0, 0, 0)" stroke="rgb(66, 66, 66)" stroke-width="1px" opacity="0.25"></line></g></g></g><g><g><line x1="0" y1="182.39634146341464" x2="268.046875" y2="182.39634146341464" fill="rgb(0, 0, 0)" stroke="rgb(153, 153, 153)" stroke-width="1.5px"></line></g></g><g><g><line x1="7.08450659316461" y1="0" x2="7.08450659316461" y2="177" fill="rgb(0, 0, 0)" stroke="rgb(153, 153, 153)" stroke-width="1.5px"></line></g></g><g><g><g><g><g><path stroke="rgb(51, 187, 238)" stroke-width="2px" d="M7.08450659316461,95.66755495381697L7.587651741604846,117.31249701661602L8.090796890045082,145.46360008130077L8.593942038485318,136.2910245676502L9.097087186925553,137.77014998265926L9.600232335365789,146.00423382163308L10.103377483806023,147.41498581325158L10.60652263224626,155.60426054154408L11.109667780686495,151.4775347036264L11.612812929126731,152.08619049311295L12.115958077566965,155.1733978917487L12.619103226007203,153.3495721270205L13.122248374447437,154.89361949190894L13.625393522887673,156.57096445395484L14.128538671327908,157.31841529067606L14.631683819768144,150.76117603904453L15.13482896820838,154.4759044654372L15.637974116648616,155.8722212028281L16.14111926508885,153.5683782013082L16.644264413529086,155.97968389806564L17.147409561969322,154.01761016244544L17.650554710409555,152.90804148854392L18.15369985884979,154.34554462376187L18.65684500729003,157.2555326456999L19.159990155730267,160.0252289440676L19.6631353041705,152.14274840183532L20.166280452610735,155.7614315717833L20.66942560105097,154.77615597426166L21.172570749491207,157.11292807905502L21.67571589793144,160.28691379462438L22.178861046371676,154.01459234701073L22.682006194811912,157.09702061125498L23.185151343252148,151.91967468729766L23.688296491692384,159.3855432512937L24.19144164013262,157.73135563053145L24.694586788572856,157.61408781499043L25.197731937013092,160.15679858058192L25.700877085453325,160.39617783879496L26.20402223389356,161.83965433603038L26.707167382333797,158.15065184106663L27.210312530774033,157.10147061028587L27.713457679214265,154.53328076478593L28.216602827654505,151.78693973369576L28.71974797609474,156.16090404850476L29.222893124534977,155.6660712727107L29.72603827297521,152.64215349047672L30.229183421415446,161.44233013470316L30.73232856985568,158.7273881722372L31.235473718295918,159.1405486769622L31.73861886673615,158.26642520415948L32.241764015176386,155.8350600415057L32.744909163616626,155.24851636614412L33.24805431205686,155.06159861574642L33.7511994604971,161.18095218063127L34.25434460893733,160.4768160021432L34.75748975737756,162.38272768102883L35.2606349058178,156.7051760689043L35.763780054258035,157.6360442569854L36.266925202698275,155.62913694792064L36.77007035113851,158.05387714949845L37.27321549957874,158.6114235548132L37.77636064801898,163.1011656804902L38.27950579645921,160.17365120059992L38.782650944899444,156.2139482148639L39.285796093339684,161.10091669081493L39.788941241779916,162.3532122451778L40.29208639022016,161.47722293070245L40.795231538660396,159.69115877694097L41.29837668710063,158.64197087449747L41.80152183554087,159.2475310124843L42.3046669839811,156.00676862480086L42.80781213242133,160.4329965214313L43.31095728086157,160.41847008781326L43.814102429301805,157.36148754516387L44.317247577742044,162.36374457671715L44.82039272618228,159.84504512523685L45.32353787462251,160.00130436157173L45.82668302306275,165.70832359596446L46.32982817150298,161.0242481667821L46.832973319943214,155.78157109763222L47.336118468383454,163.10983661813205L47.839263616823686,163.66185888671882L48.342408765263926,162.43921442534887L48.84555391370416,163.08967930118257L49.34869906214439,159.21595403285434L49.85184421058464,162.41106223257927L50.35498935902487,159.71719827651748L50.8581345074651,161.1382757781312L51.36127965590534,157.4292360561468L51.864424804345575,154.10595632011706L52.367569952785814,155.36931126737375L52.87071510122605,165.49059499520524L53.37386024966628,157.527282811406L53.87700539810652,158.2298845074696L54.38015054654675,158.39461897934L54.883295694986984,159.24770225182732L55.38644084342722,160.985668165189L55.889585991867456,162.7351916222606L56.392731140307696,160.87400454632856L56.89587628874793,157.5649688101953L57.39902143718816,157.71927102546707L57.9021665856284,158.25252368294906L58.40531173406863,159.67510230867362L58.908456882508865,159.6360530668029L59.41160203094911,159.60004387924266L59.914747179389344,161.95828984242794L60.417892327829584,160.4409291283994L60.92103747626982,161.60621063374606L61.42418262471005,160.544684603055L61.92732777315029,161.72008034907756L62.43047292159052,160.7244325399217L62.933618070030754,162.6492606064918L63.43676321847099,163.19468682454104L63.939908366911226,158.26978105050512L64.44305351535147,163.2127825977116L64.94619866379169,159.2472641459757L65.44934381223193,163.27240279962012L65.95248896067217,160.26921164955397L66.4556341091124,162.58579975074701L66.95877925755264,162.92755567332128L67.46192440599286,163.60295700049593L67.96506955443311,160.50910462579608L68.46821470287334,160.70692832084518L68.97135985131358,159.4588581528685L69.4745049997538,157.77859545032857L69.97765014819404,160.8436284659873L70.48079529663428,158.70033902770317L70.98394044507452,159.3867419266948L71.48708559351475,164.53948275855936L71.99023074195499,157.1362566596817L72.49337589039521,164.8969704618155L72.99652103883545,153.64501781480263L73.4996661872757,162.0831878162273L74.00281133571593,158.9837379165096L74.50595648415617,159.13018091310315L75.0091016325964,159.09975590723533L75.51224678103664,161.47112725486852L76.01539192947688,163.539289323207L76.51853707791712,164.11632476725597L77.02168222635734,157.3352323284929L77.52482737479758,163.17471186637243L78.0279725232378,162.96539289646543L78.53111767167806,159.4832808861804L79.03426282011829,159.87449384446074L79.53740796855853,162.78335435539995L80.04055311699875,162.99053172157542L80.54369826543899,161.50326465416654L81.04684341387922,160.07783945235028L81.54998856231947,161.9612209262474L82.0531337107597,161.83535333746678L82.55627885919994,158.47971826115702L83.05942400764016,163.19190251730132L83.5625691560804,160.94164853459563L84.06571430452065,156.6585945198284L84.56885945296088,159.8603899494813L85.07200460140112,162.54850515617034L85.57514974984134,165.0459042124893L86.07829489828158,166.0877721889907L86.58144004672182,160.79847687662L87.08458519516206,161.87423578776963L87.58773034360229,161.90890619501175L88.09087549204253,160.09349784474227L88.59402064048275,159.60074217994014L89.097165788923,160.38944390722799L89.60031093736323,161.6334665998243L90.10345608580347,165.44404902833048L90.6066012342437,162.19339701261586L91.10974638268394,161.0018714100361L91.61289153112416,162.308062879698L92.11603667956442,162.359425787053L92.61918182800464,165.8173496841649L93.12232697644488,161.4679048417772L93.62547212488512,161.87726472264225L94.12861727332535,164.47835031310208L94.6317624217656,160.15543756138806L95.13490757020583,161.56036074368123L95.63805271864607,165.22862993481442L96.14119786708629,163.3651455830209L96.64434301552653,166.1673629012927L97.14748816396676,160.48889171165732L97.65063331240701,159.68279918355913L98.15377846084724,162.96143660047545L98.65692360928747,158.20536614699208L99.1600687577277,161.06778298988482L99.66321390616794,164.1822685934745L100.16635905460818,162.49528307880547L100.66950420304842,164.99858655662717L101.17264935148864,165.0909023536142L101.67579449992888,162.28013085179802L102.17893964836911,161.32542258894875L102.68208479680936,165.68074071841318L103.1852299452496,163.3961532474325L103.68837509368983,164.15077167379715L104.19152024213007,161.77492586436978L104.6946653905703,159.35952154281776L105.19781053901053,159.67935215782305L105.70095568745077,160.47363584291574L106.20410083589101,162.42489703716254L106.70724598433124,159.23488153997673L107.21039113277148,162.96873762337322L107.7135362812117,163.34018244502906L108.21668142965196,162.89246939910325L108.71982657809218,163.55510116384147L109.22297172653242,162.58490574794322L109.72611687497265,162.10265128025443L110.22926202341289,165.3690217333255L110.73240717185313,160.33096455964372L111.23555232029337,165.66375800097225L111.73869746873359,163.92107966984622L112.24184261717383,161.42825292637457L112.74498776561407,164.30514282958364L113.2481329140543,159.00833856082724L113.75127806249455,162.38249639672134L114.25442321093477,157.60157177573717L114.75756835937501,163.46218936498525L115.26071350781524,162.66307317219935L115.76385865625548,159.50851978623115L116.26700380469572,160.34489499139258L116.77014895313596,158.32563176297967L117.27329410157618,162.08805590612167L117.77643925001642,161.86204665998937L118.27958439845665,163.2326107793005L118.7827295468969,159.45888928729448L119.28587469533713,159.23305128050524L119.78901984377737,163.03034153299564L120.2921649922176,161.1524597330632L120.79531014065783,164.34988299975024L121.29845528909806,161.00702860531476L121.80160043753831,165.9006264901169L122.30474558597855,160.3096797316954L122.80789073441878,160.00223394657667L123.31103588285902,163.27995067403833L123.81418103129924,161.12701623535588L124.3173261797395,160.25834573487887L124.82047132817972,162.7944938082464L125.32361647661996,164.12095490118017L125.82676162506019,161.01169654532768L126.32990677350043,164.0544717822255L126.83305192194067,163.02618953489934L127.3361970703809,163.14625055323035L127.83934221882113,157.26686112898992L128.34248736726136,162.38969956856593L128.8456325157016,162.8038986287869L129.34877766414183,162.12160769791524L129.85192281258207,163.8784666481419L130.3550679610223,159.4488373154706L130.85821310946255,159.21080795701354L131.36135825790276,163.75626402607944L131.864503406343,161.38148234685508L132.36764855478327,158.81847193550954L132.87079370322348,161.39783459216946L133.37393885166372,163.66399381878762L133.87708400010396,160.82341555184854L134.3802291485442,161.3657016406466L134.8833742969844,165.8251088279024L135.38651944542465,162.95542765625683L135.8896645938649,159.9139945355085L136.39280974230516,158.95456718323217L136.89595489074537,163.95405325087117L137.3991000391856,154.93496823352874L137.90224518762585,162.74540371398965L138.4053903360661,164.71957317411204L138.9085354845063,162.05778434849628L139.41168063294654,162.20065355776217L139.91482578138678,162.09108039321913L140.41797092982702,165.4690677635116L140.92111607826723,163.9070358198312L141.42426122670747,162.02568697917457L141.92740637514774,161.78221576782965L142.43055152358798,164.4299863181375L142.93369667202822,161.60717802483973L143.43684182046843,158.08046594930516L143.93998696890867,162.12888870582483L144.4431321173489,157.95824776002968L144.94627726578915,162.25493420561116L145.44942241422936,162.4971466965905L145.9525675626696,163.8798665853683L146.45571271110984,164.24321089654438L146.9588578595501,161.80857773110407L147.46200300799032,162.45990547531557L147.96514815643056,162.50046473684742L148.4682933048708,164.89084365155557L148.97143845331104,164.87431571912305L149.47458360175125,163.16991716476792L149.9777287501915,156.59763331371417L150.48087389863173,161.4638306797459L150.98401904707197,158.13143078078483L151.4871641955122,160.10462840203843L151.99030934395242,161.84128222173283L152.4934544923927,164.49506505209067L152.99659964083293,162.14867240966228L153.49974478927317,164.24155076447215L154.00288993771338,163.65215828913128L154.50603508615362,164.69185908719408L155.00918023459386,162.90543021587087L155.5123253830341,162.90323968661278L156.0154705314743,162.80498610980945L156.51861567991455,163.43302085559543L157.0217608283548,166.3904666383126L157.52490597679503,162.2931272507668L158.02805112523527,163.47924658265987L158.5311962736755,159.80727684260742L159.03434142211574,164.19367268894197L159.53748657055598,159.477665570062L160.0406317189962,162.65385738210242L160.54377686743643,163.11658389302445L161.04692201587667,162.52913954319635L161.5500671643169,163.68899921064335L162.05321231275715,165.10089205658608L162.55635746119736,159.13844932709455L163.05950260963763,167.04614430661425L163.56264775807787,162.7129794331949L164.0657929065181,162.85618444948412L164.56893805495832,160.6803995660029L165.07208320339856,161.79624849840678L165.5752283518388,161.95486950334274L166.07837350027904,160.49085762827065L166.58151864871925,165.28352659952077L167.0846637971595,165.63410023631664L167.58780894559973,161.44192983494025L168.09095409403997,164.20755864293938L168.5940992424802,162.11114653077814L169.09724439092045,163.31295761337685L169.6003895393607,166.00801134928946L170.10353468780093,163.8467395561009L170.60667983624117,165.4915857371184L171.10982498468138,165.92400399627016L171.61297013312162,162.835448921766L172.11611528156186,161.76956184754692L172.6192604300021,161.32879845028253L173.1224055784423,167.29910484622744L173.62555072688255,160.45643184866142L174.12869587532282,162.66075143357455L174.63184102376306,164.10304259873428L175.13498617220327,163.98495861645446L175.6381313206435,162.75936528016447L176.14127646908375,163.96034129298002L176.644421617524,161.16507139948206L177.1475667659642,160.07101434139284L177.65071191440444,165.39523469613263L178.15385706284468,161.1436887204806L178.65700221128492,163.42104522102204L179.1601473597252,163.95371410801647L179.6632925081654,162.0175786850883L180.16643765660564,165.64149021471724L180.66958280504588,163.64284687186876L181.17272795348612,161.25405581288675L181.67587310192633,162.0387411992202L182.17901825036657,157.8536249692211L182.6821633988068,166.26038255869614L183.18530854724705,163.66710058972524L183.68845369568726,165.50655250047566L184.1915988441275,162.21989240914456L184.69474399256777,162.1372638664197L185.197889141008,162.7873217708278L185.70103428944822,160.68275688682886L186.20417943788846,163.639642249878L186.7073245863287,159.74912885427133L187.21046973476894,161.56110352213017L187.71361488320915,163.59292281977264L188.2167600316494,164.6849761551598L188.71990518008963,163.94637416708622L189.22305032852987,163.875839124976L189.72619547697008,164.36082563854657L190.22934062541034,163.1222236719062L190.73248577385058,163.97247482357096L191.23563092229082,162.52379776524924L191.73877607073106,165.18691091591396L192.24192121917127,158.35379952296228L192.7450663676115,163.4048931255891L193.24821151605175,162.47529032953628L193.751356664492,164.01519903965385L194.2545018129322,163.20121615845142L194.75764696137244,165.597070284361L195.2607921098127,161.3578313025305L195.76393725825295,163.1857912742544L196.26708240669316,165.33663748250706L196.7702275551334,166.01044650618044L197.27337270357364,164.85837044523427L197.77651785201388,159.44643106911806L198.2796630004541,161.10129252781456L198.78280814889433,164.16578180296204L199.28595329733457,162.05770206465613L199.7890984457748,162.44800322903205L200.29224359421505,162.44897729178845L200.7953887426553,160.71050210817285L201.29853389109553,163.60002146890136L201.80167903953577,161.5729012456978L202.304824187976,164.06786959290096L202.80796933641622,159.91708796312068L203.31111448485646,162.7165643399604L203.8142596332967,163.59246469893287L204.31740478173694,162.89401722485312L204.82054993017715,164.04992504408526L205.3236950786174,161.76003471318995L205.82684022705763,163.86528455456093L206.3299853754979,165.73079709181982L206.8331305239381,161.3935580563692L207.33627567237835,166.482453299939L207.8394208208186,165.32795987320245L208.34256596925883,163.7253375335642L208.84571111769907,162.97975698629074L209.34885626613928,164.98008714786235L209.85200141457952,163.74448520555615L210.35514656301976,164.56554004923643L210.85829171146,161.60436703094916L211.36143685990024,160.79925746115762L211.86458200834048,161.9880209953734L212.36772715678072,161.5748716100863L212.87087230522096,159.89445990707907L213.37401745366117,160.64787743415502L213.8771626021014,162.46256524485128L214.38030775054165,157.76331734271128L214.8834528989819,163.05620312156643L215.3865980474221,162.93280627187795L215.88974319586234,162.37082098697016L216.39288834430258,161.22908822711977L216.89603349274284,166.74331531209427L217.39917864118308,160.07710556945162L217.9023237896233,164.10503631394224L218.40546893806354,165.35260721915913L218.90861408650377,162.50039357244512L219.41175923494401,164.47999376601754L219.91490438338423,161.16098389412537L220.41804953182447,165.92626346604297L220.9211946802647,158.9376656376876L221.42433982870494,163.9569287375013L221.92748497714516,164.35869404230914L222.43063012558542,159.90783214304741L222.93377527402566,164.26266435307747L223.4369204224659,165.30820507990342L223.9400655709061,160.38136229979258L224.44321071934635,163.6085478538511L224.9463558677866,162.96071383701468L225.44950101622683,162.6037376279L225.95264616466704,163.79067090264428L226.45579131310728,166.00201797228385L226.95893646154752,161.87312384398382L227.4620816099878,165.15120306511966L227.96522675842803,164.02716355478935L228.46837190686824,166.18112765341746L228.97151705530848,162.09642439505382L229.47466220374872,162.25299497564868L229.97780735218896,159.71691361890834L230.48095250062917,161.06431372527305L230.9840976490694,165.93222793251016L231.48724279750965,161.44382013937616L231.9903879459499,162.37761718738915L232.4935330943901,162.97888967013782L232.99667824283037,165.86941089221736L233.4998233912706,163.21685231196773L234.00296853971085,163.9187668267717L234.50611368815106,164.425113780468L235.0092588365913,165.30208382936246L235.51240398503154,158.68924405260816L236.01554913347178,162.3111007101209L236.518694281912,161.62590093430552L237.02183943035223,164.48579366480442L237.52498457879247,160.13712607112305L238.0281297272327,163.013995959344L238.53127487567298,161.55182991095637L239.0344200241132,160.45975656058104L239.53756517255343,163.55001958074024L240.04071032099367,163.3874356081516L240.5438554694339,162.6356326234527L241.04700061787412,162.85489459469255L241.55014576631436,163.3483619035176L242.0532909147546,165.06112894680487L242.55643606319484,163.4604591804545L243.05958121163505,161.86962789272116L243.56272636007532,165.55213218820052L244.06587150851556,167.94148589073816L244.5690166569558,164.54146646627325L245.072161805396,161.66255282537398L245.57530695383625,162.41085318714752L246.0784521022765,154.92767833006886L246.58159725071673,158.77349825714793L247.08474239915697,165.66630880001694L247.58788754759718,165.61432542802947L248.09103269603742,164.08016991505977L248.59417784447766,162.13181089409397L249.09732299291792,164.17405911250373L249.60046814135814,163.23352479709243L250.10361328979837,160.34048724622556L250.60675843823861,162.8772357692374L251.10990358667885,164.8864714885897L251.61304873511907,165.87990875349936L252.1161938835593,164.11492260614204L252.61933903199954,162.49933500196101L253.12248418043978,163.6059103231911L253.62562932888,163.43632332863933L254.12877447732023,160.91364534229336L254.6319196257605,166.93818457250444L255.13506477420074,161.66862848621975L255.63820992264098,163.8579890913821L256.1413550710812,159.75073894887322L256.64450021952143,161.2996677469814L257.1476453679617,163.71829670551233L257.6507905164019,165.16946785374566L258.15393566484215,163.8692108280687" style="fill: none;" fill="none"></path></g><g><path stroke="rgb(204, 51, 17)" stroke-width="2px" d="M7.08450659316461,92.42651458018709L7.587651741604846,112.80712763297304L8.090796890045082,128.56100486178042L8.593942038485318,138.670948986884L9.097087186925553,130.24103628001288L9.600232335365789,140.74786427670455L10.103377483806023,144.2209317362356L10.60652263224626,144.77512007131716L11.109667780686495,141.96374811985666L11.612812929126731,135.90916972827142L12.115958077566965,139.11215049L12.619103226007203,148.30619096649218L13.122248374447437,139.25600043368502L13.625393522887673,145.17504399721568L14.128538671327908,145.45904333566645L14.631683819768144,150.07151736864796L15.13482896820838,137.8075824582654L15.637974116648616,144.7319944435276L16.14111926508885,149.4229561405756L16.644264413529086,146.74727691318725L17.147409561969322,142.17487066258425L17.650554710409555,146.6706328519177L18.15369985884979,145.9019505605499L18.65684500729003,140.99405752643713L19.159990155730267,142.81898856328846L19.6631353041705,149.73080889711994L20.166280452610735,145.92995820062734L20.66942560105097,146.37726872290267L21.172570749491207,146.6609189110047L21.67571589793144,144.82990776553248L22.178861046371676,147.13320146682216L22.682006194811912,143.7105895685168L23.185151343252148,150.40999972871674L23.688296491692384,151.5910686119346L24.19144164013262,148.82806176738245L24.694586788572856,145.35553693641884L25.197731937013092,150.5030894385787L25.700877085453325,152.02153318585462L26.20402223389356,153.53018070837743L26.707167382333797,148.97337058131447L27.210312530774033,149.52636468877003L27.713457679214265,145.20534891315464L28.216602827654505,144.02610584163313L28.71974797609474,149.25857081905392L29.222893124534977,146.03055130715606L29.72603827297521,151.07577829436886L30.229183421415446,145.06084514652355L30.73232856985568,145.37355264963682L31.235473718295918,151.91986371774124L31.73861886673615,148.0528946198557L32.241764015176386,151.3399071973669L32.744909163616626,148.53703494420523L33.24805431205686,149.44206378259128L33.7511994604971,146.3568289722316L34.25434460893733,145.57789455915847L34.75748975737756,149.1316313164638L35.2606349058178,151.23248897988077L35.763780054258035,154.191860649235L36.266925202698275,149.891760536231L36.77007035113851,152.17997627978485L37.27321549957874,149.72612538989404L37.77636064801898,143.9020040195844L38.27950579645921,152.18308082683487L38.782650944899444,152.93657841386343L39.285796093339684,146.27376009976751L39.788941241779916,152.98973377460115L40.29208639022016,147.74574905955913L40.795231538660396,145.91577869347046L41.29837668710063,149.00564363775433L41.80152183554087,153.59599666106058L42.3046669839811,143.42513135981903L42.80781213242133,148.0680704286447L43.31095728086157,147.456959467279L43.814102429301805,155.55670715359938L44.317247577742044,150.46756283462148L44.82039272618228,150.83298981650844L45.32353787462251,151.7895906076812L45.82668302306275,140.78255692282235L46.32982817150298,148.67449121112173L46.832973319943214,148.39818874755645L47.336118468383454,150.71584431478388L47.839263616823686,154.99892056842685L48.342408765263926,156.28031346777726L48.84555391370416,156.10869161609742L49.34869906214439,155.75143074937358L49.85184421058464,150.27843231608998L50.35498935902487,157.62892336898096L50.8581345074651,147.63330263227348L51.36127965590534,149.50451499337854L51.864424804345575,147.11992041024425L52.367569952785814,150.19262583802524L52.87071510122605,148.86256983083183L53.37386024966628,153.16481154756733L53.87700539810652,148.96736163709585L54.38015054654675,151.26616308549077L54.883295694986984,150.48989733750363L55.38644084342722,148.3982398969706L55.889585991867456,151.825679855194L56.392731140307696,147.898145403182L56.89587628874793,151.15364994157798L57.39902143718816,149.40476029246432L57.9021665856284,145.9984717289349L58.40531173406863,154.68353995245246L58.908456882508865,154.55053813234198L59.41160203094911,155.3147770963416L59.914747179389344,147.35183185399168L60.417892327829584,150.2332162339831L60.92103747626982,153.82000440837837L61.42418262471005,150.69994796642172L61.92732777315029,153.37764203594998L62.43047292159052,151.69960766875684L62.933618070030754,155.15584029937048L63.43676321847099,155.4138824220849L63.939908366911226,152.1039504592602L64.44305351535147,153.04770829970664L64.94619866379169,153.87747855878027L65.44934381223193,152.03339540216186L65.95248896067217,154.5978713554171L66.4556341091124,151.2293221639787L66.95877925755264,158.18467732091298L67.46192440599286,155.08427782120216L67.96506955443311,157.45960546482536L68.46821470287334,157.36449424116077L68.97135985131358,151.29583641735937L69.4745049997538,153.87843038266092L69.97765014819404,152.31913604458123L70.48079529663428,150.94533616885337L70.98394044507452,156.39787928425287L71.48708559351475,156.28715414594765L71.99023074195499,150.94492252576504L72.49337589039521,155.6037490474026L72.99652103883545,158.7428219519845L73.4996661872757,151.57348655679309L74.00281133571593,154.13767785243917L74.50595648415617,148.55956292530612L75.0091016325964,152.28974292254665L75.51224678103664,151.21649033269026L76.01539192947688,154.17062029903812L76.51853707791712,147.98780587840847L77.02168222635734,157.38930393091016L77.52482737479758,151.26582950235502L78.0279725232378,151.87466320284733L78.53111767167806,150.42583380822694L79.03426282011829,149.32667515204832L79.53740796855853,149.24673528939758L80.04055311699875,150.38382457199836L80.54369826543899,154.62671072944633L81.04684341387922,153.25388269258733L81.54998856231947,153.34964106753526L82.0531337107597,153.92582587458804L82.55627885919994,152.94050357542739L83.05942400764016,154.8847083744093L83.5625691560804,154.54420005276276L84.06571430452065,155.05714861671552L84.56885945296088,152.2414133978394L85.07200460140112,153.23340958360262L85.57514974984134,147.75281657426186L86.07829489828158,152.52390938829174L86.58144004672182,153.75506244351087L87.08458519516206,155.21957691717415L87.58773034360229,146.25167912006853L88.09087549204253,148.79311115030632L88.59402064048275,152.37495784651736L89.097165788923,158.4363680207227L89.60031093736323,154.48873852061323L90.10345608580347,152.67562077454258L90.6066012342437,151.01997650742086L91.10974638268394,146.07747311103043L91.61289153112416,154.71162987637004L92.11603667956442,151.7194847758723L92.61918182800464,155.9865912928632L93.12232697644488,151.223760221162L93.62547212488512,155.1157302631281L94.12861727332535,157.24107737648413L94.6317624217656,155.49358655265303L95.13490757020583,155.86592315322514L95.63805271864607,156.92111555211213L96.14119786708629,154.3830771743087L96.64434301552653,150.07155739862426L97.14748816396676,149.1786509713913L97.65063331240701,150.89109999875583L98.15377846084724,154.29013868880162L98.65692360928747,155.7754287201593L99.1600687577277,153.51720210050925L99.66321390616794,154.3391709619815L100.16635905460818,148.7358193586853L100.66950420304842,149.68968254425732L101.17264935148864,154.7927595188716L101.67579449992888,156.48551379790155L102.17893964836911,153.31450142001552L102.68208479680936,154.240554891504L103.1852299452496,151.18803346732335L103.68837509368983,155.34219763010015L104.19152024213007,152.26300289838505L104.6946653905703,154.34301828748048L105.19781053901053,155.63392720174997L105.70095568745077,153.53034305217017L106.20410083589101,154.85952951932302L106.70724598433124,157.11882138111991L107.21039113277148,159.972295972087L107.7135362812117,156.38621054616436L108.21668142965196,154.62641940017446L108.71982657809218,153.31774829587013L109.22297172653242,151.34895619589597L109.72611687497265,149.45755983119057L110.22926202341289,149.73839457762688L110.73240717185313,156.96951624122164L111.23555232029337,152.19492969981667L111.73869746873359,154.31368965818547L112.24184261717383,149.7473768595288L112.74498776561407,150.70553659588927L113.2481329140543,153.45229794173045L113.75127806249455,152.6567332973965L114.25442321093477,153.97596564377864L114.75756835937501,153.1544482314834L115.26071350781524,155.9180733167805L115.76385865625548,157.74273748712318L116.26700380469572,154.79923770336785L116.77014895313596,154.65043071428562L117.27329410157618,152.87295743821346L117.77643925001642,150.68170764055898L118.27958439845665,150.2005918033069L118.7827295468969,154.78038136064777L119.28587469533713,156.75800007039385L119.78901984377737,154.72663666970357L120.2921649922176,152.1050090297443L120.79531014065783,151.18326100459458L121.29845528909806,152.26450179860834L121.80160043753831,156.26101901920558L122.30474558597855,148.59723113299484L122.80789073441878,156.59587866642013L123.31103588285902,154.50771495326217L123.81418103129924,153.30225224727081L124.3173261797395,150.4438272825692L124.82047132817972,153.710282243368L125.32361647661996,155.61336736115L125.82676162506019,154.32458670728658L126.32990677350043,157.03990895452728L126.83305192194067,155.52136290842304L127.3361970703809,154.32121529372793L127.83934221882113,153.129296063048L128.34248736726136,152.63768792423284L128.8456325157016,151.74714548948856L129.34877766414183,155.7949989307899L129.85192281258207,158.2434257588934L130.3550679610223,159.11897474362956L130.85821310946255,151.47160137158522L131.36135825790276,154.4956147809848L131.864503406343,155.1361455510359L132.36764855478327,158.81431104186296L132.87079370322348,155.03181853727438L133.37393885166372,155.0087568231563L133.87708400010396,156.1070748498328L134.3802291485442,157.04221957371422L134.8833742969844,156.88914049660684L135.38651944542465,158.09774555573694L135.8896645938649,159.7830342441888L136.39280974230516,155.98564836453284L136.89595489074537,153.99056546568653L137.3991000391856,153.69621837836485L137.90224518762585,154.27889916101446L138.4053903360661,154.92907493146384L138.9085354845063,151.66069853180315L139.41168063294654,155.2340410819402L139.91482578138678,151.74479261643776L140.41797092982702,152.8272120708645L140.92111607826723,154.3596885487176L141.42426122670747,156.17561284090368L141.92740637514774,157.47789471621465L142.43055152358798,147.41844173453794L142.93369667202822,155.03746721170637L143.43684182046843,154.45314964780403L143.93998696890867,149.478537762654L144.4431321173489,157.6923397469743L144.94627726578915,154.87744960537543L145.44942241422936,154.98904428372114L145.9525675626696,152.3607383093842L146.45571271110984,156.57161605301334L146.9588578595501,155.62233185195134L147.46200300799032,151.96403679657703L147.96514815643056,157.0855876052491L148.4682933048708,156.65570346598523L148.97143845331104,158.23631599032683L149.47458360175125,154.21420627155499L149.9777287501915,156.6019854616919L150.48087389863173,152.57747839211783L150.98401904707197,149.14753211260114L151.4871641955122,156.28853518012968L151.99030934395242,156.50874007969992L152.4934544923927,152.83928110871588L152.99659964083293,151.98809703621478L153.49974478927317,150.49977584609692L154.00288993771338,158.40184439006032L154.50603508615362,153.0245420628727L155.00918023459386,146.90528412515343L155.5123253830341,147.19199660644162L156.0154705314743,147.2995349138566L156.51861567991455,155.17428077511465L157.0217608283548,152.3841202633126L157.52490597679503,153.49501437420685L158.02805112523527,150.66896254088581L158.5311962736755,155.67967256909895L159.03434142211574,156.2992965720889L159.53748657055598,157.80436585950892L160.0406317189962,155.68004173443583L160.54377686743643,152.47095640132304L161.04692201587667,153.84398236417596L161.5500671643169,159.31241070849978L162.05321231275715,154.60369794085486L162.55635746119736,155.96034497174253L163.05950260963763,151.55972736438724L163.56264775807787,155.56709938022172L164.0657929065181,156.25011974621688L164.56893805495832,156.01368046737355L165.07208320339856,153.92419798888562L165.5752283518388,154.4099884378133L166.07837350027904,154.8410223269517L166.58151864871925,152.82630472473528L167.0846637971595,153.0481330622328L167.58780894559973,151.79139640438936L168.09095409403997,154.0438120058147L168.5940992424802,156.7758134098428L169.09724439092045,151.8179607414328L169.6003895393607,159.91821547411948L170.10353468780093,148.15045211984912L170.60667983624117,153.01678291913518L171.10982498468138,152.47019805566111L171.61297013312162,155.23861339478754L172.11611528156186,155.43810055774023L172.6192604300021,157.40574957950255L173.1224055784423,155.2799865991706L173.62555072688255,152.20093197237256L174.12869587532282,150.98254625570235L174.63184102376306,154.24837185631836L175.13498617220327,148.97544769230637L175.6381313206435,154.662499752137L176.14127646908375,156.99062315816423L176.644421617524,157.7554536762579L177.1475667659642,154.55204815200312L177.65071191440444,151.70876119000178L178.15385706284468,157.59576520528756L178.65700221128492,155.4070928933286L179.1601473597252,156.2949599913242L179.6632925081654,156.96339610262444L180.16643765660564,152.39611368898653L180.66958280504588,153.52601536695573L181.17272795348612,155.7205231599027L181.67587310192633,149.95404495545037L182.17901825036657,159.90578839036908L182.6821633988068,154.9455717294704L183.18530854724705,157.44781441292042L183.68845369568726,156.00825862947386L184.1915988441275,157.7575641455634L184.69474399256777,157.1560292440813L185.197889141008,157.44511461340844L185.70103428944822,154.26672560044722L186.20417943788846,153.93100086096732L186.7073245863287,156.0868419207059L187.21046973476894,155.36570189784496L187.71361488320915,157.4461376016914L188.2167600316494,154.77750365013006L188.71990518008963,160.92750238575235L189.22305032852987,153.51846082087482L189.72619547697008,159.1313284390901L190.22934062541034,158.62809826382548L190.73248577385058,147.1704204492214L191.23563092229082,158.8207981219095L191.73877607073106,153.63420972120437L192.24192121917127,154.80103682841332L192.7450663676115,154.94698612196598L193.24821151605175,151.80821121831866L193.751356664492,155.35828078501834L194.2545018129322,158.48823130278132L194.75764696137244,154.29989488357847L195.2607921098127,156.0389416063L195.76393725825295,151.93050279588405L196.26708240669316,151.95641775775655L196.7702275551334,158.61906483250942L197.27337270357364,153.38280590289136L197.77651785201388,153.32998634917695L198.2796630004541,152.822401802047L198.78280814889433,155.04200394235255L199.28595329733457,151.06136527901697L199.7890984457748,155.6927312369197L200.29224359421505,159.52092463110583L200.7953887426553,154.97537849459331L201.29853389109553,156.55932685029236L201.80167903953577,154.20256644400496L202.304824187976,153.2539227225636L202.80796933641622,152.38786528998327L203.31111448485646,155.42679876110108L203.8142596332967,155.3463184937704L204.31740478173694,153.77447475812386L204.82054993017715,157.7379650243944L205.3236950786174,154.3339448261881L205.82684022705763,154.18174196078397L206.3299853754979,153.9836558470014L206.8331305239381,156.5002848591525L207.33627567237835,154.07129258453764L207.8394208208186,158.98719828557108L208.34256596925883,156.21686150758276L208.84571111769907,154.71463434847934L209.34885626613928,152.85880016993232L209.85200141457952,152.312688994511L210.35514656301976,148.64422187738393L210.85829171146,149.65996473463727L211.36143685990024,153.79191893223592L211.86458200834048,158.29154846205648L212.36772715678072,154.76352206896706L212.87087230522096,157.88136796667752L213.37401745366117,159.782140241385L213.8771626021014,152.71205027685386L214.38030775054165,155.80916064684618L214.8834528989819,157.32436196604266L215.3865980474221,156.47279983265437L215.88974319586234,150.18877851252626L216.39288834430258,157.62951492307502L216.89603349274284,150.76038878284416L217.39917864118308,157.31529295252543L217.9023237896233,161.11620814175765L218.40546893806354,152.5307789770006L218.90861408650377,154.39441010537388L219.41175923494401,157.68770516527496L219.91490438338423,155.15235324365813L220.41804953182447,156.37081679639337L220.9211946802647,155.7774391145241L221.42433982870494,153.74399193117918L221.92748497714516,159.3267303205737L222.43063012558542,156.95236117249388L222.93377527402566,157.6300486560922L223.4369204224659,157.3509485419618L223.9400655709061,152.89297020247082L224.44321071934635,155.63586643171246L224.9463558677866,157.37199541393997L225.44950101622683,150.56305434306083L225.95264616466704,158.6794189173166L226.45579131310728,154.06869508385398L226.95893646154752,153.24744676195493L227.4620816099878,158.7512660530941L227.96522675842803,158.66015115539577L228.46837190686824,156.74610449577307L228.97151705530848,157.54254757569782L229.47466220374872,155.34657424084116L229.97780735218896,157.88403885565106L230.48095250062917,159.56768631507506L230.9840976490694,159.40536476121986L231.48724279750965,154.86692394549877L231.9903879459499,160.49334838235092L232.4935330943901,159.77546635478245L232.99667824283037,156.10631205639572L233.4998233912706,152.91260490584094L234.00296853971085,156.36945132942438L234.50611368815106,154.84192967308095L235.0092588365913,156.8981183307336L235.51240398503154,154.04301807795161L236.01554913347178,153.92943524411686L236.518694281912,157.2579811459163L237.02183943035223,157.7499851367192L237.52498457879247,156.40870739283926L238.0281297272327,153.4020959036879L238.53127487567298,153.9315012356709L239.0344200241132,155.10756414796498L239.53756517255343,157.2236710084608L240.04071032099367,157.35054601831132L240.5438554694339,152.49249475245455L241.04700061787412,157.52135837491508L241.55014576631436,154.95645098747093L242.0532909147546,152.7673850474118L242.55643606319484,158.67338106255954L243.05958121163505,154.41065338019723L243.56272636007532,155.69762378957734L244.06587150851556,159.7441251072351L244.5690166569558,154.16663731639727L245.072161805396,156.22211210613943L245.57530695383625,159.13995045120544L246.0784521022765,157.27682414531094L246.58159725071673,151.72917203013444L247.08474239915697,157.56013852638964L247.58788754759718,158.45880704632074L248.09103269603742,153.43697980413688L248.59417784447766,160.6735433206195L249.09732299291792,157.6604847813979L249.60046814135814,152.71822823652792L250.10361328979837,153.98896649052253L250.60675843823861,152.64133509985035L251.10990358667885,154.9652575822547L251.61304873511907,156.16691521661096L252.1161938835593,154.5470777632805L252.61933903199954,160.76580129652965L253.12248418043978,154.5605078203257L253.62562932888,145.63918267674575L254.12877447732023,154.8067522194725L254.6319196257605,154.0521604797587L255.13506477420074,153.07276039320135L255.63820992264098,151.73273247413667L256.1413550710812,155.9836735523692L256.64450021952143,154.81598135289485L257.1476453679617,158.99418574032123L257.6507905164019,154.45480866793247L258.15393566484215,152.45192214759726" style="fill: none;" fill="none"></path></g><g><path stroke="rgb(0, 119, 187)" stroke-width="2px" d="M7.08450659316461,67.00746184505701L7.587651741604846,105.72860913454531L8.090796890045082,108.45564682151347L8.593942038485318,108.541568941732L9.097087186925553,117.50428952857077L9.600232335365789,117.64023132805099L10.103377483806023,109.91364530459182L10.60652263224626,118.35050543623679L11.109667780686495,120.8687556624276L11.612812929126731,127.1535731343064L12.115958077566965,119.05970763061308L12.619103226007203,113.8887909656254L13.122248374447437,130.9485972453613L13.625393522887673,124.67407192516414L14.128538671327908,134.1259321356135L14.631683819768144,128.54835538927284L15.13482896820838,129.73717452067788L15.637974116648616,131.33734168843708L16.14111926508885,129.5956463156177L16.644264413529086,125.65976116577413L17.147409561969322,122.18673818399448L17.650554710409555,128.47214276219216L18.15369985884979,120.4925139152797L18.65684500729003,131.7743355962675L19.159990155730267,132.37727599469488L19.6631353041705,134.22835550161375L20.166280452610735,125.06012546427822L20.66942560105097,130.63517142656235L21.172570749491207,131.8061505318676L21.67571589793144,131.9882024162585L22.178861046371676,141.61464224885808L22.682006194811912,128.5803704747544L23.185151343252148,133.23530964091668L23.688296491692384,131.52074569647155L24.19144164013262,128.24395855401482L24.694586788572856,130.79652781321144L25.197731937013092,132.10540129128478L25.700877085453325,131.4257189805347L26.20402223389356,126.80422263567492L26.707167382333797,137.6816214662068L27.210312530774033,137.05269716539215L27.713457679214265,120.64274641629534L28.216602827654505,130.70176351600801L28.71974797609474,133.53329723219318L29.222893124534977,138.7568800026528L29.72603827297521,138.12829373274906L30.229183421415446,125.8373030061697L30.73232856985568,137.74249816459331L31.235473718295918,123.48682285838463L31.73861886673615,134.90798888683727L32.241764015176386,134.360761319855L32.744909163616626,134.557868923106L33.24805431205686,137.6680290653688L33.7511994604971,132.60556250170055L34.25434460893733,133.49249779080358L34.75748975737756,132.3260954461208L35.2606349058178,127.69353748447965L35.763780054258035,134.12755557354083L36.266925202698275,129.98404383223232L36.77007035113851,142.0472817848232L37.27321549957874,135.52171069221205L37.77636064801898,139.89639109881912L38.27950579645921,136.33476398840955L38.782650944899444,137.84975626217428L39.285796093339684,131.6678780982123L39.788941241779916,135.3367188284514L40.29208639022016,131.0572163621361L40.795231538660396,129.1955111203999L41.29837668710063,142.37607021896713L41.80152183554087,136.3942930109276L42.3046669839811,137.06934518775356L42.80781213242133,137.093225292498L43.31095728086157,133.5198560557101L43.814102429301805,134.54355598269484L44.317247577742044,136.64746037208496L44.82039272618228,142.67799409124544L45.32353787462251,134.75363774603892L45.82668302306275,134.2777569401305L46.32982817150298,139.4291345289136L46.832973319943214,142.19298200296782L47.336118468383454,134.4110923433767L47.839263616823686,134.2711653373681L48.342408765263926,142.35715827905778L48.84555391370416,141.02426681521052L49.34869906214439,142.07858522628183L49.85184421058464,138.63490421712262L50.35498935902487,136.56101341439955L50.8581345074651,136.2029853064635L51.36127965590534,140.02366863232012L51.864424804345575,139.16120055428047L52.367569952785814,141.19748986594198L52.87071510122605,132.062796053187L53.37386024966628,136.7968700346991L53.87700539810652,135.11598464363914L54.38015054654675,139.4595217286927L54.883295694986984,136.97527919124767L55.38644084342722,135.78053562335168L55.889585991867456,141.15805144374622L56.392731140307696,133.52480198166944L56.89587628874793,141.67888591302807L57.39902143718816,133.79178858019708L57.9021665856284,128.87982138405303L58.40531173406863,126.5460426319311L58.908456882508865,138.36787758861874L59.41160203094911,135.35325565643427L59.914747179389344,140.20442621414435L60.417892327829584,136.00835956174245L60.92103747626982,140.65681387174578L61.42418262471005,144.5055893454076L61.92732777315029,141.0849522592659L62.43047292159052,134.26138023205283L62.933618070030754,143.8176030384649L63.43676321847099,138.23911449821983L63.939908366911226,143.12589394372728L64.44305351535147,137.7680372894662L64.94619866379169,136.7931605902296L65.44934381223193,143.69010311620673L65.95248896067217,139.10546993173477L66.4556341091124,141.95849974518754L66.95877925755264,138.75214312212518L67.46192440599286,137.13584387392123L67.96506955443311,139.1769679171635L68.46821470287334,132.91854354298513L68.97135985131358,146.2562647762413L69.4745049997538,143.3546919448744L69.97765014819404,138.69460225509616L70.48079529663428,139.13989126356884L70.98394044507452,139.05845694846997L71.48708559351475,140.13160723949804L71.99023074195499,144.00613533123962L72.49337589039521,134.8252335825208L72.99652103883545,137.05436063329574L73.4996661872757,139.29418458329036L74.00281133571593,134.29826118354114L74.50595648415617,139.84710085468095L75.0091016325964,136.57538862366275L75.51224678103664,142.42407950386405L76.01539192947688,140.38320008825465L76.51853707791712,140.82852023115336L77.02168222635734,140.98905822717606L77.52482737479758,137.21545460121135L78.0279725232378,140.81880629024036L78.53111767167806,136.4694159330982L79.03426282011829,139.79782840164333L79.53740796855853,137.79193518531122L80.04055311699875,137.7092288065213L80.54369826543899,138.36188198772555L81.04684341387922,142.77016088776517L81.54998856231947,138.1383501523481L82.0531337107597,142.6736441671553L82.55627885919994,141.14847983163781L83.05942400764016,138.5533142298937L83.5625691560804,139.53973735340236L84.06571430452065,142.3863356839979L84.56885945296088,141.9388094446281L85.07200460140112,136.9524354181116L85.57514974984134,141.0481691588307L86.07829489828158,142.9200420145445L86.58144004672182,136.2825515560022L87.08458519516206,138.5304126356808L87.58773034360229,138.68308251747496L88.09087549204253,140.60546430771623L88.59402064048275,136.77717528636452L89.097165788923,139.96010102997192L89.60031093736323,139.1097664825232L90.10345608580347,136.21254357524646L90.6066012342437,138.84812610971787L91.10974638268394,139.63173068669147L91.61289153112416,142.66953887069803L92.11603667956442,143.92696493368868L92.61918182800464,141.92865072620077L93.12232697644488,144.0554522620287L93.62547212488512,134.43910443122928L94.12861727332535,140.90067203952816L94.6317624217656,141.9064830148865L95.13490757020583,141.1550402999742L95.63805271864607,144.69577621053563L96.14119786708629,145.35483196405863L96.64434301552653,142.82340075623063L97.14748816396676,139.57315348805403L97.65063331240701,135.49516192238164L98.15377846084724,147.18468001633087L98.65692360928747,144.29188709309688L99.1600687577277,136.77065484800445L99.66321390616794,143.50429286181972L100.16635905460818,142.601074267917L100.66950420304842,136.61982189734442L101.17264935148864,140.1779263698405L101.67579449992888,138.86844799434766L102.17893964836911,141.51493647347044L102.68208479680936,139.37893693864618L103.1852299452496,143.30494357989645L103.68837509368983,138.2407868616737L104.19152024213007,141.86470506296538L104.6946653905703,137.46910232208418L105.19781053901053,144.7149327780779L105.70095568745077,147.71811503259372L106.20410083589101,139.51108923370427L106.70724598433124,141.8370221104734L107.21039113277148,132.444037099596L107.7135362812117,142.93613406501302L108.21668142965196,141.79079638340895L108.71982657809218,143.71422784858404L109.22297172653242,137.87026940113523L109.72611687497265,146.75357718667777L110.22926202341289,141.08120278482005L110.73240717185313,139.74096804421123L111.23555232029337,141.37837198547018L111.73869746873359,141.7155400279841L112.24184261717383,138.6978713698265L112.74498776561407,140.92802140888438L113.2481329140543,142.64382628259455L113.75127806249455,138.56517199842577L114.25442321093477,141.5457595552136L114.75756835937501,140.150568104934L115.26071350781524,141.7929491065783L115.76385865625548,144.31199993229492L116.26700380469572,143.70650651093527L116.77014895313596,137.27348472350616L117.27329410157618,139.81605983195576L117.77643925001642,142.58268716547457L118.27958439845665,139.06031611847988L118.7827295468969,143.76499475406982L119.28587469533713,140.2716632309858L119.78901984377737,146.9870097695242L120.2921649922176,145.95519042901535L120.79531014065783,140.96141085688524L121.29845528909806,136.57164804476722L121.80160043753831,130.94963802474481L122.30474558597855,147.5590559218062L122.80789073441878,142.42062803035282L123.31103588285902,139.2206939945974L123.81418103129924,143.71739021671095L124.3173261797395,137.43995605157005L124.82047132817972,142.85078126001284L125.32361647661996,143.1646118263498L125.82676162506019,140.2263359545003L126.32990677350043,140.2754749742836L126.83305192194067,136.68220639150454L127.3361970703809,139.27458768600894L127.83934221882113,146.00425161273364L128.34248736726136,139.91134451885094L128.8456325157016,137.07452684579553L129.34877766414183,140.51445393273377L129.85192281258207,138.79882697002938L130.3550679610223,142.9837608412476L130.85821310946255,137.64708893999412L131.36135825790276,144.83640151724174L131.864503406343,141.444812850561L132.36764855478327,147.57655124533238L132.87079370322348,143.03392284931385L133.37393885166372,137.50023230031223L133.87708400010396,144.40529646370103L134.3802291485442,145.20347195204417L134.8833742969844,139.4714951393785L135.38651944542465,140.45510282122143L135.8896645938649,139.624205051149L136.39280974230516,144.14691631007574L136.89595489074537,144.08651552362957L137.3991000391856,144.84805913589236L137.90224518762585,141.391679728699L138.4053903360661,140.45973740292078L138.9085354845063,144.4358215445096L139.41168063294654,145.62148053167533L139.91482578138678,149.4498362696542L140.41797092982702,143.2770159997716L140.92111607826723,143.36142142866623L141.42426122670747,143.50191774989318L141.92740637514774,145.3823347816573L142.43055152358798,142.18114202553633L142.93369667202822,138.9708268825964L143.43684182046843,142.0250607002072L143.93998696890867,138.4064664857621L144.4431321173489,142.99776243739873L144.94627726578915,139.92888654401617L145.44942241422936,143.45358822518594L145.9525675626696,146.25887562025042L146.45571271110984,140.9809810675158L146.9588578595501,139.7340650971888L147.46200300799032,139.88272753357887L147.96514815643056,143.27942224612414L148.4682933048708,145.6475645090033L148.97143845331104,143.50564943323843L149.47458360175125,138.48423138636775L149.9777287501915,139.58266283131044L150.48087389863173,144.5433598519246L150.98401904707197,141.52155031510856L151.4871641955122,136.93416395782288L151.99030934395242,139.1226961648648L152.4934544923927,139.26569658349743L152.99659964083293,144.6085286533244L153.49974478927317,140.4697938225198L154.00288993771338,145.48103758375012L154.50603508615362,148.06811490639612L155.00918023459386,145.00445625325665L155.5123253830341,134.9242810871872L156.0154705314743,144.66379225948006L156.51861567991455,139.4105383810394L157.0217608283548,145.42593187361206L157.52490597679503,148.98622020370348L158.02805112523527,141.99374391542315L158.5311962736755,148.68352686632537L159.03434142211574,137.55545142871645L159.53748657055598,137.26024814467968L160.0406317189962,135.07968190291942L160.54377686743643,141.61456663668062L161.04692201587667,140.31022099370318L161.5500671643169,141.5506787945221L162.05321231275715,138.74926541160747L162.55635746119736,145.40739799458987L163.05950260963763,139.84763458769814L163.56264775807787,137.38530623838417L164.0657929065181,146.01839331380182L164.56893805495832,140.79711449086642L165.07208320339856,140.4672274562621L165.5752283518388,146.64815824411855L166.07837350027904,145.71152796333928L166.58151864871925,146.18500252289516L167.0846637971595,143.25775268562592L167.58780894559973,140.59649759302732L168.09095409403997,144.3410794861819L168.5940992424802,140.08346452134683L169.09724439092045,147.73646655283503L169.6003895393607,142.67336840509643L170.10353468780093,146.16496084809938L170.60667983624117,145.08391130841676L171.10982498468138,141.46992498902011L171.61297013312162,148.14258178173304L172.11611528156186,145.83746671652216L172.6192604300021,142.27632886137835L173.1224055784423,141.1482752339812L173.62555072688255,136.76357398997627L174.12869587532282,144.04134836704924L174.63184102376306,140.83643727090845L175.13498617220327,143.06161469735613L175.6381313206435,148.0556744793203L176.14127646908375,141.44097886838745L176.644421617524,136.80310136767488L177.1475667659642,144.66615402808117L177.65071191440444,144.47186186649586L178.15385706284468,140.84486135702988L178.65700221128492,143.46099821857473L179.1601473597252,145.91176012862846L179.6632925081654,136.3829600798625L180.16643765660564,143.20294720031L180.66958280504588,141.4210839701714L181.17272795348612,139.94238109380098L181.67587310192633,144.09635400224658L182.17901825036657,145.57922666781388L182.6821633988068,140.41006465012026L183.18530854724705,144.42370135724408L183.68845369568726,143.13615940875803L184.1915988441275,144.18427762127956L184.69474399256777,144.23391479187893L185.197889141008,139.23414851440592L185.70103428944822,145.14633360866557L186.20417943788846,142.08151631010128L186.7073245863287,143.0986824554005L187.21046973476894,144.93589824719763L187.71361488320915,145.0073384115495L188.2167600316494,146.01142587403982L188.71990518008963,144.6444889153581L189.22305032852987,147.52831512390316L189.72619547697008,133.66532054177213L190.22934062541034,139.36255578279335L190.73248577385058,145.0328775364224L191.23563092229082,138.2655342825711L191.73877607073106,140.6796531971067L192.24192121917127,145.6620775992959L192.7450663676115,141.6574253979616L193.24821151605175,144.39354099399728L193.751356664492,148.29530726071653L194.2545018129322,144.9793263236969L194.75764696137244,146.7056412900707L195.2607921098127,142.9574211168489L195.76393725825295,145.91211595063993L196.26708240669316,145.54885948302294L196.7702275551334,146.94462024852086L197.27337270357364,137.95619152135373L197.77651785201388,145.4292788244074L198.2796630004541,137.58661698914563L198.78280814889433,143.2084802325883L199.28595329733457,143.47125478805518L199.7890984457748,135.36896075046528L200.29224359421505,143.11861738359283L200.7953887426553,147.11355119623903L201.29853389109553,134.6595139284561L201.80167903953577,146.83059263717178L202.304824187976,146.60558414044675L202.80796933641622,143.34676156179387L203.31111448485646,140.63628294168424L203.8142596332967,134.86359119535672L204.31740478173694,141.23494458042381L204.82054993017715,149.5764199502329L205.3236950786174,149.247989561988L205.82684022705763,144.74462612493463L206.3299853754979,139.16565722497407L206.8331305239381,146.3580743492717L207.33627567237835,147.10997740891136L207.8394208208186,137.92175239841907L208.34256596925883,144.64639701089456L208.84571111769907,143.56392863094123L209.34885626613928,145.17638500142138L209.85200141457952,146.74133468559577L210.35514656301976,141.0146507253507L210.85829171146,148.60516151607536L211.36143685990024,145.60098073603982L211.86458200834048,135.2355141528405L212.36772715678072,141.67674653318414L212.87087230522096,142.56826747845994L213.37401745366117,145.20042967384612L213.8771626021014,148.72457983089816L214.38030775054165,148.2294156958559L214.8834528989819,136.17316742190272L215.3865980474221,142.64595231911304L215.88974319586234,146.2133793283095L216.39288834430258,141.92284637963874L216.89603349274284,147.25942932538936L217.39917864118308,147.28486837532154L217.9023237896233,149.91834044048744L218.40546893806354,143.0002442959287L218.90861408650377,143.51993568699876L219.41175923494401,139.62764318133475L219.91490438338423,139.95103646422984L220.41804953182447,150.08792965892678L220.9211946802647,142.77133065262785L221.42433982870494,140.31039445693375L221.92748497714516,139.96708848472207L222.43063012558542,144.07616999864624L222.93377527402566,139.68115436408397L223.4369204224659,146.93078989171275L223.9400655709061,144.88375253141743L224.44321071934635,148.6124870017364L224.9463558677866,134.9534629399025L225.44950101622683,143.03420750692305L225.95264616466704,144.54476979664503L226.45579131310728,141.8084540507279L226.95893646154752,141.07160003828565L227.4620816099878,144.71233082961902L227.96522675842803,143.4973098548447L228.46837190686824,146.61051227530555L228.97151705530848,142.09895158866306L229.47466220374872,142.49145884951008L229.97780735218896,142.41332923134266L230.48095250062917,144.9246320327596L230.9840976490694,147.3577940965713L231.48724279750965,141.51708474886468L231.9903879459499,138.00725197999895L232.4935330943901,144.9500377243782L232.99667824283037,145.22104066386024L233.4998233912706,142.52224190127694L234.00296853971085,144.94427785556763L234.50611368815106,146.8886449983423L235.0092588365913,142.48459593246395L235.51240398503154,142.4638070314441L236.01554913347178,141.71464157740516L236.518694281912,135.00193034563915L237.02183943035223,143.18102411662863L237.52498457879247,147.09347838701726L238.0281297272327,146.68433644713426L238.53127487567298,140.24834354590942L239.0344200241132,143.44300696812002L239.53756517255343,146.3787720709011L240.04071032099367,149.0873225804861L240.5438554694339,147.29812496913618L241.04700061787412,137.95983424919612L241.55014576631436,142.58455523103476L242.0532909147546,137.68400102590846L242.55643606319484,146.0546827111961L243.05958121163505,145.33277322323536L243.56272636007532,144.62310401246904L244.06587150851556,141.48969534953216L244.5690166569558,144.90426567037838L245.072161805396,145.6701592067313L245.57530695383625,145.0238307617809L246.0784521022765,147.7716440064435L246.58159725071673,139.31931896062522L247.08474239915697,142.89548140020315L247.58788754759718,147.22450984273922L248.09103269603742,136.80077962905008L248.59417784447766,141.61981501134974L249.09732299291792,135.89467442907937L249.60046814135814,150.2671638777644L250.10361328979837,144.94709774500848L250.60675843823861,136.85390830313693L251.10990358667885,144.38684709240658L251.61304873511907,142.86598375545267L252.1161938835593,143.8164733035785L252.61933903199954,147.44126104491068L253.12248418043978,142.43938874590734L253.62562932888,146.86428008610721L254.12877447732023,146.27666227304852L254.6319196257605,146.96109035987655L255.13506477420074,144.83632145728916L255.63820992264098,142.36101894788214L256.1413550710812,146.92506782899088L256.64450021952143,146.3253164853412L257.1476453679617,144.16116698163492L257.6507905164019,141.43264373776887L258.15393566484215,151.3169255432014" style="fill: none;" fill="none"></path></g><g><path stroke="rgb(255, 112, 67)" stroke-width="2px" d="M7.08450659316461,13.292962398516327L7.587651741604846,41.10192036030176L8.090796890045082,55.02278049704729L8.593942038485318,54.299696796448735L9.097087186925553,62.73169106208693L9.600232335365789,62.52732468980204L10.103377483806023,72.49028763751973L10.60652263224626,88.74605181349847L11.109667780686495,86.95035155488902L11.612812929126731,90.6191789418027L12.115958077566965,77.2695821489139L12.619103226007203,96.35484296006217L13.122248374447437,85.33137919382395L13.625393522887673,88.62806123449668L14.128538671327908,84.09401704450477L14.631683819768144,90.71285798187115L15.13482896820838,81.648763703966L15.637974116648616,103.06091366353921L16.14111926508885,102.53684121395301L16.644264413529086,97.76583735542597L17.147409561969322,98.45134625161384L17.650554710409555,83.38996982151957L18.15369985884979,98.65544575739014L18.65684500729003,101.32412863447804L19.159990155730267,101.34001608728997L19.6631353041705,99.85717233226109L20.166280452610735,105.77346049909046L20.66942560105097,98.68746973842198L21.172570749491207,100.31332725540891L21.67571589793144,91.95260413866716L22.178861046371676,102.67762219278913L22.682006194811912,103.51544070098457L23.185151343252148,103.96375864432989L23.688296491692384,99.02626566663838L24.19144164013262,94.01924506790661L24.694586788572856,91.97111577881361L25.197731937013092,100.71402731806991L25.700877085453325,97.39184173472543L26.20402223389356,99.76586840411917L26.707167382333797,99.93955402346553L27.210312530774033,96.32524746425855L27.713457679214265,98.9750984613897L28.216602827654505,107.2070584877326L28.71974797609474,98.49932884985986L29.222893124534977,101.78367276228506L29.72603827297521,115.20176084460576L30.229183421415446,106.56587611862298L30.73232856985568,106.67219573564871L31.235473718295918,94.55271121859549L31.73861886673615,104.41769857545633L32.241764015176386,92.14160789560707L32.744909163616626,102.44834827970168L33.24805431205686,104.96340500333959L33.7511994604971,98.48589656892706L34.25434460893733,113.97381463526497L34.75748975737756,99.973428278957L35.2606349058178,113.35279847865515L35.763780054258035,103.07676553414998L36.266925202698275,107.23230405944602L36.77007035113851,111.0423305160593L37.27321549957874,110.9564795602431L37.77636064801898,109.22504075690422L38.27950579645921,114.55859032000708L38.782650944899444,114.09005279086028L39.285796093339684,112.7624541794336L39.788941241779916,105.40104828634095L40.29208639022016,113.22467586787688L40.795231538660396,117.48751696850535L41.29837668710063,106.01630902191532L41.80152183554087,114.32074999199361L42.3046669839811,115.86926959478862L42.80781213242133,112.3841308735186L43.31095728086157,103.8093141002535L43.814102429301805,117.0239653952942L44.317247577742044,107.79151393266439L44.82039272618228,115.57155331779589L45.32353787462251,106.26480621917217L45.82668302306275,106.31190815793984L46.32982817150298,109.55966911981132L46.832973319943214,111.80331370865402L47.336118468383454,113.29370533810109L47.839263616823686,112.68375969382296L48.342408765263926,101.3062218917511L48.84555391370416,111.67565366649069L49.34869906214439,116.65830490521223L49.85184421058464,106.40210014229592L50.35498935902487,118.6764650853896L50.8581345074651,111.66086481413916L51.36127965590534,116.43669895647182L51.864424804345575,104.59306545380683L52.367569952785814,111.44218550144308L52.87071510122605,111.28804785385158L53.37386024966628,110.52490749031237L53.87700539810652,122.24945181351517L54.38015054654675,119.43860914729672L54.883295694986984,109.96810831122168L55.38644084342722,115.25490286201804L55.889585991867456,111.70428399508819L56.392731140307696,105.89459120734344L56.89587628874793,101.24645268937525L57.39902143718816,123.52377942205041L57.9021665856284,112.84287440179983L58.40531173406863,103.6244111919957L58.908456882508865,113.11322796611091L59.41160203094911,118.38039448519986L59.914747179389344,99.27493187935067L60.417892327829584,104.1578061782823L60.92103747626982,115.68942825464396L61.42418262471005,109.24051901440292L61.92732777315029,126.32104303075634L62.43047292159052,123.47436019243307L62.933618070030754,121.16680552255612L63.43676321847099,111.7552199160294L63.939908366911226,113.00564962871962L64.44305351535147,114.3659838652011L64.94619866379169,121.52077725956148L65.44934381223193,115.96695163248604L65.95248896067217,109.59611863711073L66.4556341091124,123.1579098865367L66.95877925755264,104.10239579554691L67.46192440599286,116.72644482040778L67.96506955443311,114.16262269009856L68.46821470287334,119.17895692998042L68.97135985131358,113.54304761263518L69.4745049997538,123.2173988790785L69.97765014819404,113.21363648997118L70.48079529663428,114.4082733112637L70.98394044507452,111.39253943529341L71.48708559351475,126.853664104168L71.99023074195499,115.90887703243982L72.49337589039521,112.42102516833238L72.99652103883545,108.5140372135949L73.4996661872757,116.78494195909262L74.00281133571593,107.4681606797456L74.50595648415617,112.44235669791969L75.0091016325964,120.95492685805414L75.51224678103664,118.44407328192666L76.01539192947688,120.93376434392228L76.51853707791712,115.78731933777308L77.02168222635734,123.66098883744647L77.52482737479758,109.56350754975999L78.0279725232378,115.27004753638103L78.53111767167806,117.11413069299944L79.03426282011829,117.32821545397249L79.53740796855853,116.03907675421001L80.04055311699875,108.7136800486776L80.54369826543899,107.88094534747098L81.04684341387922,121.17524739977812L81.54998856231947,111.39251274864257L82.0531337107597,113.59540237384712L82.55627885919994,117.40533542718237L83.05942400764016,116.7965951299681L83.5625691560804,113.72410764316913L84.06571430452065,116.94161928629093L84.56885945296088,114.15643583487422L85.07200460140112,122.91556396230304L85.57514974984134,123.37314662127186L86.07829489828158,114.91613806822767L86.58144004672182,111.59890730639282L87.08458519516206,119.95191353326094L87.58773034360229,116.04851938083924L88.09087549204253,119.1838227959872L88.59402064048275,121.33399739019322L89.097165788923,118.26289316146384L89.60031093736323,120.32313374227206L90.10345608580347,117.8308184929419L90.6066012342437,109.73162900240204L91.10974638268394,114.28034195481663L91.61289153112416,127.53797210106717L92.11603667956442,109.97240041423497L92.61918182800464,111.46102627695014L93.12232697644488,116.69056461832666L93.62547212488512,115.51392349526398L94.12861727332535,113.17937972581741L94.6317624217656,119.89712139127049L95.13490757020583,115.77225917113785L95.63805271864607,122.64461439612275L96.14119786708629,115.4067054276593L96.64434301552653,119.69649559788108L97.14748816396676,120.54894283852289L97.65063331240701,106.62475576597015L98.15377846084724,112.03339266904243L98.65692360928747,123.52437542391964L99.1600687577277,127.98045901119959L99.66321390616794,102.81342166346474L100.16635905460818,112.94397233080731L100.66950420304842,110.1685117158539L101.17264935148864,118.3389723552902L101.67579449992888,113.69713633470009L102.17893964836911,115.19062806342204L102.68208479680936,109.51722400161867L103.1852299452496,97.3784183493429L103.68837509368983,115.18167024428342L104.19152024213007,121.11096815340697L104.6946653905703,117.67342952172068L105.19781053901053,120.31413589315714L105.70095568745077,113.96864632054844L106.20410083589101,120.389516786286L106.70724598433124,129.729853482792L107.21039113277148,127.75038894636147L107.7135362812117,120.15878400295153L108.21668142965196,113.46209365725176L108.71982657809218,128.67291088438614L109.22297172653242,123.0383270040336L109.72611687497265,115.30037246730812L110.22926202341289,115.398130117183L110.73240717185313,110.561953009481L111.23555232029337,132.47352584879616L111.73869746873359,126.86550852937464L112.24184261717383,119.50254146720668L112.74498776561407,119.06383071817092L113.2481329140543,122.38208446828874L113.75127806249455,126.52308766441645L114.25442321093477,112.3114764665526L114.75756835937501,122.06981507102708L115.26071350781524,113.07667170220803L115.76385865625548,125.24651392943382L116.26700380469572,122.0322313710661L116.77014895313596,122.49995050958651L117.27329410157618,114.64043383041918L117.77643925001642,125.11536683155813L118.27958439845665,115.43455739560673L118.7827295468969,116.40300261198611L119.28587469533713,117.41610793857947L119.78901984377737,114.75767718319689L120.2921649922176,123.59745681729939L120.79531014065783,120.3190996102171L121.29845528909806,118.77619309965293L121.80160043753831,120.30466657987704L122.30474558597855,125.70452802259156L122.80789073441878,111.55461191374057L123.31103588285902,116.78746384759887L123.81418103129924,129.23637283064153L124.3173261797395,118.86352071681672L124.82047132817972,123.60639684533744L125.32361647661996,123.70244210178213L125.82676162506019,122.10849737144846L126.32990677350043,125.39621714520744L126.83305192194067,117.71574565443414L127.3361970703809,119.10071166965928L127.83934221882113,130.1299575435838L128.34248736726136,106.04216838659855L128.8456325157016,123.69670447184727L129.34877766414183,121.31521443576301L129.85192281258207,125.76502666009088L130.3550679610223,120.53451425595799L130.85821310946255,125.21010444211068L131.36135825790276,125.1732190428472L131.864503406343,121.97278240850059L132.36764855478327,124.69337082151095L132.87079370322348,121.13392312092161L133.37393885166372,116.4561357338481L133.87708400010396,121.76129070043608L134.3802291485442,126.25116848325493L134.8833742969844,119.07582636773245L135.38651944542465,120.92982361514528L135.8896645938649,116.73902757628821L136.39280974230516,124.78240638432978L136.89595489074537,122.29202591718696L137.3991000391856,128.8058904656209L137.90224518762585,125.72194551005278L138.4053903360661,122.43769944868073L138.9085354845063,125.97422331618145L139.41168063294654,116.78866474688756L139.91482578138678,125.95480877768088L140.41797092982702,114.45035371189459L140.92111607826723,125.0550105228634L141.42426122670747,114.18706766228621L141.92740637514774,132.47793804173833L142.43055152358798,111.44518330188966L142.93369667202822,121.4941929075299L143.43684182046843,129.07488301073812L143.93998696890867,115.33454027595906L144.4431321173489,108.94932317577029L144.94627726578915,126.3019976575927L145.44942241422936,121.87812930567576L145.9525675626696,121.69390690701489L146.45571271110984,126.54256447176903L146.9588578595501,112.68048168354234L147.46200300799032,103.17491014046229L147.96514815643056,123.62210193936849L148.4682933048708,129.38729028902924L148.97143845331104,122.35786188485828L149.47458360175125,115.68154234931485L149.9777287501915,104.95957991671634L150.48087389863173,110.83280472460815L150.98401904707197,118.95812044633982L151.4871641955122,121.87509592302801L151.99030934395242,120.16224881978818L152.4934544923927,121.18829272427345L152.99659964083293,125.13402080050919L153.49974478927317,129.7677574225633L154.00288993771338,121.58662212278307L154.50603508615362,124.64557502982092L155.00918023459386,122.8138744792015L155.5123253830341,120.58697131599821L156.0154705314743,120.00933875813625L156.51861567991455,120.66703126857784L157.0217608283548,124.53080908779803L157.52490597679503,130.9960016328387L158.02805112523527,133.2586738037445L158.5311962736755,122.05812187017531L159.03434142211574,118.80297760156596L159.53748657055598,120.66575030933656L160.0406317189962,129.90722185995702L160.54377686743643,130.07824770976765L161.04692201587667,129.07346861824257L161.5500671643169,120.91047579327189L162.05321231275715,114.28509217866967L162.55635746119736,131.52558932360262L163.05950260963763,121.83291767134399L163.56264775807787,120.11730405196501L164.0657929065181,120.77826567713693L164.56893805495832,125.39751589554928L165.07208320339856,126.09078171158707L165.5752283518388,130.1552698319244L166.07837350027904,129.11087885497295L166.58151864871925,124.29392503144037L167.0846637971595,127.20295233394747L167.58780894559973,118.57649689126848L168.09095409403997,131.3532246934738L168.5940992424802,133.1610851693251L169.09724439092045,102.2285214410186L169.6003895393607,119.73777539898617L170.10353468780093,120.50069337376823L170.60667983624117,123.45819252978713L171.10982498468138,116.28254796555491L171.61297013312162,120.85346421148492L172.11611528156186,121.12343526713367L172.6192604300021,136.21493203049843L173.1224055784423,132.86228808297253L173.62555072688255,107.74233043512963L174.12869587532282,122.89496186783923L174.63184102376306,122.13117657690421L175.13498617220327,110.69156117715713L175.6381313206435,125.97560657425102L176.14127646908375,120.51749262048453L176.644421617524,119.0472004869101L177.1475667659642,119.59847108149765L177.65071191440444,131.52871166175322L178.15385706284468,116.74001498237001L178.65700221128492,121.89193075194545L179.1601473597252,121.69228346908758L179.6632925081654,136.75279258302888L180.16643765660564,112.78077456524889L180.66958280504588,116.97287824999812L181.17272795348612,124.67101630364067L181.67587310192633,124.92307172101216L182.17901825036657,131.09200241153198L182.6821633988068,114.52145139756043L183.18530854724705,123.23039083027213L183.68845369568726,127.16209951925613L184.1915988441275,124.8360020748067L184.69474399256777,126.83552162935842L185.197889141008,126.7157919702756L185.70103428944822,119.75635820353492L186.20417943788846,119.5818008202605L186.7073245863287,107.8552950282195L187.21046973476894,115.85989813256165L187.71361488320915,124.74290124550687L188.2167600316494,132.09550943936605L188.71990518008963,129.40376484816008L189.22305032852987,129.85804281019742L189.72619547697008,126.85436685264064L190.22934062541034,121.64880646706172L190.73248577385058,106.76395333685525L191.23563092229082,108.82463869517781L191.73877607073106,127.02888420593878L192.24192121917127,124.71154443074651L192.7450663676115,125.379413450716L193.24821151605175,128.79695043758284L193.751356664492,120.55838991292728L194.2545018129322,121.03218026451835L194.75764696137244,118.70343639385862L195.2607921098127,124.89562005282765L195.76393725825295,119.17099541247389L196.26708240669316,127.85634384582546L196.7702275551334,127.97000229183764L197.27337270357364,126.75641350065948L197.77651785201388,119.68193802983704L198.2796630004541,113.08033666892611L198.78280814889433,128.82482909218112L199.28595329733457,130.59299762265348L199.7890984457748,105.15338727081102L200.29224359421505,108.32394819952002L200.7953887426553,121.39990897004195L201.29853389109553,128.7091780429047L201.80167903953577,124.82728888330094L202.304824187976,119.1739531829442L202.80796933641622,126.96479176612367L203.31111448485646,118.09528320296326L203.8142596332967,125.76301181795098L204.31740478173694,133.48533242504772L204.82054993017715,132.55802468096883L205.3236950786174,129.9191418973411L205.82684022705763,126.18506564907501L206.3299853754979,116.75862447356961L206.8331305239381,122.25672837364964L207.33627567237835,128.35615368200487L207.8394208208186,120.7981027542761L208.34256596925883,127.33224026181325L208.84571111769907,120.7098811343085L209.34885626613928,117.97166174063004L209.85200141457952,116.80497473833809L210.35514656301976,119.2044115471256L210.85829171146,126.51340930570461L211.36143685990024,119.06478698982674L211.86458200834048,120.86332937675277L212.36772715678072,119.43296047286469L212.87087230522096,123.53614868472398L213.37401745366117,114.74755849474586L213.8771626021014,120.21915365497172L214.38030775054165,118.69600860936929L214.8834528989819,115.53539290588076L215.3865980474221,115.95136662838388L215.88974319586234,122.30000522579405L216.39288834430258,132.96064618249173L216.89603349274284,117.87600344062281L217.39917864118308,129.85979078582872L217.9023237896233,122.77007278959016L218.40546893806354,125.10895313980146L218.90861408650377,116.01339530053251L219.41175923494401,120.7900211468407L219.91490438338423,127.24983188395795L220.41804953182447,118.44737797885814L220.9211946802647,122.06888548602214L221.42433982870494,124.50529220180084L221.92748497714516,120.43747714565633L222.43063012558542,133.00449679762963L222.93377527402566,119.03567185373862L223.4369204224659,124.44621685234738L223.9400655709061,120.02257533696276L224.44321071934635,120.22267184511007L224.9463558677866,116.78879373236671L225.44950101622683,127.1459229610599L225.95264616466704,125.74698203633447L226.45579131310728,122.51611372445733L226.95893646154752,115.70892730087222L227.4620816099878,122.50130263323008L227.96522675842803,118.17834095598947L228.46837190686824,135.84147014281507L228.97151705530848,129.6367837879182L229.47466220374872,115.32357206245565L229.97780735218896,123.61097805373507L230.48095250062917,122.74987989043953L230.9840976490694,132.11950073848908L231.48724279750965,118.4492638355189L231.9903879459499,128.51251521716802L232.4935330943901,123.44882996311046L232.99667824283037,125.55967288172417L233.4998233912706,111.91442357950912L234.00296853971085,128.66131998236267L234.50611368815106,118.90454699473862L235.0092588365913,120.23926649416977L235.51240398503154,115.7917448740407L236.01554913347178,126.34616851254093L236.518694281912,132.28332119256757L237.02183943035223,137.2374844314962L237.52498457879247,124.99817685208215L238.0281297272327,119.0429306227725L238.53127487567298,124.94481244591269L239.0344200241132,121.67507502705813L239.53756517255343,112.20307529075978L240.04071032099367,138.19908007415486L240.5438554694339,118.19747528465601L241.04700061787412,122.89694112777798L241.55014576631436,131.35305123024324L242.0532909147546,124.50824552449602L242.55643606319484,122.43794852408874L243.05958121163505,118.09921503618993L243.56272636007532,122.83188796853192L244.06587150851556,128.78518162455364L244.5690166569558,125.66925271792995L245.072161805396,134.36891853946784L245.57530695383625,124.76014082196237L246.0784521022765,130.55201137470783L246.58159725071673,129.90603430399375L247.08474239915697,125.91858609691374L247.58788754759718,118.80860403712225L248.09103269603742,123.97409441643507L248.59417784447766,114.74785204790533L249.09732299291792,121.54613402565349L249.60046814135814,125.77039512468887L250.10361328979837,117.80518151701584L250.60675843823861,124.96400904343122L251.10990358667885,126.39491168033649L251.61304873511907,127.11300497722425L252.1161938835593,117.75675414125547L252.61933903199954,127.3710515477138L253.12248418043978,111.70011642977889L253.62562932888,121.7945022374312L254.12877447732023,128.40044017910685L254.6319196257605,123.1350394267498L255.13506477420074,131.73762810800974L255.63820992264098,112.54168441242014L256.1413550710812,113.99040928432467L256.64450021952143,124.30569384446957L257.1476453679617,121.24627392104169L257.6507905164019,131.51372265952025L258.15393566484215,129.02753199656243" style="fill: none;" fill="none"></path></g></g></g></g></g></g><g transform="translate(61, 177)" clip-path="url(#clip_1)"><clipPath id="clip_1"><rect width="268" height="23"></rect></clipPath><g><g><line x1="7.08450659316461" y1="0" x2="7.08450659316461" y2="5" style="visibility: inherit;" fill="rgb(0, 0, 0)" stroke="rgb(204, 204, 204)" stroke-width="1px"></line><line x1="32.241764015176386" y1="0" x2="32.241764015176386" y2="5" style="visibility: inherit;" fill="rgb(0, 0, 0)" stroke="rgb(204, 204, 204)" stroke-width="1px"></line><line x1="57.39902143718816" y1="0" x2="57.39902143718816" y2="5" style="visibility: inherit;" fill="rgb(0, 0, 0)" stroke="rgb(204, 204, 204)" stroke-width="1px"></line><line x1="82.55627885919994" y1="0" x2="82.55627885919994" y2="5" style="visibility: inherit;" fill="rgb(0, 0, 0)" stroke="rgb(204, 204, 204)" stroke-width="1px"></line><line x1="107.7135362812117" y1="0" x2="107.7135362812117" y2="5" style="visibility: inherit;" fill="rgb(0, 0, 0)" stroke="rgb(204, 204, 204)" stroke-width="1px"></line><line x1="132.87079370322348" y1="0" x2="132.87079370322348" y2="5" style="visibility: inherit;" fill="rgb(0, 0, 0)" stroke="rgb(204, 204, 204)" stroke-width="1px"></line><line x1="158.02805112523527" y1="0" x2="158.02805112523527" y2="5" style="visibility: inherit;" fill="rgb(0, 0, 0)" stroke="rgb(204, 204, 204)" stroke-width="1px"></line><line x1="183.18530854724705" y1="0" x2="183.18530854724705" y2="5" style="visibility: inherit;" fill="rgb(0, 0, 0)" stroke="rgb(204, 204, 204)" stroke-width="1px"></line><line x1="208.34256596925883" y1="0" x2="208.34256596925883" y2="5" style="visibility: inherit;" fill="rgb(0, 0, 0)" stroke="rgb(204, 204, 204)" stroke-width="1px"></line><line x1="233.4998233912706" y1="0" x2="233.4998233912706" y2="5" style="visibility: inherit;" fill="rgb(0, 0, 0)" stroke="rgb(204, 204, 204)" stroke-width="1px"></line><line x1="258.6570808132824" y1="0" x2="258.6570808132824" y2="5" style="visibility: inherit;" fill="rgb(0, 0, 0)" stroke="rgb(204, 204, 204)" stroke-width="1px"></line></g><g transform="translate(0, 8)"><text x="7.08450659316461" y="0" dx="0em" dy="0.95em" style="text-anchor: middle; visibility: inherit; font-family: Roboto, sans-serif; font-size: 12px; font-weight: 200;" fill="rgb(33, 33, 33)" stroke="none" stroke-width="1px">0</text><text x="32.241764015176386" y="0" dx="0em" dy="0.95em" style="text-anchor: middle; visibility: inherit; font-family: Roboto, sans-serif; font-size: 12px; font-weight: 200;" fill="rgb(33, 33, 33)" stroke="none" stroke-width="1px">50</text><text x="57.39902143718816" y="0" dx="0em" dy="0.95em" style="text-anchor: middle; visibility: inherit; font-family: Roboto, sans-serif; font-size: 12px; font-weight: 200;" fill="rgb(33, 33, 33)" stroke="none" stroke-width="1px">100</text><text x="82.55627885919994" y="0" dx="0em" dy="0.95em" style="text-anchor: middle; visibility: inherit; font-family: Roboto, sans-serif; font-size: 12px; font-weight: 200;" fill="rgb(33, 33, 33)" stroke="none" stroke-width="1px">150</text><text x="107.7135362812117" y="0" dx="0em" dy="0.95em" style="text-anchor: middle; visibility: inherit; font-family: Roboto, sans-serif; font-size: 12px; font-weight: 200;" fill="rgb(33, 33, 33)" stroke="none" stroke-width="1px">200</text><text x="132.87079370322348" y="0" dx="0em" dy="0.95em" style="text-anchor: middle; visibility: inherit; font-family: Roboto, sans-serif; font-size: 12px; font-weight: 200;" fill="rgb(33, 33, 33)" stroke="none" stroke-width="1px">250</text><text x="158.02805112523527" y="0" dx="0em" dy="0.95em" style="text-anchor: middle; visibility: inherit; font-family: Roboto, sans-serif; font-size: 12px; font-weight: 200;" fill="rgb(33, 33, 33)" stroke="none" stroke-width="1px">300</text><text x="183.18530854724705" y="0" dx="0em" dy="0.95em" style="text-anchor: middle; visibility: inherit; font-family: Roboto, sans-serif; font-size: 12px; font-weight: 200;" fill="rgb(33, 33, 33)" stroke="none" stroke-width="1px">350</text><text x="208.34256596925883" y="0" dx="0em" dy="0.95em" style="text-anchor: middle; visibility: inherit; font-family: Roboto, sans-serif; font-size: 12px; font-weight: 200;" fill="rgb(33, 33, 33)" stroke="none" stroke-width="1px">400</text><text x="233.4998233912706" y="0" dx="0em" dy="0.95em" style="text-anchor: middle; visibility: inherit; font-family: Roboto, sans-serif; font-size: 12px; font-weight: 200;" fill="rgb(33, 33, 33)" stroke="none" stroke-width="1px">450</text><text x="258.6570808132824" y="0" dx="0em" dy="0.95em" style="text-anchor: middle; visibility: inherit; font-family: Roboto, sans-serif; font-size: 12px; font-weight: 200;" fill="rgb(33, 33, 33)" stroke="none" stroke-width="1px">500</text></g><line x1="0" y1="0" x2="268.046875" y2="0" fill="rgb(0, 0, 0)" stroke="rgb(204, 204, 204)" stroke-width="1px"></line></g></g></g></g></svg>