<svg viewBox="0 0 330 200" xmlns="http://www.w3.org/2000/svg"><g><g><g><g><g><line x1="41.171875" y1="172.81290322580648" x2="36.171875" y2="172.81290322580648" style="visibility: inherit;" fill="rgb(0, 0, 0)" stroke="rgb(204, 204, 204)" stroke-width="1px"></line><line x1="41.171875" y1="150.3548387096774" x2="36.171875" y2="150.3548387096774" style="visibility: inherit;" fill="rgb(0, 0, 0)" stroke="rgb(204, 204, 204)" stroke-width="1px"></line><line x1="41.171875" y1="127.8967741935484" x2="36.171875" y2="127.8967741935484" style="visibility: inherit;" fill="rgb(0, 0, 0)" stroke="rgb(204, 204, 204)" stroke-width="1px"></line><line x1="41.171875" y1="105.43870967741935" x2="36.171875" y2="105.43870967741935" style="visibility: inherit;" fill="rgb(0, 0, 0)" stroke="rgb(204, 204, 204)" stroke-width="1px"></line><line x1="41.171875" y1="82.98064516129033" x2="36.171875" y2="82.98064516129033" style="visibility: inherit;" fill="rgb(0, 0, 0)" stroke="rgb(204, 204, 204)" stroke-width="1px"></line><line x1="41.171875" y1="60.522580645161305" x2="36.171875" y2="60.522580645161305" style="visibility: inherit;" fill="rgb(0, 0, 0)" stroke="rgb(204, 204, 204)" stroke-width="1px"></line><line x1="41.171875" y1="38.06451612903226" x2="36.171875" y2="38.06451612903226" style="visibility: inherit;" fill="rgb(0, 0, 0)" stroke="rgb(204, 204, 204)" stroke-width="1px"></line><line x1="41.171875" y1="15.60645161290324" x2="36.171875" y2="15.60645161290324" style="visibility: inherit;" fill="rgb(0, 0, 0)" stroke="rgb(204, 204, 204)" stroke-width="1px"></line></g><g transform="translate(31.171875, 0)"><text x="0" y="172.81290322580648" dx="0em" dy="0.3em" style="text-anchor: end; visibility: hidden; font-family: Roboto, sans-serif; font-size: 12px; font-weight: 200;" fill="rgb(33, 33, 33)" stroke="none" stroke-width="1px">0</text><text x="0" y="150.3548387096774" dx="0em" dy="0.3em" style="text-anchor: end; visibility: inherit; font-family: Roboto, sans-serif; font-size: 12px; font-weight: 200;" fill="rgb(33, 33, 33)" stroke="none" stroke-width="1px">100</text><text x="0" y="127.8967741935484" dx="0em" dy="0.3em" style="text-anchor: end; visibility: hidden; font-family: Roboto, sans-serif; font-size: 12px; font-weight: 200;" fill="rgb(33, 33, 33)" stroke="none" stroke-width="1px">200</text><text x="0" y="105.43870967741935" dx="0em" dy="0.3em" style="text-anchor: end; visibility: inherit; font-family: Roboto, sans-serif; font-size: 12px; font-weight: 200;" fill="rgb(33, 33, 33)" stroke="none" stroke-width="1px">300</text><text x="0" y="82.98064516129033" dx="0em" dy="0.3em" style="text-anchor: end; visibility: hidden; font-family: Roboto, sans-serif; font-size: 12px; font-weight: 200;" fill="rgb(33, 33, 33)" stroke="none" stroke-width="1px">400</text><text x="0" y="60.522580645161305" dx="0em" dy="0.3em" style="text-anchor: end; visibility: inherit; font-family: Roboto, sans-serif; font-size: 12px; font-weight: 200;" fill="rgb(33, 33, 33)" stroke="none" stroke-width="1px">500</text><text x="0" y="38.06451612903226" dx="0em" dy="0.3em" style="text-anchor: end; visibility: hidden; font-family: Roboto, sans-serif; font-size: 12px; font-weight: 200;" fill="rgb(33, 33, 33)" stroke="none" stroke-width="1px">600</text><text x="0" y="15.60645161290324" dx="0em" dy="0.3em" style="text-anchor: end; visibility: inherit; font-family: Roboto, sans-serif; font-size: 12px; font-weight: 200;" fill="rgb(33, 33, 33)" stroke="none" stroke-width="1px">700</text></g><line x1="41.171875" y1="0" x2="41.171875" y2="177" fill="rgb(0, 0, 0)" stroke="rgb(204, 204, 204)" stroke-width="1px"></line></g></g><g transform="translate(41, 0)" clip-path="url(#clip_0)"><clipPath id="clip_0"><rect width="288" height="177"></rect></clipPath><g><g><g><line x1="8.008617963947234" y1="0" x2="8.008617963947234" y2="177" fill="rgb(0, 0, 0)" stroke="rgb(66, 66, 66)" stroke-width="1px" opacity="0.25"></line><line x1="35.47466340612193" y1="0" x2="35.47466340612193" y2="177" fill="rgb(0, 0, 0)" stroke="rgb(66, 66, 66)" stroke-width="1px" opacity="0.25"></line><line x1="62.940708848296616" y1="0" x2="62.940708848296616" y2="177" fill="rgb(0, 0, 0)" stroke="rgb(66, 66, 66)" stroke-width="1px" opacity="0.25"></line><line x1="90.40675429047131" y1="0" x2="90.40675429047131" y2="177" fill="rgb(0, 0, 0)" stroke="rgb(66, 66, 66)" stroke-width="1px" opacity="0.25"></line><line x1="117.872799732646" y1="0" x2="117.872799732646" y2="177" fill="rgb(0, 0, 0)" stroke="rgb(66, 66, 66)" stroke-width="1px" opacity="0.25"></line><line x1="145.3388451748207" y1="0" x2="145.3388451748207" y2="177" fill="rgb(0, 0, 0)" stroke="rgb(66, 66, 66)" stroke-width="1px" opacity="0.25"></line><line x1="172.80489061699538" y1="0" x2="172.80489061699538" y2="177" fill="rgb(0, 0, 0)" stroke="rgb(66, 66, 66)" stroke-width="1px" opacity="0.25"></line><line x1="200.27093605917008" y1="0" x2="200.27093605917008" y2="177" fill="rgb(0, 0, 0)" stroke="rgb(66, 66, 66)" stroke-width="1px" opacity="0.25"></line><line x1="227.73698150134476" y1="0" x2="227.73698150134476" y2="177" fill="rgb(0, 0, 0)" stroke="rgb(66, 66, 66)" stroke-width="1px" opacity="0.25"></line><line x1="255.20302694351943" y1="0" x2="255.20302694351943" y2="177" fill="rgb(0, 0, 0)" stroke="rgb(66, 66, 66)" stroke-width="1px" opacity="0.25"></line><line x1="282.6690723856941" y1="0" x2="282.6690723856941" y2="177" fill="rgb(0, 0, 0)" stroke="rgb(66, 66, 66)" stroke-width="1px" opacity="0.25"></line></g><g><line x1="0" y1="172.81290322580648" x2="288.828125" y2="172.81290322580648" fill="rgb(0, 0, 0)" stroke="rgb(66, 66, 66)" stroke-width="1px" opacity="0.25"></line><line x1="0" y1="150.3548387096774" x2="288.828125" y2="150.3548387096774" fill="rgb(0, 0, 0)" stroke="rgb(66, 66, 66)" stroke-width="1px" opacity="0.25"></line><line x1="0" y1="127.8967741935484" x2="288.828125" y2="127.8967741935484" fill="rgb(0, 0, 0)" stroke="rgb(66, 66, 66)" stroke-width="1px" opacity="0.25"></line><line x1="0" y1="105.43870967741935" x2="288.828125" y2="105.43870967741935" fill="rgb(0, 0, 0)" stroke="rgb(66, 66, 66)" stroke-width="1px" opacity="0.25"></line><line x1="0" y1="82.98064516129033" x2="288.828125" y2="82.98064516129033" fill="rgb(0, 0, 0)" stroke="rgb(66, 66, 66)" stroke-width="1px" opacity="0.25"></line><line x1="0" y1="60.522580645161305" x2="288.828125" y2="60.522580645161305" fill="rgb(0, 0, 0)" stroke="rgb(66, 66, 66)" stroke-width="1px" opacity="0.25"></line><line x1="0" y1="38.06451612903226" x2="288.828125" y2="38.06451612903226" fill="rgb(0, 0, 0)" stroke="rgb(66, 66, 66)" stroke-width="1px" opacity="0.25"></line><line x1="0" y1="15.60645161290324" x2="288.828125" y2="15.60645161290324" fill="rgb(0, 0, 0)" stroke="rgb(66, 66, 66)" stroke-width="1px" opacity="0.25"></line></g></g></g><g><g><line x1="0" y1="172.81290322580648" x2="288.828125" y2="172.81290322580648" fill="rgb(0, 0, 0)" stroke="rgb(153, 153, 153)" stroke-width="1.5px"></line></g></g><g><g><line x1="8.008617963947234" y1="0" x2="8.008617963947234" y2="177" fill="rgb(0, 0, 0)" stroke="rgb(153, 153, 153)" stroke-width="1.5px"></line></g></g><g><g><g><g><g><path stroke="rgb(51, 187, 238)" stroke-width="2px" d="M8.008617963947234,152.99084957738077L8.557938872790729,157.49510233823716L9.107259781634223,160.986099254239L9.656580690477716,161.03908573618244L10.205901599321209,160.40059301733203L10.755222508164703,163.14180666917372L11.304543417008196,162.21770405627836L11.85386432585169,164.40348703322874L12.403185234695185,163.9774534097487L12.95250614353868,163.77113262127293L13.501827052382172,164.4398405454082L14.051147961225666,163.44803921828733L14.60046887006916,164.46812301931075L15.149789778912652,164.30422465662804L15.699110687756146,164.48559299198274L16.24843159659964,163.7864068534605L16.797752505443135,164.72035817201677L17.34707341428663,164.69102880194882L17.896394323130124,164.52568346085087L18.445715231973615,164.509669890373L18.99503614081711,164.548818838058L19.544357049660604,164.15384684654975L20.0936779585041,164.61992124988188L20.64299886734759,164.60428120373143L21.192319776191084,165.18577976448307L21.74164068503458,163.8006616041122L22.290961593878073,165.01809646951L22.840282502721568,164.40681277047435L23.389603411565062,165.43727986243465L23.938924320408557,165.7839579855396L24.488245229252048,165.08697829634144L25.037566138095542,164.88818882062358L25.586887046939037,164.4753733321159L26.13620795578253,165.81079733620922L26.685528864626022,164.90084581239762L27.234849773469517,165.6981664725273L27.78417068231301,165.3235742596042L28.333491591156502,165.79091102095575L28.882812499999996,165.80598478366485L29.43213340884349,165.80401350045975L29.981454317686985,165.32200734218475L30.53077522653048,165.39547340909897L31.080096135373974,164.43493932367141L31.62941704421747,165.11553148971066L32.17873795306096,165.34070326282134L32.72805886190446,164.96058743040027L33.27737977074795,165.87828401540943L33.82670067959145,165.2724365517401L34.37602158843494,165.50909676804082L34.92534249727843,164.62474279785158L35.47466340612193,165.23424197584583L36.02398431496542,164.65667398760397L36.57330522380891,165.41394315904188L37.12262613265241,165.76987843150476L37.6719470414959,166.03586287763042L38.221267950339396,166.33687636664607L38.77058885918289,165.62730950730847L39.31990976802638,165.24943996109502L39.869230676869876,166.00330843340967L40.41855158571337,165.59035972693658L40.967872494556865,166.31382494674193L41.517193403400356,166.03403295110888L42.066514312243854,165.82574259284235L42.615835221087345,165.84424104247557L43.165156129930836,165.83536898299187L43.71447703877433,166.37588952624415L44.263797947617824,166.39929562291792L44.81311885646132,165.54481717361944L45.36243976530481,165.6575161455216L45.91176067414831,165.6157970763176L46.4610815829918,165.47793404462263L47.01040249183529,166.23843985576016L47.55972340067879,166.07655432658044L48.10904430952228,164.63203080577236L48.65836521836578,166.4784228108314L49.20768612720927,165.7248601829775L49.75700703605276,165.98461808136972L50.30632794489625,166.50277000033472L50.855648853739744,166.0243101814024L51.40496976258324,165.47070771961828L51.95429067142673,166.57722642074094L52.50361158027023,166.24799985110374L53.05293248911372,166.01869960612635L53.60225339795722,166.5389937213775L54.15157430680071,165.5180005256899L54.7008952156442,166.25469116247854L55.2502161244877,166.47927566282212L55.79953703333119,166.71852313478533L56.34885794217469,165.449012467169L56.89817885101818,165.3050025615077L57.44749975986168,165.068164150115L57.99682066870517,166.36823698942123L58.54614157754866,166.17195680901312L59.09546248639216,166.0461759185791L59.64478339523565,165.35686847046884L60.19410430407915,166.38433922909152L60.74342521292264,166.1695289008848L61.292746121766136,167.00781429955268L61.84206703060963,166.44974667998284L62.391387939453125,165.82730179989724L62.940708848296616,165.98896287179764L63.49002975714011,166.14111021054177L64.0393506659836,166.1287753406648L64.5886715748271,165.88124736552086L65.13799248367059,166.4866424878028L65.68731339251408,165.86968824398903L66.23663430135758,165.30199808945196L66.78595521020108,165.95682778573808L67.33527611904456,165.97901821493335L67.88459702788806,166.87713004561394L68.43391793673155,165.86665036035353L68.98323884557504,166.36929459442632L69.53255975441854,166.6019535598755L70.08188066326203,165.06938838466522L70.63120157210554,166.3992891976141L71.18052248094902,166.38593870138354L71.72984338979252,166.6363983284735L72.27916429863602,166.58948076014366L72.82848520747952,166.42052953855455L73.377806116323,167.01379625738824L73.9271270251665,166.99185298821234L74.47644793401,166.1177696519667L75.0257688428535,166.4689540548017L75.57508975169698,165.96010040713895L76.12441066054048,165.9315009515824L76.67373156938396,166.1993564461739L77.22305247822746,165.91787373893493L77.77237338707096,166.8150466185539L78.32169429591444,166.10353032204415L78.87101520475794,165.48148423914756L79.42033611360142,167.5072201805115L79.96965702244493,165.5243992715651L80.51897793128842,166.02800558779316L81.06829884013192,165.92901136053763L81.6176197489754,165.8524221676242L82.16694065781891,166.72470299197784L82.7162615666624,166.7741397077499L83.2655824755059,166.68412248660675L83.81490338434938,166.52094161618143L84.36422429319288,165.8315656314973L84.91354520203637,166.66500163921233L85.46286611087987,166.63609505413427L86.01218701972336,165.8595949484302L86.56150792856685,165.73484981696836L87.11082883741035,165.9302728618499L87.66014974625385,166.7968977054473L88.20947065509733,166.52875735572078L88.75879156394083,165.93207794386342L89.30811247278432,166.8305170366841L89.85743338162783,166.37730780496906L90.40675429047131,166.11897418225197L90.95607519931481,166.58085457561862L91.5053961081583,166.78886350557883L92.0547170170018,165.5975457867038L92.60403792584529,166.26508216377997L93.15335883468879,166.70541894186698L93.70267974353227,167.13345768848544L94.25200065237577,166.9399875076048L94.80132156121927,166.45062394812803L95.35064247006275,166.27203991108556L95.89996337890625,166.06011454428398L96.44928428774973,166.53789413772094L96.99860519659323,166.07566120935255L97.54792610543673,166.48094452839516L98.09724701428023,166.85028255622618L98.64656792312371,167.04268956350512L99.19588883196721,166.87165354501047L99.7452097408107,166.62733222481515L100.2945306496542,166.8226773093439L100.84385155849769,166.8270392339153L101.39317246734119,167.40912335401967L101.94249337618467,166.73057057940576L102.49181428502818,166.3858358965228L103.04113519387167,166.82026096676242L103.59045610271517,166.0405704835461L104.13977701155865,166.40339925027664L104.68909792040215,167.13184151040355L105.23841882924565,166.38049561235982L105.78773973808914,167.0717991881832L106.33706064693263,166.1542538119901L106.88638155577613,166.00904451628656L107.43570246461962,167.3577307757716L107.98502337346312,166.071610269485L108.5343442823066,166.5504418993304L109.0836651911501,166.83322979994745L109.63298609999359,167.3768272070116L110.1823070088371,167.2848451279671L110.73162791768058,166.7589802743235L111.28094882652408,167.11758290456956L111.83026973536757,166.90753415483044L112.37959064421108,167.61307491880848L112.92891155305456,166.6547464259978L113.47823246189806,167.0605788943383L114.02755337074154,167.519951277456L114.57687427958503,166.42066532664145L115.12619518842854,166.22495999674646L115.67551609727202,166.33225571650846L116.22483700611552,167.13958100300454L116.774157914959,166.29008430591708L117.3234788238025,166.33270077588483L117.872799732646,166.8932973950294L118.4221206414895,167.4534253953503L118.97144155033298,166.87821292348062L119.52076245917648,166.78615930938722L120.07008336801997,166.78083187583186L120.61940427686348,166.5344566001892L121.16872518570696,166.51033172619728L121.71804609455046,166.99492899531703L122.26736700339394,166.70468602888047L122.81668791223746,167.10066593637777L123.36600882108094,167.04717271214147L123.91532972992444,166.16726548053373L124.46465063876792,166.50086168510683L125.01397154761142,166.74666253859L125.56329245645492,166.43089012675134L126.11261336529842,167.26337347608998L126.6619342741419,166.15159973316807L127.2112551829854,166.4272418392551L127.7605760918289,166.58842444019933L128.30989700067238,166.63509527686335L128.85921790951588,166.24534148874594L129.40853881835938,167.0775673975791L129.95785972720287,166.18977803162608L130.50718063604637,166.39057948413972L131.05650154488984,166.67274370193482L131.60582245373337,166.14726308145833L132.15514336257684,166.6799524644421L132.70446427142033,166.24493112601004L133.25378518026383,166.56784719061085L133.8031060891073,166.42125088599423L134.35242699795083,166.7838076481973L134.9017479067943,167.03594085274975L135.4510688156378,166.81290442226782L136.0003897244813,166.16080333832772L136.5497106333248,166.8346596442192L137.0990315421683,166.5557967475153L137.6483524510118,166.69471695586174L138.19767335985526,166.50687277098626L138.74699426869876,166.56188065350443L139.29631517754225,166.8940911342252L139.84563608638575,166.24558222346153L140.39495699522925,166.5524611581372L140.94427790407275,166.87012218093875L141.49359881291622,166.92040446669057L142.04291972175974,166.27020570102815L142.59224063060321,166.14973253988452L143.1415615394467,166.41974565149124L143.6908824482902,166.8174719565607L144.2402033571337,166.4552296058901L144.7895242659772,166.25875452460014L145.3388451748207,166.57221982402186L145.8881660836642,166.31138161788448L146.43748699250767,166.73809032661686L146.98680790135117,166.2382004061053L147.53612881019467,167.12170109595021L148.08544971903817,166.38973177239203L148.63477062788164,166.48649941770492L149.18409153672513,166.2301220858174L149.73341244556866,166.60583658513718L150.28273335441216,165.93577506366853L150.83205426325563,167.11283888859904L151.38137517209913,167.23666220314274L151.93069608094262,166.60556329554896L152.4800169897861,166.94101341444448L153.0293378986296,166.4009207964251L153.5786588074731,166.91233899701027L154.1279797163166,166.21679343561973L154.67730062516006,166.5211356603561L155.22662153400358,166.8182468481987L155.77594244284708,167.2091571909997L156.32526335169058,166.682133212551L156.87458426053405,166.7384218722928L157.42390516937755,166.95087068717712L157.97322607822105,166.0726036214521L158.52254698706454,166.4696878244954L159.071867895908,167.09636055447982L159.62118880475154,166.60103431307886L160.17050971359504,166.96666622567946L160.71983062243854,166.6965468823833L161.269151531282,166.79988033147015L161.8184724401255,166.69657386865924L162.367793348969,166.7341910239189L162.9171142578125,167.28200771381012L163.46643516665597,167.17248241363035L164.01575607549947,165.62693512627388L164.565076984343,166.17072100891608L165.1143978931865,166.28533943323936L165.66371880202996,166.57199279662103L166.21303971087346,166.5594874420166L166.76236061971696,167.33538999446748L167.31168152856046,167.0383165017405L167.86100243740393,167.02902122891336L168.41032334624742,167.22799489667338L168.95964425509092,167.50492977388444L169.50896516393445,167.1480881052325L170.05828607277792,166.52920498521868L170.60760698162142,166.79284890734766L171.1569278904649,166.97146978279855L171.70624879930838,168.03132064573228L172.25556970815188,167.12790322752923L172.80489061699538,167.33248404373663L173.35421152583888,166.53098522272418L173.90353243468235,167.29584524806853L174.45285334352585,166.26793799714122L175.00217425236937,167.08835505430162L175.55149516121287,166.63402953314014L176.10081607005634,166.93114714628652L176.65013697889984,167.03608949144424L177.19945788774334,167.16908000109274L177.74877879658683,166.35480853283792L178.2980997054303,167.12246784887006L178.8474206142738,166.9691528182491L179.3967415231173,166.69380370601533L179.94606243196083,166.3561355722489L180.4953833408043,166.63269306995022L181.0447042496478,166.81576625257924L181.5940251584913,166.86363133904243L182.1433460673348,167.319002042955L182.69266697617826,166.9851162713574L183.24198788502176,166.89324856272054L183.79130879386526,167.09882915619883L184.34062970270875,166.6818834824101L184.88995061155222,166.83005141633558L185.43927152039575,167.20923900653472L185.98859242923925,166.8276924731347L186.53791333808275,167.09322629128735L187.08723424692622,167.41014926085936L187.6365551557697,166.31522266449468L188.1858760646132,166.2367345801323L188.73519697345668,166.39241155242922L189.28451788230018,167.26235185278617L189.83383879114368,166.54373516722652L190.3831596999872,166.59157198235297L190.93248060883067,166.40784170532226L191.48180151767417,167.18954373698082L192.03112242651767,166.75403707393522L192.58044333536117,166.9169343742863L193.12976424420464,166.4919699213582L193.67908515304813,166.61679172811202L194.22840606189163,167.77380003812237L194.77772697073513,166.72294374379806L195.3270478795786,167.10046289677774L195.87636878842213,166.8651558494568L196.42568969726562,166.2586131679166L196.97501060610912,166.94276281049176L197.5243315149526,166.64065402135543L198.0736524237961,165.89403029324933L198.6229733326396,166.50190943797944L199.1722942414831,166.48208609070318L199.72161515032656,166.878771924911L200.27093605917008,166.75844440398677L200.82025696801358,167.1681864555113L201.36957787685708,166.63279116292154L201.91889878570055,166.8457081682759L202.46821969454405,167.09480948614305L203.01754060338754,166.61122098971953L203.56686151223104,166.9045266842996L204.1161824210745,166.1515072087934L204.665503329918,166.78913036986322L205.21482423876154,166.37507008583316L205.76414514760503,166.8353510069078L206.3134660564485,166.89735561690793L206.862786965292,167.3553152898973L207.4121078741355,167.23778491789295L207.96142878297897,166.6335129387148L208.51074969182247,167.04892767678538L209.06007060066597,166.76286972488896L209.60939150950946,167.02894069843907L210.15871241835293,166.60565239309497L210.70803332719646,167.09414725149833L211.25735423603996,166.63003513594597L211.80667514488346,166.68191560892907L212.35599605372693,166.45538124305972L212.90531696257042,166.89355869071716L213.45463787141392,166.88672859278034L214.00395878025742,167.395076783211L214.5532796891009,167.1460662763042L215.1026005979444,167.3057851930434L215.65192150678791,167.20556844465196L216.2012424156314,166.82946243015414L216.75056332447488,166.40657292199904L217.29988423331838,167.1466149972485L217.84920514216188,166.75411546264158L218.39852605100538,166.94487416531965L218.94784695984885,166.89180672454836L219.49716786869234,166.56866491760746L220.04648877753584,166.68929913969964L220.59580968637937,167.11896691500758L221.14513059522284,166.7761362638166L221.69445150406634,166.46234841414423L222.24377241290983,166.9689750515107L222.79309332175333,166.97987365181217L223.3424142305968,167.31186524385024L223.8917351394403,166.64162081540016L224.4410560482838,166.9838492014485L224.9903769571273,166.9993675951804L225.53969786597077,167.40926642411756L226.0890187748143,166.69631685650734L226.6383396836578,167.260699693003L227.18766059250126,166.92616325230753L227.73698150134476,167.14870664781142L228.28630241018826,166.85765623486427L228.83562331903175,167.11970711000507L229.38494422787522,167.20583188210767L229.93426513671872,166.62677579350628L230.48358604556222,166.94973683523364L231.03290695440575,166.5536095741026L231.58222786324922,166.8234526293355L232.1315487720927,166.3795977832425L232.6808696809362,166.83217947695334L233.2301905897797,166.7298869270817L233.77951149862318,167.262497064652L234.32883240746668,167.06988273423718L234.87815331631018,167.33596870016285L235.42747422515367,167.6257323389361L235.97679513399714,167.78606936990062L236.52611604284067,167.18599782599173L237.07543695168417,167.57599491894632L237.62475786052767,167.1608449033922L238.17407876937114,167.66527280179918L238.72339967821463,167.0908000965734L239.27272058705813,167.32609772011543L239.82204149590163,167.5945507679601L240.3713624047451,167.291069105579L240.92068331358863,167.37234405837523L241.47000422243212,166.7826656575357L242.01932513127562,166.98489909608904L242.5686460401191,167.71403657408683L243.1179669489626,167.00736881182272L243.6672878578061,167.93624499708608L244.21660876664956,167.7602490724133L244.76592967549306,167.21048166028916L245.31525058433655,167.31032445599956L245.86457149318008,167.02170880483814L246.41389240202355,167.54334623693651L246.96321331086705,166.7370772703848L247.51253421971055,167.22993148323798L248.06185512855404,167.35507626859604L248.6111760373975,167.74124430884086L249.160496946241,167.54921982131467L249.7098178550845,167.619831768282L250.259138763928,167.28924260588616L250.80845967277148,167.25392313926451L251.357780581615,167.25151065186532L251.9071014904585,166.98775235932874L252.456422399302,167.35978301780455L253.00574330814547,166.5379643877091L253.55506421698897,167.160628584831L254.10438512583247,166.9942282088495L254.65370603467596,167.85724845701648L255.20302694351943,167.06564588891308L255.75234785236293,167.3597530330535L256.30166876120643,167.52191442194294L256.85098967004996,167.8787081149932L257.4003105788934,166.93895260533978L257.9496314877369,167.27077542606477L258.4989523965804,167.10104417259464L259.04827330542395,167.32731510100828L259.5975942142674,167.05217288355675L260.1469151231109,167.1633139334648L260.6962360319544,166.91578295984576L261.2455569407979,166.95960138997725L261.79487784964135,167.17754469631566L262.3441987584849,168.05861105272848L262.89351966732835,167.51766986625427L263.4428405761718,166.90475456840764L263.99216148501534,166.9917112031752L264.54148239385887,167.48211052162418L265.09080330270234,167.4506518058777L265.6401242115458,166.55024871186288L266.18944512038934,167.8685604185289L266.7387660292328,167.27732409569526L267.28808693807633,167.42113481693886L267.8374078469198,166.97748086867796L268.3867287557633,167.03149754099692L268.9360496646068,165.95181690548313L269.4853705734503,166.03011437249953L270.0346914822938,167.28412035369874L270.58401239113726,167.4460465764692L271.1333332999808,167.43071794337612L271.68265420882426,166.89845520056448L272.23197511766773,167.186910219131L272.78129602651126,167.24908188702983L273.3306169353547,166.6646726636579L273.87993784419825,167.05657293159732L274.4292587530417,167.25689976833712L274.97857966188525,167.58918563928913L275.5279005707287,167.30189145894207L276.07722147957224,166.87351259957592L276.6265423884157,166.86066627551665L277.1758632972592,167.1108915931948L277.7251842061027,166.65845982323927L278.2745051149462,167.14458802807715L278.82382602378965,167.32881048337876L279.3731469326332,167.1902209640011L279.9224678414767,167.28804193078318L280.4717887503202,166.92042716943067L281.02110965916364,167.14617293634723L281.57043056800717,166.95233865491807L282.11975147685064,167.10694688501667" style="fill: none;" fill="none"></path></g><g><path stroke="rgb(204, 51, 17)" stroke-width="2px" d="M8.008617963947234,142.4710080842049L8.557938872790729,150.79073131930443L9.107259781634223,152.85347658218876L9.656580690477716,155.33376378705427L10.205901599321209,154.2076204947195L10.755222508164703,156.87233790637603L11.304543417008196,156.75819880971602L11.85386432585169,156.65831360700057L12.403185234695185,155.2001465961087L12.95250614353868,157.16360635129868L13.501827052382172,157.270448016259L14.051147961225666,158.6257279225011L14.60046887006916,157.59952980238393L15.149789778912652,158.96453419174688L15.699110687756146,158.8846608118857L16.24843159659964,158.8847567630891L16.797752505443135,156.4856220018941L17.34707341428663,158.11840135537426L17.896394323130124,158.9722753977622L18.445715231973615,158.85387161279493L18.99503614081711,159.01957334407683L19.544357049660604,158.3674135756954L20.0936779585041,158.90024431536276L20.64299886734759,158.17163885251938L21.192319776191084,159.71538919658047L21.74164068503458,159.28864450614685L22.290961593878073,158.81306493673017L22.840282502721568,158.7441265672253L23.389603411565062,159.90314171378844L23.938924320408557,158.6131463209583L24.488245229252048,159.5626365942186L25.037566138095542,159.50903242640342L25.586887046939037,159.68117402550484L26.13620795578253,160.0532950665874L26.685528864626022,160.99832360889067L27.234849773469517,159.87043948758034L27.78417068231301,159.66711032055272L28.333491591156502,161.3620120812693L28.882812499999996,161.02876669828353L29.43213340884349,159.9153977666055L29.981454317686985,159.28822129280337L30.53077522653048,159.8187577706614L31.080096135373974,159.9837261606032L31.62941704421747,160.46581499112037L32.17873795306096,159.92438548155755L32.72805886190446,160.38517314492503L33.27737977074795,159.94869797442038L33.82670067959145,159.42023044438517L34.37602158843494,161.3848407573085L34.92534249727843,159.84249798313263L35.47466340612193,160.73194850429414L36.02398431496542,161.010209564209L36.57330522380891,159.8581320323329L37.12262613265241,161.20939655205513L37.6719470414959,160.69276100478635L38.221267950339396,160.63890325164797L38.77058885918289,160.32508027698148L39.31990976802638,161.3703469853555L39.869230676869876,159.97868786571874L40.41855158571337,162.2756131776379L40.967872494556865,160.1549125312067L41.517193403400356,158.8457945775678L42.066514312243854,161.12855509308847L42.615835221087345,161.55921150847405L43.165156129930836,159.77259239122947L43.71447703877433,161.98773814982752L44.263797947617824,160.31940887549618L44.81311885646132,160.38814420540103L45.36243976530481,160.96030123113817L45.91176067414831,162.15732847496773L46.4610815829918,160.1854113065658L47.01040249183529,160.34442301153368L47.55972340067879,160.7262017125776L48.10904430952228,161.77795112412977L48.65836521836578,160.7546726620582L49.20768612720927,161.0668636095601L49.75700703605276,161.51182189449187L50.30632794489625,159.53796257092876L50.855648853739744,160.07090725265013L51.40496976258324,159.7351911261774L51.95429067142673,160.92707898367604L52.50361158027023,162.21111426470358L53.05293248911372,161.42632937228296L53.60225339795722,162.47032044367637L54.15157430680071,160.79869627355762L54.7008952156442,161.46458991462953L55.2502161244877,162.33932563338743L55.79953703333119,161.1064811760687L56.34885794217469,160.98450406548287L56.89817885101818,160.92188990832915L57.44749975986168,161.88129485370268L57.99682066870517,161.32250331657164L58.54614157754866,161.94562670873827L59.09546248639216,160.44181690979005L59.64478339523565,161.40461355886154L60.19410430407915,160.19670270710608L60.74342521292264,161.51245414438557L61.292746121766136,161.86682421284337L61.84206703060963,160.69684235775856L62.391387939453125,162.26461734107232L62.940708848296616,161.24829791136713L63.49002975714011,160.02599266569078L64.0393506659836,161.65610251961985L64.5886715748271,161.40413722967335L65.13799248367059,162.14545365684265L65.68731339251408,161.4041346595518L66.23663430135758,162.22639192371986L66.78595521020108,162.40031033349806L67.33527611904456,162.37847372436525L67.88459702788806,161.38382555930846L68.43391793673155,162.41535496816329L68.98323884557504,162.19087712786276L69.53255975441854,161.810178734564L70.08188066326203,161.74589742525163L70.63120157210554,161.15402157051335L71.18052248094902,162.67317071139428L71.72984338979252,161.55733274964365L72.27916429863602,162.1649403181999L72.82848520747952,162.09491221717096L73.377806116323,162.610568548141L73.9271270251665,162.83765420507618L74.47644793401,162.48279838365124L75.0257688428535,161.77476845698203L75.57508975169698,161.34723131241338L76.12441066054048,162.43070887411795L76.67373156938396,161.8405935526202L77.22305247822746,162.09472459830008L77.77237338707096,162.3564597768476L78.32169429591444,163.29614160968413L78.87101520475794,162.37813703844625L79.42033611360142,162.88625263287946L79.96965702244493,162.99576722421955L80.51897793128842,161.49112470589915L81.06829884013192,162.09487280864101L81.6176197489754,161.67839232684722L82.16694065781891,161.9749826367286L82.7162615666624,162.31365954319125L83.2655824755059,162.71779915815785L83.81490338434938,161.5529858174478L84.36422429319288,163.93905151071857L84.91354520203637,161.79638660578576L85.46286611087987,162.37517283162765L86.01218701972336,160.42551120216618L86.56150792856685,162.7379146425801L87.11082883741035,161.34131232255507L87.66014974625385,161.81555542878183L88.20947065509733,162.81240618798043L88.75879156394083,162.3738372251449L89.30811247278432,162.07728461037914L89.85743338162783,163.0494065170288L90.40675429047131,162.5450270225771L90.95607519931481,162.14231039822488L91.5053961081583,162.73341350309312L92.0547170170018,162.8623093808082L92.60403792584529,161.47183937072757L93.15335883468879,163.16154862926854L93.70267974353227,161.26284651257916L94.25200065237577,162.78940188697078L94.80132156121927,161.8762120100452L95.35064247006275,161.5010428048411L95.89996337890625,161.1220244143086L96.44928428774973,162.2076694451609L96.99860519659323,161.94248516353485L97.54792610543673,163.52803425056703L98.09724701428023,161.87702673856674L98.64656792312371,162.13459832025345L99.19588883196721,162.1984358552502L99.7452097408107,161.2513135206161L100.2945306496542,162.49771108541182L100.84385155849769,162.07239880937146L101.39317246734119,163.1681358507218L101.94249337618467,162.5278080651068L102.49181428502818,163.2592792134439L103.04113519387167,163.18774159437612L103.59045610271517,162.66239590527937L104.13977701155865,162.28693199280772L104.68909792040215,163.518234377215L105.23841882924565,162.61631448315038L105.78773973808914,161.73499582647509L106.33706064693263,162.64281500613308L106.88638155577613,161.49230096484771L107.43570246461962,162.4693043889692L107.98502337346312,162.94167901685162L108.5343442823066,162.4856820599956L109.0836651911501,162.81297247142177L109.63298609999359,161.6042340405372L110.1823070088371,162.01901053176388L110.73162791768058,162.76773062232235L111.28094882652408,163.06105345104586L111.83026973536757,161.40279648294756L112.37959064421108,162.53976341370614L112.92891155305456,162.25264228820802L113.47823246189806,162.00568616510208L114.02755337074154,161.98105497717088L114.57687427958503,162.5618664587698L115.12619518842854,162.49120353772565L115.67551609727202,162.06145266182193L116.22483700611552,163.02662238976265L116.774157914959,163.25960390546246L117.3234788238025,163.75119618864983L117.872799732646,161.90468381623302L118.4221206414895,162.24053016219602L118.97144155033298,161.83349487698464L119.52076245917648,161.8209458303144L120.07008336801997,162.43291146825976L120.61940427686348,162.60719483529368L121.16872518570696,163.10592862947527L121.71804609455046,162.23529996490478L122.26736700339394,162.7953902701101L122.81668791223746,162.6573918786818L123.36600882108094,161.45761717494844L123.91532972992444,162.6717194494432L124.46465063876792,163.05949852752687L125.01397154761142,162.29887363409227L125.56329245645492,162.66102174697386L126.11261336529842,163.29491394830518L126.6619342741419,163.52734203117126L127.2112551829854,163.00156284824496L127.7605760918289,162.992387514422L128.30989700067238,162.1933521548856L128.85921790951588,162.35951907816244L129.40853881835938,162.09651340287732L129.95785972720287,162.3715241157778L130.50718063604637,162.74276189176499L131.05650154488984,162.6058018294304L131.60582245373337,163.28002095080961L132.15514336257684,163.14917006732574L132.70446427142033,161.83703136419481L133.25378518026383,163.30999627808603L133.8031060891073,161.41638814224737L134.35242699795083,162.82581451194517L134.9017479067943,161.65666023598948L135.4510688156378,162.83292089794529L136.0003897244813,162.33220125653668L136.5497106333248,162.772839167195L137.0990315421683,162.91636589001072L137.6483524510118,163.32176486452167L138.19767335985526,163.310625101151L138.74699426869876,162.39299062741188L139.29631517754225,162.6677134867022L139.84563608638575,161.2754204037574L140.39495699522925,163.32066056897565L140.94427790407275,162.21745903802687L141.49359881291622,163.1124473143547L142.04291972175974,163.6648786574333L142.59224063060321,164.12556694276873L143.1415615394467,162.5149497471471L143.6908824482902,162.89699916765767L144.2402033571337,162.8502135322325L144.7895242659772,163.70235274259505L145.3388451748207,163.74382251001174L145.8881660836642,162.72433669059507L146.43748699250767,162.86585357838294L146.98680790135117,162.90346130986367L147.53612881019467,163.28858630912535L148.08544971903817,163.71259639026275L148.63477062788164,163.90219168459984L149.18409153672513,162.9178291458622L149.73341244556866,163.5738852184665L150.28273335441216,162.06631019149287L150.83205426325563,163.36055142507246L151.38137517209913,162.1946680571033L151.93069608094262,161.83579170891548L152.4800169897861,163.45885000610352L153.0293378986296,162.23609413245418L153.5786588074731,162.91544235967822L154.1279797163166,163.35706377017115L154.67730062516006,163.4373526530112L155.22662153400358,162.7118587506202L155.77594244284708,161.57401198159496L156.32526335169058,163.4850780962052L156.87458426053405,162.47174343429074L157.42390516937755,161.52974335184405L157.97322607822105,163.57867249814927L158.52254698706454,163.11336399102981L159.071867895908,163.558938248419L159.62118880475154,162.4813179936563L160.17050971359504,163.86848282746345L160.71983062243854,163.84745494990196L161.269151531282,163.04749948686168L161.8184724401255,163.6698809706165L162.367793348969,163.99032714843753L162.9171142578125,163.98373478674122L163.46643516665597,162.88779213566934L164.01575607549947,163.9019937852429L164.565076984343,162.9315064758793L165.1143978931865,162.74428854394728L165.66371880202996,162.8414108660298L166.21303971087346,162.96926241770097L166.76236061971696,161.26727311854208L167.31168152856046,162.37793057201756L167.86100243740393,161.82852340525966L168.41032334624742,164.05661572265626L168.95964425509092,162.63294402608565L169.50896516393445,162.48736977312643L170.05828607277792,162.11498143940588L170.60760698162142,162.00092372992734L171.1569278904649,162.20795815547822L171.70624879930838,162.9269453668902L172.25556970815188,161.2516827614077L172.80489061699538,162.5131755065918L173.35421152583888,163.28541220904935L173.90353243468235,162.7211051911385L174.45285334352585,163.86339912709883L175.00217425236937,162.56057968459592L175.55149516121287,162.8199829062185L176.10081607005634,163.50856729347475L176.65013697889984,163.5118287776824L177.19945788774334,162.81982527209868L177.74877879658683,163.1953028918851L178.2980997054303,162.3483724611344L178.8474206142738,163.34411292783676L179.3967415231173,163.24168416152463L179.94606243196083,163.09054473876955L180.4953833408043,162.58716759171026L181.0447042496478,162.17732316367858L181.5940251584913,162.6826638835784L182.1433460673348,162.98968803011988L182.69266697617826,163.18329100061234L183.24198788502176,162.4074192896197L183.79130879386526,163.53987308699087L184.34062970270875,163.4272529321486L184.88995061155222,162.98370992746663L185.43927152039575,163.38747259127712L185.98859242923925,162.2720895410353L186.53791333808275,163.22267639947708L187.08723424692622,163.23007663603752L187.6365551557697,162.51199753422893L188.1858760646132,163.01214318183162L188.73519697345668,163.7623059672694L189.28451788230018,162.30103853311846L189.83383879114368,161.7560811034172L190.3831596999872,162.83904378411077L190.93248060883067,163.2597486889747L191.48180151767417,161.60075923624348L192.03112242651767,162.86189559124364L192.58044333536117,163.36874839930383L193.12976424420464,162.5572667979579L193.67908515304813,163.21923415005594L194.22840606189163,162.54289639183784L194.77772697073513,163.7904702155821L195.3270478795786,163.8757305701471L195.87636878842213,163.03625520521595L196.42568969726562,164.31807675490842L196.97501060610912,163.1870759329027L197.5243315149526,163.34555219588742L198.0736524237961,162.60877631673506L198.6229733326396,162.60141634541174L199.1722942414831,164.2235725299466L199.72161515032656,163.13239317075667L200.27093605917008,164.57327268760434L200.82025696801358,163.5429255346483L201.36957787685708,163.92775496993528L201.91889878570055,163.3143329297958L202.46821969454405,163.68411002005303L203.01754060338754,162.28747942869126L203.56686151223104,163.30177531605383L204.1161824210745,162.66472186525408L204.665503329918,163.0154732026131L205.21482423876154,163.72683829030686L205.76414514760503,163.250222961918L206.3134660564485,164.32155498603083L206.862786965292,162.6106850603165L207.4121078741355,163.71007595775973L207.96142878297897,163.22274407934373L208.51074969182247,162.57528077968476L209.06007060066597,163.52936386009955L209.60939150950946,162.6031254762219L210.15871241835293,163.13205734154488L210.70803332719646,163.5050111019996L211.25735423603996,162.74989397898028L211.80667514488346,162.83025311180853L212.35599605372693,163.73948414488763L212.90531696257042,163.006589149229L213.45463787141392,163.63207448307162L214.00395878025742,162.37482929205126L214.5532796891009,163.06327489274548L215.1026005979444,163.29006155887728L215.65192150678791,162.87989072541268L216.2012424156314,162.63043130394723L216.75056332447488,163.27379868661205L217.29988423331838,163.09317911332656L217.84920514216188,162.21223569439306L218.39852605100538,163.37616491330056L218.94784695984885,163.30923380870206L219.49716786869234,163.1644605769496L220.04648877753584,162.86660662398802L220.59580968637937,162.90623789781142L221.14513059522284,162.47778064973895L221.69445150406634,162.10273566707488L222.24377241290983,163.87170147631247L222.79309332175333,163.27501007055469L223.3424142305968,163.2681504162204L223.8917351394403,163.49797239586616L224.4410560482838,163.10312634031234L224.9903769571273,163.11568823759018L225.53969786597077,163.3204815171765L226.0890187748143,163.80689072196716L226.6383396836578,162.08882959624262L227.18766059250126,164.37979822318786L227.73698150134476,164.05684275005711L228.28630241018826,163.10961161361203L228.83562331903175,163.0335694282286L229.38494422787522,162.33302198200843L229.93426513671872,161.40905387213922L230.48358604556222,161.73025909251552L231.03290695440575,162.99944849494196L231.58222786324922,164.24917950734786L232.1315487720927,162.69357233601232L232.6808696809362,163.94037512330087L233.2301905897797,164.58323190849057L233.77951149862318,163.1773591601464L234.32883240746668,162.82203557660503L234.87815331631018,163.43154931862125L235.42747422515367,163.14935597278227L235.97679513399714,162.05853214706914L236.52611604284067,163.75535807209633L237.07543695168417,162.38867110984557L237.62475786052767,163.63641113478138L238.17407876937114,164.4128516993369L238.72339967821463,162.38247197674167L239.27272058705813,163.24741039226902L239.82204149590163,162.86045975002168L240.3713624047451,163.18028138831355L240.92068331358863,162.67965255786527L241.47000422243212,163.2933513144216L242.01932513127562,163.1008226547241L242.5686460401191,163.8210426677581L243.1179669489626,164.20139152453024L243.6672878578061,163.94340700998615L244.21660876664956,163.76739223775556L244.76592967549306,162.5240848157329L245.31525058433655,163.40414839639973L245.86457149318008,163.50671080903084L246.41389240202355,163.21172254156298L246.96321331086705,164.1799901226413L247.51253421971055,162.6278192037767L248.06185512855404,163.4217622958768L248.6111760373975,163.9419677419355L249.160496946241,163.15592006314185L249.7098178550845,163.6268185845652L250.259138763928,163.46529073063022L250.80845967277148,162.6997723258234L251.357780581615,163.2184194215344L251.9071014904585,164.15072243548977L252.456422399302,164.0818620263377L253.00574330814547,162.0057367108253L253.55506421698897,164.45535379889705L254.10438512583247,163.66720461740803L254.65370603467596,163.25477464712822L255.20302694351943,163.01931210745536L255.75234785236293,163.48696884893604L256.30166876120643,162.5772889012983L256.85098967004996,163.30657972988007L257.4003105788934,163.32928161325762L257.9496314877369,163.05458274176814L258.4989523965804,163.4655580232682L259.04827330542395,164.52107608967444L259.5975942142674,163.17941268724013L260.1469151231109,161.88560666090444L260.6962360319544,162.9972159160491L261.2455569407979,163.60762748718264L261.79487784964135,163.20663198754096L262.3441987584849,163.35835825470957L262.89351966732835,162.98430962248773L263.4428405761718,163.6591661340037L263.99216148501534,162.09879738420057L264.54148239385887,163.36539267730714L265.09080330270234,163.10643151658584L265.6401242115458,162.26067563136934L266.18944512038934,163.02980591361754L266.7387660292328,164.0708687598936L267.28808693807633,163.17742084306286L267.8374078469198,163.94405296719458L268.3867287557633,164.47384839334796L268.9360496646068,163.53900781274612L269.4853705734503,163.30218996232557L270.0346914822938,164.25361296696818L270.58401239113726,164.54694693288496L271.1333332999808,163.7234277390511L271.68265420882426,163.94765456414993L272.23197511766773,163.90013216055596L272.78129602651126,163.22551724046278L273.3306169353547,162.9375402644988L273.87993784419825,162.88436445027014L274.4292587530417,163.8004397169544L274.97857966188525,163.48335525808028L275.5279005707287,163.47356138167845L276.07722147957224,163.9180159227925L276.6265423884157,163.1463943360852L277.1758632972592,161.399386788399L277.7251842061027,163.34985800613896L278.2745051149462,163.11833631946197L278.82382602378965,163.4348870497673L279.3731469326332,162.7005904811736L279.9224678414767,163.34773508576424L280.4717887503202,162.8894884158719L281.02110965916364,164.41923673789734L281.57043056800717,163.14638662572062L282.11975147685064,162.76444772043538" style="fill: none;" fill="none"></path></g><g><path stroke="rgb(0, 119, 187)" stroke-width="2px" d="M8.008617963947234,110.5540328172253L8.557938872790729,128.55270004666238L9.107259781634223,133.03993346281976L9.656580690477716,135.37747611851847L10.205901599321209,137.605761195029L10.755222508164703,137.42289533553586L11.304543417008196,139.41972897535757L11.85386432585169,138.64492300808814L12.403185234695185,136.88760070603894L12.95250614353868,141.15580151268745L13.501827052382172,139.17608830901116L14.051147961225666,138.62651408435454L14.60046887006916,144.70867410425987L15.149789778912652,142.84931969131964L15.699110687756146,146.3799915732107L16.24843159659964,145.6286096934657L16.797752505443135,141.4415955987746L17.34707341428663,142.57316527434318L17.896394323130124,144.7015891359391L18.445715231973615,143.0694694469821L18.99503614081711,142.05569358087357L19.544357049660604,146.11454085565384L20.0936779585041,145.15431775493008L20.64299886734759,146.9985735606532L21.192319776191084,145.58006866504303L21.74164068503458,147.11281032193094L22.290961593878073,143.65867151863347L22.840282502721568,142.24045104980468L23.389603411565062,145.5015171843498L23.938924320408557,147.5214390824841L24.488245229252048,147.6409360258041L25.037566138095542,146.80450197133712L25.586887046939037,148.02370422363282L26.13620795578253,147.50104773835213L26.685528864626022,145.14153397049444L27.234849773469517,147.04059333407497L27.78417068231301,147.21004315923875L28.333491591156502,147.32462431680003L28.882812499999996,143.46788625803302L29.43213340884349,148.51994157311225L29.981454317686985,150.21913458005844L30.53077522653048,143.52639935794954L31.080096135373974,145.33400180398266L31.62941704421747,148.40172455030873L32.17873795306096,149.95497235008978L32.72805886190446,149.6388833849507L33.27737977074795,145.93352719706877L33.82670067959145,150.44480667015813L34.37602158843494,147.14722938931374L34.92534249727843,150.16436871731668L35.47466340612193,148.83056474648754L36.02398431496542,147.1447637860698L36.57330522380891,149.9793782240345L37.12262613265241,147.4401769802955L37.6719470414959,147.73645716218027L38.221267950339396,146.99629643298735L38.77058885918289,148.16083734081639L39.31990976802638,147.16606666663387L39.869230676869876,147.0541481549663L40.41855158571337,152.02843673312282L40.967872494556865,148.64572674708214L41.517193403400356,150.44138840853785L42.066514312243854,148.2138178258096L42.615835221087345,149.78066156842632L43.165156129930836,147.7204658660889L43.71447703877433,149.39916815087105L44.263797947617824,149.47925142398958L44.81311885646132,149.46120403068298L45.36243976530481,151.92872801208497L45.91176067414831,149.10119340219805L46.4610815829918,149.19694070926792L47.01040249183529,150.27439047930318L47.55972340067879,149.47822508879634L48.10904430952228,150.86984822673185L48.65836521836578,150.03694723264633L49.20768612720927,150.28865979397682L49.75700703605276,147.16791372729887L50.30632794489625,148.55773092651367L50.855648853739744,150.05140159606933L51.40496976258324,152.5517340353689L51.95429067142673,148.6744915471231L52.50361158027023,149.7592884378741L53.05293248911372,150.15425957267516L53.60225339795722,150.94957682308075L54.15157430680071,151.65345600349673L54.7008952156442,151.34476556150378L55.2502161244877,150.00584704885176L55.79953703333119,150.66835069964011L56.34885794217469,151.52115471476893L56.89817885101818,150.48429401717647L57.44749975986168,151.66536766003023L57.99682066870517,150.25084645277454L58.54614157754866,150.80928759667182L59.09546248639216,149.33816545990976L59.64478339523565,151.0416128746771L60.19410430407915,151.42472375537503L60.74342521292264,150.40874272500315L61.292746121766136,149.41619263581308L61.84206703060963,148.63949334569133L62.391387939453125,151.43523726580221L62.940708848296616,148.2520492401123L63.49002975714011,149.22871255148613L64.0393506659836,148.61653359345468L64.5886715748271,150.70781919910064L65.13799248367059,150.11578999377838L65.68731339251408,150.57217675239812L66.23663430135758,149.19797389811853L66.78595521020108,152.9480878955472L67.33527611904456,153.28471384503766L67.88459702788806,150.25728717730124L68.43391793673155,148.6670450483753L68.98323884557504,152.7777899302821L69.53255975441854,151.50097069377284L70.08188066326203,152.8400811088316L70.63120157210554,149.76715472313668L71.18052248094902,150.08288215784873L71.72984338979252,152.14082643373553L72.27916429863602,152.0251075690485L72.82848520747952,151.6437923465852L73.377806116323,151.33907017221762L73.9271270251665,150.3997524399296L74.47644793401,149.88107621617473L75.0257688428535,150.2826902583953L75.57508975169698,152.59042121788764L76.12441066054048,151.12805120160505L76.67373156938396,149.91323871686384L77.22305247822746,148.51081078806232L77.77237338707096,150.46580627638295L78.32169429591444,151.6314009340348L78.87101520475794,152.88845250923404L79.42033611360142,148.53500419862812L79.96965702244493,149.94595979062973L80.51897793128842,150.2515592331425L81.06829884013192,150.07202082430933L81.6176197489754,152.10031789176696L82.16694065781891,149.92132945940574L82.7162615666624,151.32266080302577L83.2655824755059,151.870603857225L83.81490338434938,152.97592573842695L84.36422429319288,149.76059405960575L84.91354520203637,148.21882784935738L85.46286611087987,149.83695922359342L86.01218701972336,152.46651908628402L86.56150792856685,152.4282242756505L87.11082883741035,151.22598653879473L87.66014974625385,152.08150802907636L88.20947065509733,151.29454196019327L88.75879156394083,152.11427879185834L89.30811247278432,151.2977409047773L89.85743338162783,148.73058701939738L90.40675429047131,151.57240636468705L90.95607519931481,151.4617437857351L91.5053961081583,149.31796087794152L92.0547170170018,152.58162454863518L92.60403792584529,152.4297200863746L93.15335883468879,151.39139613293065L93.70267974353227,150.59815211388374L94.25200065237577,152.33955336982976L94.80132156121927,149.11548670467255L95.35064247006275,151.15797255632955L95.89996337890625,150.8679223490069L96.44928428774973,151.63893310349988L96.99860519659323,149.94082126100605L97.54792610543673,151.82116157285628L98.09724701428023,153.02514527893067L98.64656792312371,147.7922784881592L99.19588883196721,148.90186505766837L99.7452097408107,151.21804486330095L100.2945306496542,152.77791329611503L100.84385155849769,153.49844686397432L101.39317246734119,151.27876141406645L101.94249337618467,152.8914938196982L102.49181428502818,149.5888157043457L103.04113519387167,153.44388318412535L103.59045610271517,152.18236987796908L104.13977701155865,153.21657306991085L104.68909792040215,152.4416540172946L105.23841882924565,153.48091863521455L105.78773973808914,154.1119982668969L106.33706064693263,150.89253554608746L106.88638155577613,150.23147801700716L107.43570246461962,153.17357493689752L107.98502337346312,152.6235946330409L108.5343442823066,149.1263600321124L109.0836651911501,153.1268826825542L109.63298609999359,152.39388745215632L110.1823070088371,151.08891510452764L110.73162791768058,151.51831387378326L111.28094882652408,151.33261745379048L111.83026973536757,152.35921308603594L112.37959064421108,152.25212982965286L112.92891155305456,152.10908714638987L113.47823246189806,151.7975335890247L114.02755337074154,153.17891222258538L114.57687427958503,151.85460399406188L115.12619518842854,152.27211680799917L115.67551609727202,154.82166878780242L116.22483700611552,150.92542453445927L116.774157914959,152.88679563756142L117.3234788238025,149.20257441563763L117.872799732646,151.85445150018506L118.4221206414895,149.84142266796482L118.97144155033298,151.0760679237612L119.52076245917648,150.82983314809493L120.07008336801997,151.45004973282354L120.61940427686348,151.56012975089783L121.16872518570696,152.83528697549144L121.71804609455046,151.7276125763924L122.26736700339394,151.03074640089466L122.81668791223746,152.11924940687612L123.36600882108094,152.51036707281298L123.91532972992444,153.01069434233636L124.46465063876792,151.41814081745764L125.01397154761142,150.91590651776716L125.56329245645492,152.41250883926887L126.11261336529842,150.98484745739353L126.6619342741419,152.4466503335276L127.2112551829854,153.8635840281825L127.7605760918289,151.19852393365676L128.30989700067238,149.07911605834963L128.85921790951588,153.67009328632972L129.40853881835938,152.41186802230345L129.95785972720287,152.02447703256917L130.50718063604637,150.7011454502229L131.05650154488984,154.23850992854952L131.60582245373337,152.895518629997L132.15514336257684,153.0878819452101L132.70446427142033,150.1356330453196L133.25378518026383,150.30420902916694L133.8031060891073,153.37540657978673L134.35242699795083,152.36156731734738L134.9017479067943,152.0865129123811L135.4510688156378,154.42563704952119L136.0003897244813,151.08569217214279L136.5497106333248,152.85292143594066L137.0990315421683,153.46588685115694L137.6483524510118,152.27960100186257L138.19767335985526,153.09375381617394L138.74699426869876,152.44663319938414L139.29631517754225,152.39564198844664L139.84563608638575,153.89231455993655L140.39495699522925,152.23551485073952L140.94427790407275,149.7144449576101L141.49359881291622,152.4777556575652L142.04291972175974,152.44514252890312L142.59224063060321,151.0972577189784L143.1415615394467,152.07426885346445L143.6908824482902,152.30951721634403L144.2402033571337,151.3515027067123L144.7895242659772,152.9365086413968L145.3388451748207,153.22742583637853L145.8881660836642,151.91858117232786L146.43748699250767,152.5133689747472L146.98680790135117,153.1392963694911L147.53612881019467,151.74612944522983L148.08544971903817,152.73026666998095L148.63477062788164,151.95551724538495L149.18409153672513,153.81972233433876L149.73341244556866,151.92786787808325L150.28273335441216,154.46428311009564L150.83205426325563,151.66250454465805L151.38137517209913,150.53857327024397L151.93069608094262,154.13254553173434L152.4800169897861,151.97993511323008L153.0293378986296,154.08249669868715L153.5786588074731,152.23081495518838L154.1279797163166,152.97403755581763L154.67730062516006,153.98046116096745L155.22662153400358,153.88521759771533L155.77594244284708,153.94044265550184L156.32526335169058,151.45627114031393L156.87458426053405,152.83507622552688L157.42390516937755,152.28971700016146L157.97322607822105,153.03829059379333L158.52254698706454,153.07716282506144L159.071867895908,152.3294613593317L159.62118880475154,152.65452347540088L160.17050971359504,153.8843797381001L160.71983062243854,149.57331615817165L161.269151531282,153.75959177127962L161.8184724401255,152.82817287912678L162.367793348969,154.4753637606713L162.9171142578125,153.22135349593623L163.46643516665597,152.7091454113376L164.01575607549947,151.77704286686068L164.565076984343,153.07844103216357L165.1143978931865,153.5108194289669L165.66371880202996,150.44320291433027L166.21303971087346,151.58631586234802L166.76236061971696,152.12902614913452L167.31168152856046,153.87426716662992L167.86100243740393,153.1111107034991L168.41032334624742,154.49429013553743L168.95964425509092,154.78516449516053L169.50896516393445,152.29902940713205L170.05828607277792,151.30610579361456L170.60760698162142,153.71422398622576L171.1569278904649,151.54262722335324L171.70624879930838,151.52976976210073L172.25556970815188,155.35935020348333L172.80489061699538,153.78986780277376L173.35421152583888,155.13037122369585L173.90353243468235,149.97342753601075L174.45285334352585,152.47715253571542L175.00217425236937,150.63347586404126L175.55149516121287,153.86481597309728L176.10081607005634,151.92929857906222L176.65013697889984,153.79317469246158L177.19945788774334,152.81878508192494L177.74877879658683,154.33629962551979L178.2980997054303,152.01188857736895L178.8474206142738,152.47772138927832L179.3967415231173,155.8766180006458L179.94606243196083,153.65945641006962L180.4953833408043,153.4132010734312L181.0447042496478,154.61086913422616L181.5940251584913,154.79612692014632L182.1433460673348,152.6698790947699L182.69266697617826,154.08146179642216L183.24198788502176,153.30154300074426L183.79130879386526,152.83940945040794L184.34062970270875,151.2269340569281L184.88995061155222,154.66130177208686L185.43927152039575,152.04765096159906L185.98859242923925,154.1016286832748L186.53791333808275,154.82969956084222L187.08723424692622,153.41873711518318L187.6365551557697,155.13162886982582L188.1858760646132,154.3968671092372L188.73519697345668,154.3217458840647L189.28451788230018,152.024317685035L189.83383879114368,150.78681788093814L190.3831596999872,154.79252018294798L190.93248060883067,153.56809373031126L191.48180151767417,152.87970038875457L192.03112242651767,154.41314111869568L192.58044333536117,151.99718405545144L193.12976424420464,150.90665065346997L193.67908515304813,154.22348671156362L194.22840606189163,152.59244647364463L194.77772697073513,151.8840044708252L195.3270478795786,153.7661335872527L195.87636878842213,154.82573472004552L196.42568969726562,151.76937876449094L196.97501060610912,153.22633267802578L197.5243315149526,152.58285478013562L198.0736524237961,153.0603473766696L198.6229733326396,154.25363766381048L199.1722942414831,153.01045960457097L199.72161515032656,151.93344504177955L200.27093605917008,154.2973125954905L200.82025696801358,153.20803169939595L201.36957787685708,154.46392329308296L201.91889878570055,152.21758396960846L202.46821969454405,152.4001756828062L203.01754060338754,154.0445428575085L203.56686151223104,151.92581520769676L204.1161824210745,154.6481324694234L204.665503329918,154.43278712758712L205.21482423876154,153.31034823706844L205.76414514760503,153.6184492645264L206.3134660564485,154.18225853556973L206.862786965292,153.83495801470357L207.4121078741355,150.84147751199046L207.96142878297897,151.16220126293553L208.51074969182247,152.00183597540087L209.06007060066597,152.32035284866828L209.60939150950946,152.38121161282447L210.15871241835293,153.20578541318832L210.70803332719646,153.10391264983147L211.25735423603996,152.72912210919782L211.80667514488346,155.19397830446306L212.35599605372693,153.3473751210859L212.90531696257042,154.8234473118936L213.45463787141392,153.43307325301632L214.00395878025742,153.99500290852208L214.5532796891009,152.5207897722798L215.1026005979444,153.94653384350195L215.65192150678791,151.4944751399871L216.2012424156314,153.67834166299144L216.75056332447488,152.08887571076426L217.29988423331838,155.44448804892264L217.84920514216188,153.4489000613305L218.39852605100538,149.73108735115298L218.94784695984885,153.03102400355186L219.49716786869234,154.68059653103737L220.04648877753584,151.3031724282542L220.59580968637937,154.39310959157638L221.14513059522284,153.28997745390862L221.69445150406634,153.69976276914537L222.24377241290983,152.3683849930302L222.79309332175333,150.67931655145463L223.3424142305968,153.1087907404746L223.8917351394403,155.96965811304895L224.4410560482838,154.67075467903385L224.9903769571273,152.94340513413954L225.53969786597077,152.2693770584599L226.0890187748143,155.03529728846397L226.6383396836578,152.23575130191927L227.18766059250126,151.79142526688116L227.73698150134476,154.4877877280943L228.28630241018826,152.63981209982595L228.83562331903175,152.32317312868182L229.38494422787522,155.00883017706104L229.93426513671872,152.43101028737715L230.48358604556222,154.38984211041853L231.03290695440575,154.9435884990077L231.58222786324922,151.77697090345814L232.1315487720927,153.17672247905116L232.6808696809362,153.56715991949267L233.2301905897797,154.53648981746554L233.77951149862318,155.61082802704843L234.32883240746668,153.41803975554438L234.87815331631018,150.01779468708654L235.42747422515367,154.33905650920252L235.97679513399714,154.55423393643287L236.52611604284067,153.10132710758333L237.07543695168417,153.24881610107423L237.62475786052767,155.74375299859818L238.17407876937114,154.90059379282306L238.72339967821463,154.33722829609533L239.27272058705813,153.75522256469728L239.82204149590163,151.35220520659416L240.3713624047451,152.1959761012908L240.92068331358863,154.23731739216467L241.47000422243212,154.27454817248932L242.01932513127562,152.28608798857658L242.5686460401191,152.1338631178333L243.1179669489626,151.8003521556239L243.6672878578061,151.74277800676902L244.21660876664956,154.41552276463662L244.76592967549306,152.87749351107692L245.31525058433655,153.92584436527378L245.86457149318008,150.0424524329401L246.41389240202355,153.22938084214735L246.96321331086705,154.1449952003725L247.51253421971055,153.84196930620746L248.06185512855404,153.4632944552514L248.6111760373975,154.34219548428445L249.160496946241,154.6052851168725L249.7098178550845,153.06170611424602L250.259138763928,151.52986057306106L250.80845967277148,153.0849211652202L251.357780581615,154.59800481931626L251.9071014904585,154.35281865322978L252.456422399302,154.17912812755955L253.00574330814547,151.7747314709079L253.55506421698897,152.4777470904935L254.10438512583247,153.93630647327055L254.65370603467596,155.53140099162442L255.20302694351943,151.30766671408378L255.75234785236293,154.52479919138264L256.30166876120643,153.21308455830237L256.85098967004996,152.47909040734078L257.4003105788934,153.9110490323959L257.9496314877369,153.22113760572864L258.4989523965804,150.88052451152186L259.04827330542395,154.13117480025755L259.5975942142674,155.01144656076738L260.1469151231109,154.21926999885807L260.6962360319544,152.77673104021628L261.2455569407979,154.28051085441345L261.79487784964135,154.49463624523534L262.3441987584849,153.8469776163409L262.89351966732835,154.5004515735257L263.4428405761718,150.37062610946165L263.99216148501534,153.94529333151542L264.54148239385887,150.52802035128687L265.09080330270234,153.6932672153596L265.6401242115458,153.1687893706291L266.18944512038934,154.52230446009483L266.7387660292328,152.83315891487368L267.28808693807633,153.68035663826237L267.8374078469198,153.85992246172506L268.3867287557633,152.70568431435862L268.9360496646068,155.84224690886467L269.4853705734503,151.33198349048246L270.0346914822938,153.48877292657667L270.58401239113726,154.50003350042527L271.1333332999808,151.9654156400619L271.68265420882426,153.28902136870354L272.23197511766773,151.7893006330921L272.78129602651126,155.60409430866858L273.3306169353547,154.05698053224626L273.87993784419825,151.52504587874873L274.4292587530417,152.6692622656053L274.97857966188525,152.50486529934793L275.5279005707287,152.73304411463585L276.07722147957224,154.66046905271472L276.6265423884157,154.11097193170363L277.1758632972592,154.5998415994952L277.7251842061027,154.5758006828062L278.2745051149462,152.78516275221304L278.82382602378965,153.0292163514168L279.3731469326332,153.88607259147398L279.9224678414767,154.72440853586505L280.4717887503202,155.44094470805507L281.02110965916364,152.78069245418425L281.57043056800717,152.69419587116857L282.11975147685064,155.41268707866053" style="fill: none;" fill="none"></path></g><g><path stroke="rgb(255, 112, 67)" stroke-width="2px" d="M8.008617963947234,6.08557009198589L8.557938872790729,27.08945299899195L9.107259781634223,49.857864828786546L9.656580690477716,53.21914514160157L10.205901599321209,59.63087869754916L10.755222508164703,57.807326077368955L11.304543417008196,66.70283877661922L11.85386432585169,80.26297125244142L12.403185234695185,70.24458274201425L12.95250614353868,82.81828201786165L13.501827052382172,76.84725233902472L14.051147961225666,87.56046463504916L14.60046887006916,78.97235217678933L15.149789778912652,86.97210556325605L15.699110687756146,79.7451500224452L16.24843159659964,86.27918709441155L16.797752505443135,82.03943924639303L17.34707341428663,90.53881054884388L17.896394323130124,94.6705104882025L18.445715231973615,85.79440734666395L18.99503614081711,92.24110826258506L19.544357049660604,83.38702592222154L20.0936779585041,86.32751223262665L20.64299886734759,90.15504685728011L21.192319776191084,91.34284736485635L21.74164068503458,92.85503147642075L22.290961593878073,97.0658568902785L22.840282502721568,96.87142548394974L23.389603411565062,83.3802819233556L23.938924320408557,88.99803983233052L24.488245229252048,95.75819962236959L25.037566138095542,90.37876394161103L25.586887046939037,91.79190585031819L26.13620795578253,90.4835015337544L26.685528864626022,92.08516014246788L27.234849773469517,92.89766122534968L27.78417068231301,89.55005395901588L28.333491591156502,90.61678460890249L28.882812499999996,92.08766172741306L29.43213340884349,87.51420930136405L29.981454317686985,92.8927471530053L30.53077522653048,96.06316681498866L31.080096135373974,101.0225555419922L31.62941704421747,92.34709322037236L32.17873795306096,99.31549453636909L32.72805886190446,101.84252711142264L33.27737977074795,98.29303851318362L33.82670067959145,101.73184054466986L34.37602158843494,94.53966731508318L34.92534249727843,101.8069566295993L35.47466340612193,92.27149737942604L36.02398431496542,93.83574187247986L36.57330522380891,104.94784388191471L37.12262613265241,97.38852022626325L37.6719470414959,101.8014531427199L38.221267950339396,100.53184052694999L38.77058885918289,102.74448898413874L39.31990976802638,103.65140605114352L39.869230676869876,100.67549318572014L40.41855158571337,102.44879478996033L40.967872494556865,101.35602024201424L41.517193403400356,102.59687491140059L42.066514312243854,109.59428775910409L42.615835221087345,110.32496302647746L43.165156129930836,108.0602404804845L43.71447703877433,105.4513889435799L44.263797947617824,105.7672397441249L44.81311885646132,108.15944031746159L45.36243976530481,103.50882941658267L45.91176067414831,108.79227962567731L46.4610815829918,108.79773513695503L47.01040249183529,104.76556401012792L47.55972340067879,99.82150691469255L48.10904430952228,106.91979189177484L48.65836521836578,101.71458988903416L49.20768612720927,111.2407213115077L49.75700703605276,107.14313887860698L50.30632794489625,101.47122336898312L50.855648853739744,104.48834727625693L51.40496976258324,101.80246748401275L51.95429067142673,101.80300206928871L52.50361158027023,102.64221185499622L53.05293248911372,98.96854869227258L53.60225339795722,105.78018630292338L54.15157430680071,105.16003311452559L54.7008952156442,104.11462419276083L55.2502161244877,114.60539418472783L55.79953703333119,105.31186218655495L56.34885794217469,113.59833147602697L56.89817885101818,101.94518119172128L57.44749975986168,100.92739936287172L57.99682066870517,104.2629716068391L58.54614157754866,102.53774155549081L59.09546248639216,108.89072556034212L59.64478339523565,112.4447512797694L60.19410430407915,107.0963215450164L60.74342521292264,108.45877380371094L61.292746121766136,108.85294134718373L61.84206703060963,100.14186742179625L62.391387939453125,101.27279628039945L62.940708848296616,108.27299171300089L63.49002975714011,107.83165729941092L64.0393506659836,103.69526945840158L64.5886715748271,109.97089623235888L65.13799248367059,108.94528752677671L65.68731339251408,96.48273401272682L66.23663430135758,98.49119145547189L66.78595521020108,103.76586898311493L67.33527611904456,105.36090695879537L67.88459702788806,104.06334512821321L68.43391793673155,113.10862394862023L68.98323884557504,113.2510703636908L69.53255975441854,101.66708033604776L70.08188066326203,106.82957719962829L70.63120157210554,105.47744654895415L71.18052248094902,113.40486643538938L71.72984338979252,109.55805932617189L72.27916429863602,103.38680690051665L72.82848520747952,110.83004330739669L73.377806116323,104.11020358374813L73.9271270251665,109.7074964717742L74.47644793401,98.58073448919481L75.0257688428535,113.68573616864606L75.57508975169698,109.16414536802232L76.12441066054048,111.71289032966861L76.67373156938396,105.71828406943045L77.22305247822746,105.27867677750126L77.77237338707096,100.20712109375002L78.32169429591444,116.0450323328818L78.87101520475794,107.40383144452497L79.42033611360142,106.98061810105847L79.96965702244493,104.1927353259671L80.51897793128842,106.30116021531627L81.06829884013192,106.9516065693517L81.6176197489754,105.73906435861896L82.16694065781891,109.8741225900958L82.7162615666624,111.17520720057335L83.2655824755059,108.76873045890562L83.81490338434938,103.41753870022683L84.36422429319288,107.85169739360197L84.91354520203637,108.8168157191123L85.46286611087987,110.80317697045112L86.01218701972336,113.2950365758096L86.56150792856685,111.4985559022965L87.11082883741035,111.14666857122606L87.66014974625385,109.41204215560423L88.20947065509733,107.3096279237809L88.75879156394083,108.44904161022556L89.30811247278432,104.01556828258884L89.85743338162783,109.47395809641193L90.40675429047131,108.30516278076173L90.95607519931481,112.47923203006869L91.5053961081583,106.8425717340285L92.0547170170018,109.4764665350145L92.60403792584529,108.03160589993387L93.15335883468879,114.47981462047949L93.70267974353227,110.00547293386153L94.25200065237577,111.69337796709615L94.80132156121927,103.96301443776778L95.35064247006275,115.76110244160314L95.89996337890625,112.56264789409025L96.44928428774973,109.79791677364227L96.99860519659323,113.27850555419923L97.54792610543673,115.28574989958734L98.09724701428023,108.82908376582976L98.64656792312371,111.72517208370087L99.19588883196721,107.95249413274952L99.7452097408107,107.2940358532321L100.2945306496542,120.22300816689769L100.84385155849769,104.89293237895352L101.39317246734119,106.15619165432837L101.94249337618467,109.87358115116244L102.49181428502818,110.1869029521327L103.04113519387167,105.10113963662427L103.59045610271517,114.44768467466294L104.13977701155865,104.29615016223538L104.68909792040215,110.70013908533898L105.23841882924565,106.91224601499496L105.78773973808914,112.93085378339215L106.33706064693263,116.54898176033268L106.88638155577613,109.35498545788181L107.43570246461962,102.86416069572205L107.98502337346312,113.85189623826551L108.5343442823066,114.06129603232108L109.0836651911501,100.04514175513484L109.63298609999359,110.3576412648847L110.1823070088371,105.09834334441155L110.73162791768058,110.70811674253405L111.28094882652408,106.86473646200857L111.83026973536757,109.88878256324033L112.37959064421108,101.77784914668914L112.92891155305456,100.64085480130105L113.47823246189806,105.75775428230531L114.02755337074154,117.15094191520447L114.57687427958503,105.81412561428932L115.12619518842854,108.96436125527659L115.67551609727202,103.38379814492504L116.22483700611552,117.88283027993482L116.774157914959,118.85107730004096L117.3234788238025,116.42627730535692L117.872799732646,114.40442438925466L118.4221206414895,111.8544183546497L118.97144155033298,112.01210045008507L119.52076245917648,115.54585647779896L120.07008336801997,108.27981110209805L120.61940427686348,110.70546437712639L121.16872518570696,106.72041214481479L121.71804609455046,123.50082464008948L122.26736700339394,114.15118174891319L122.81668791223746,110.96594447966545L123.36600882108094,104.03431988919165L123.91532972992444,109.81867650185863L124.46465063876792,116.65067975542624L125.01397154761142,111.8854105933405L125.56329245645492,115.7560512961111L126.11261336529842,104.51103288219821L126.6619342741419,112.69638331062565L127.2112551829854,115.5313884070612L127.7605760918289,116.0804109122984L128.30989700067238,106.33529142908897L128.85921790951588,111.84369238084363L129.40853881835938,112.5739769897461L129.95785972720287,108.76663323974611L130.50718063604637,113.5698750905683L131.05650154488984,106.9008278217931L131.60582245373337,108.81871418220767L132.15514336257684,116.0207669589135L132.70446427142033,116.49536902544575L133.25378518026383,103.64806146634011L133.8031060891073,114.59312613801035L134.35242699795083,103.13666896697013L134.9017479067943,109.00454424851942L135.4510688156378,121.74240232603013L136.0003897244813,112.28514330660911L136.5497106333248,117.9323548081921L137.0990315421683,113.20439695690526L137.6483524510118,114.7757692536385L138.19767335985526,116.79183425607988L138.74699426869876,113.06772817500946L139.29631517754225,113.70170519035095L139.84563608638575,116.7826709161574L140.39495699522925,108.8066106232674L140.94427790407275,119.07187815315493L141.49359881291622,112.4303860138924L142.04291972175974,116.13887603661324L142.59224063060321,113.20737829786731L143.1415615394467,116.73872183818203L143.6908824482902,114.4496859426191L144.2402033571337,116.3709203146658L144.7895242659772,114.3918547816123L145.3388451748207,109.66745055167907L145.8881660836642,113.36031766239292L146.43748699250767,114.1998838382844L146.98680790135117,117.94416708669357L147.53612881019467,110.7660918303459L148.08544971903817,114.18021384159213L148.63477062788164,114.63827117919924L149.18409153672513,116.3729798387097L149.73341244556866,113.93039802994267L150.28273335441216,118.22510535652408L150.83205426325563,114.88707264955583L151.38137517209913,110.24716030785348L151.93069608094262,118.39935959551413L152.4800169897861,108.04490884891634L153.0293378986296,118.54334122983873L153.5786588074731,112.61930707968438L154.1279797163166,120.39192683361424L154.67730062516006,111.02319307979462L155.22662153400358,119.43480329944242L155.77594244284708,109.27093905738091L156.32526335169058,112.95489641349548L156.87458426053405,113.78132412818171L157.42390516937755,107.91747194351689L157.97322607822105,111.61619207763671L158.52254698706454,115.62788790302893L159.071867895908,103.7984101483745L159.62118880475154,114.74333089323967L160.17050971359504,113.94416702762729L160.71983062243854,110.68478003914124L161.269151531282,103.27440691941786L161.8184724401255,114.7782639849263L162.367793348969,113.70903175009452L162.9171142578125,110.8573619857296L163.46643516665597,110.91757136584866L164.01575607549947,99.54021910833545L164.565076984343,110.87624381182272L165.1143978931865,115.00016485005041L165.66371880202996,109.09961133009388L166.21303971087346,112.15426586520289L166.76236061971696,118.34602100692258L167.31168152856046,111.8554532569147L167.86100243740393,117.67306724203786L168.41032334624742,112.76475539668914L168.95964425509092,117.5233114013672L169.50896516393445,113.34954371298515L170.05828607277792,114.79311586047758L170.60760698162142,114.59479157675467L171.1569278904649,111.85527506182274L171.70624879930838,119.0072138957362L172.25556970815188,120.42530757190336L172.80489061699538,122.8834574634183L173.35421152583888,115.48655863411196L173.90353243468235,111.5961862517326L174.45285334352585,115.66440761639996L175.00217425236937,117.62708948147683L175.55149516121287,116.1011912014869L176.10081607005634,113.04613230059226L176.65013697889984,111.29950513089088L177.19945788774334,102.99712164897305L177.74877879658683,119.87466760352352L178.2980997054303,109.21180570147116L178.8474206142738,110.6646714083764L179.3967415231173,117.44908971872638L179.94606243196083,120.1816120762979L180.4953833408043,119.8488978517594L181.0447042496478,114.97279819611582L181.5940251584913,117.42972470978769L182.1433460673348,114.10141048899006L182.69266697617826,113.66614156218498L183.24198788502176,110.50876441020353L183.79130879386526,119.19408914479902L184.34062970270875,118.7932290048907L184.88995061155222,102.49054727074407L185.43927152039575,116.13472957389585L185.98859242923925,114.37646832078505L186.53791333808275,112.41494472380609L187.08723424692622,108.89573558388987L187.6365551557697,112.27421172308154L188.1858760646132,109.49509477578441L188.73519697345668,118.84238686247797L189.28451788230018,121.34870768491686L189.83383879114368,107.97040959315146L190.3831596999872,117.53166600971838L190.93248060883067,117.699515505883L191.48180151767417,114.10650275642642L192.03112242651767,114.54847456015311L192.58044333536117,115.00654560507498L193.12976424420464,117.47238872700353L193.67908515304813,114.8961674529045L194.22840606189163,123.2445629636703L194.77772697073513,111.47426654052735L195.3270478795786,116.38688590954196L195.87636878842213,112.90584478759766L196.42568969726562,114.0999712209394L196.97501060610912,113.72752977137412L197.5243315149526,113.69142470427482L198.0736524237961,117.87073014782322L198.6229733326396,113.07269022295553L199.1722942414831,116.20329698919484L199.72161515032656,111.73829683759138L200.27093605917008,111.17657793205015L200.82025696801358,119.99657703424269L201.36957787685708,114.69961141278667L201.91889878570055,118.50449469978581L202.46821969454405,118.75574635265721L203.01754060338754,111.9356616092805L203.56686151223104,117.76485142172538L204.1161824210745,113.17134176734187L204.665503329918,106.48301516034526L205.21482423876154,116.93675826829482L205.76414514760503,115.80852632387224L206.3134660564485,119.56297011935327L206.862786965292,121.52195443627141L207.4121078741355,118.45809543929563L207.96142878297897,111.07223785203504L208.51074969182247,108.56962485824096L209.06007060066597,107.80701840111517L209.60939150950946,116.92448679474863L210.15871241835293,117.88466363328504L210.70803332719646,117.88030128036009L211.25735423603996,114.57271594632057L211.80667514488346,111.50014595080961L212.35599605372693,118.1214369349326L212.90531696257042,111.04126617431642L213.45463787141392,118.78207810432681L214.00395878025742,112.65245822045112L214.5532796891009,120.65495649670017L215.1026005979444,118.03161975491433L215.65192150678791,120.42716148622577L216.2012424156314,120.85696119443833L216.75056332447488,107.25839683483494L217.29988423331838,120.92884920673987L217.84920514216188,112.16236003457347L218.39852605100538,109.66437325951362L218.94784695984885,110.3207685881584L219.49716786869234,115.58313009348225L220.04648877753584,117.01700774260492L220.59580968637937,113.74299162243258L221.14513059522284,115.2591645625945L221.69445150406634,117.88094209732549L222.24377241290983,112.24476841095957L222.79309332175333,119.69479679230722L223.3424142305968,119.4579172589702L223.8917351394403,117.65825306160221L224.4410560482838,117.438500818068L224.9903769571273,120.44739005599486L225.53969786597077,113.83043743699596L226.0890187748143,108.8792045622795L226.6383396836578,122.49470773610761L227.18766059250126,114.71814370235322L227.73698150134476,114.10853829266948L228.28630241018826,118.06847187066849L228.83562331903175,116.66373939957158L229.38494422787522,112.32770451896423L229.93426513671872,105.10129727074408L230.48358604556222,108.77851748165007L231.03290695440575,113.90044754717427L231.58222786324922,109.77439502150015L232.1315487720927,115.35183629091324L232.6808696809362,116.32194407899921L233.2301905897797,108.47443441083354L233.77951149862318,118.32937689996534L234.32883240746668,119.37716404084237L234.87815331631018,117.19270810330299L235.42747422515367,114.04102291377897L235.97679513399714,118.08564028241557L236.52611604284067,124.1745939902029L237.07543695168417,112.55142160329514L237.62475786052767,122.92143700581214L238.17407876937114,115.75130513837263L238.72339967821463,117.24705075270133L239.27272058705813,116.43517335264144L239.82204149590163,117.6210753971223L240.3713624047451,119.97516620857486L240.92068331358863,112.72589515932147L241.47000422243212,114.54231312216483L242.01932513127562,117.31156080282891L242.5686460401191,116.7218686946746L243.1179669489626,119.97728398870655L243.6672878578061,117.37468641416488L244.21660876664956,118.57638956574472L244.76592967549306,116.43647897437313L245.31525058433655,106.76794911243071L245.86457149318008,118.00786155159246L246.41389240202355,121.41426977145288L246.96321331086705,115.24758873527281L247.51253421971055,117.49030418740551L248.06185512855404,106.75666799237653L248.6111760373975,113.24181792622228L249.160496946241,109.97067691532258L249.7098178550845,123.76878208283456L250.259138763928,123.10103709756176L250.80845967277148,104.2894815536007L251.357780581615,118.76739757021012L251.9071014904585,116.3420390024493L252.456422399302,124.03454978204543L253.00574330814547,106.57555324234502L253.55506421698897,118.58510056427988L254.10438512583247,118.8171516959898L254.65370603467596,115.84074879406347L255.20302694351943,106.72838980200984L255.75234785236293,118.03709240033551L256.30166876120643,115.24928158864668L256.85098967004996,115.55531109816029L257.4003105788934,111.89683564019973L257.9496314877369,114.70397033888295L258.4989523965804,122.23277808503182L259.04827330542395,124.35081865569084L259.5975942142674,113.60326610934352L260.1469151231109,117.77886372424712L260.6962360319544,119.99560381489417L261.2455569407979,117.3890996556436L261.79487784964135,111.44368552127962L262.3441987584849,123.49018776382941L262.89351966732835,114.90724981689456L263.4428405761718,116.55635629567793L263.99216148501534,119.35293978881836L264.54148239385887,112.42171613730156L265.09080330270234,119.32935292693108L265.6401242115458,111.67681267719885L266.18944512038934,116.8237174702306L266.7387660292328,111.59528156895792L267.28808693807633,119.80467120065998L267.8374078469198,124.2233337746897L268.3867287557633,119.33684397445187L268.9360496646068,121.4998925131521L269.4853705734503,124.43145193481446L270.0346914822938,126.60519217903384L270.58401239113726,116.83664689488565L271.1333332999808,113.3826468781502L271.68265420882426,110.38371943123111L272.23197511766773,112.60325581409086L272.78129602651126,116.01748748385522L273.3306169353547,112.84822608996977L273.87993784419825,116.85049813645888L274.4292587530417,110.09065704148817L274.97857966188525,114.24413790401337L275.5279005707287,112.48394734634893L276.07722147957224,120.13166262128277L276.6265423884157,105.96897714922505L277.1758632972592,110.02434790629727L277.7251842061027,117.80123748877742L278.2745051149462,120.19065547721618L278.82382602378965,120.41930376803492L279.3731469326332,110.08223389656315L279.9224678414767,111.74706951904298L280.4717887503202,117.54699421445787L281.02110965916364,115.70589965820315L281.57043056800717,117.58795509781378L282.11975147685064,121.28804939023912" style="fill: none;" fill="none"></path></g></g></g></g></g></g><g transform="translate(41, 177)" clip-path="url(#clip_1)"><clipPath id="clip_1"><rect width="288" height="23"></rect></clipPath><g><g><line x1="8.008617963947234" y1="0" x2="8.008617963947234" y2="5" style="visibility: inherit;" fill="rgb(0, 0, 0)" stroke="rgb(204, 204, 204)" stroke-width="1px"></line><line x1="35.47466340612193" y1="0" x2="35.47466340612193" y2="5" style="visibility: inherit;" fill="rgb(0, 0, 0)" stroke="rgb(204, 204, 204)" stroke-width="1px"></line><line x1="62.940708848296616" y1="0" x2="62.940708848296616" y2="5" style="visibility: inherit;" fill="rgb(0, 0, 0)" stroke="rgb(204, 204, 204)" stroke-width="1px"></line><line x1="90.40675429047131" y1="0" x2="90.40675429047131" y2="5" style="visibility: inherit;" fill="rgb(0, 0, 0)" stroke="rgb(204, 204, 204)" stroke-width="1px"></line><line x1="117.872799732646" y1="0" x2="117.872799732646" y2="5" style="visibility: inherit;" fill="rgb(0, 0, 0)" stroke="rgb(204, 204, 204)" stroke-width="1px"></line><line x1="145.3388451748207" y1="0" x2="145.3388451748207" y2="5" style="visibility: inherit;" fill="rgb(0, 0, 0)" stroke="rgb(204, 204, 204)" stroke-width="1px"></line><line x1="172.80489061699538" y1="0" x2="172.80489061699538" y2="5" style="visibility: inherit;" fill="rgb(0, 0, 0)" stroke="rgb(204, 204, 204)" stroke-width="1px"></line><line x1="200.27093605917008" y1="0" x2="200.27093605917008" y2="5" style="visibility: inherit;" fill="rgb(0, 0, 0)" stroke="rgb(204, 204, 204)" stroke-width="1px"></line><line x1="227.73698150134476" y1="0" x2="227.73698150134476" y2="5" style="visibility: inherit;" fill="rgb(0, 0, 0)" stroke="rgb(204, 204, 204)" stroke-width="1px"></line><line x1="255.20302694351943" y1="0" x2="255.20302694351943" y2="5" style="visibility: inherit;" fill="rgb(0, 0, 0)" stroke="rgb(204, 204, 204)" stroke-width="1px"></line><line x1="282.6690723856941" y1="0" x2="282.6690723856941" y2="5" style="visibility: inherit;" fill="rgb(0, 0, 0)" stroke="rgb(204, 204, 204)" stroke-width="1px"></line></g><g transform="translate(0, 8)"><text x="8.008617963947234" y="0" dx="0em" dy="0.95em" style="text-anchor: middle; visibility: inherit; font-family: Roboto, sans-serif; font-size: 12px; font-weight: 200;" fill="rgb(33, 33, 33)" stroke="none" stroke-width="1px">0</text><text x="35.47466340612193" y="0" dx="0em" dy="0.95em" style="text-anchor: middle; visibility: inherit; font-family: Roboto, sans-serif; font-size: 12px; font-weight: 200;" fill="rgb(33, 33, 33)" stroke="none" stroke-width="1px">50</text><text x="62.940708848296616" y="0" dx="0em" dy="0.95em" style="text-anchor: middle; visibility: inherit; font-family: Roboto, sans-serif; font-size: 12px; font-weight: 200;" fill="rgb(33, 33, 33)" stroke="none" stroke-width="1px">100</text><text x="90.40675429047131" y="0" dx="0em" dy="0.95em" style="text-anchor: middle; visibility: inherit; font-family: Roboto, sans-serif; font-size: 12px; font-weight: 200;" fill="rgb(33, 33, 33)" stroke="none" stroke-width="1px">150</text><text x="117.872799732646" y="0" dx="0em" dy="0.95em" style="text-anchor: middle; visibility: inherit; font-family: Roboto, sans-serif; font-size: 12px; font-weight: 200;" fill="rgb(33, 33, 33)" stroke="none" stroke-width="1px">200</text><text x="145.3388451748207" y="0" dx="0em" dy="0.95em" style="text-anchor: middle; visibility: inherit; font-family: Roboto, sans-serif; font-size: 12px; font-weight: 200;" fill="rgb(33, 33, 33)" stroke="none" stroke-width="1px">250</text><text x="172.80489061699538" y="0" dx="0em" dy="0.95em" style="text-anchor: middle; visibility: inherit; font-family: Roboto, sans-serif; font-size: 12px; font-weight: 200;" fill="rgb(33, 33, 33)" stroke="none" stroke-width="1px">300</text><text x="200.27093605917008" y="0" dx="0em" dy="0.95em" style="text-anchor: middle; visibility: inherit; font-family: Roboto, sans-serif; font-size: 12px; font-weight: 200;" fill="rgb(33, 33, 33)" stroke="none" stroke-width="1px">350</text><text x="227.73698150134476" y="0" dx="0em" dy="0.95em" style="text-anchor: middle; visibility: inherit; font-family: Roboto, sans-serif; font-size: 12px; font-weight: 200;" fill="rgb(33, 33, 33)" stroke="none" stroke-width="1px">400</text><text x="255.20302694351943" y="0" dx="0em" dy="0.95em" style="text-anchor: middle; visibility: inherit; font-family: Roboto, sans-serif; font-size: 12px; font-weight: 200;" fill="rgb(33, 33, 33)" stroke="none" stroke-width="1px">450</text><text x="282.6690723856941" y="0" dx="0em" dy="0.95em" style="text-anchor: middle; visibility: hidden; font-family: Roboto, sans-serif; font-size: 12px; font-weight: 200;" fill="rgb(33, 33, 33)" stroke="none" stroke-width="1px">500</text></g><line x1="0" y1="0" x2="288.828125" y2="0" fill="rgb(0, 0, 0)" stroke="rgb(204, 204, 204)" stroke-width="1px"></line></g></g></g></g></svg>