<svg viewBox="0 0 330 200" xmlns="http://www.w3.org/2000/svg"><g><g><g><g><g><line x1="30.78125" y1="175.41964285714283" x2="25.78125" y2="175.41964285714283" style="visibility: inherit;" fill="rgb(0, 0, 0)" stroke="rgb(204, 204, 204)" stroke-width="1px"></line><line x1="30.78125" y1="159.87946428571428" x2="25.78125" y2="159.87946428571428" style="visibility: inherit;" fill="rgb(0, 0, 0)" stroke="rgb(204, 204, 204)" stroke-width="1px"></line><line x1="30.78125" y1="144.3392857142857" x2="25.78125" y2="144.3392857142857" style="visibility: inherit;" fill="rgb(0, 0, 0)" stroke="rgb(204, 204, 204)" stroke-width="1px"></line><line x1="30.78125" y1="128.79910714285714" x2="25.78125" y2="128.79910714285714" style="visibility: inherit;" fill="rgb(0, 0, 0)" stroke="rgb(204, 204, 204)" stroke-width="1px"></line><line x1="30.78125" y1="113.25892857142856" x2="25.78125" y2="113.25892857142856" style="visibility: inherit;" fill="rgb(0, 0, 0)" stroke="rgb(204, 204, 204)" stroke-width="1px"></line><line x1="30.78125" y1="97.71874999999999" x2="25.78125" y2="97.71874999999999" style="visibility: inherit;" fill="rgb(0, 0, 0)" stroke="rgb(204, 204, 204)" stroke-width="1px"></line><line x1="30.78125" y1="82.17857142857142" x2="25.78125" y2="82.17857142857142" style="visibility: inherit;" fill="rgb(0, 0, 0)" stroke="rgb(204, 204, 204)" stroke-width="1px"></line><line x1="30.78125" y1="66.63839285714286" x2="25.78125" y2="66.63839285714286" style="visibility: inherit;" fill="rgb(0, 0, 0)" stroke="rgb(204, 204, 204)" stroke-width="1px"></line><line x1="30.78125" y1="51.09821428571428" x2="25.78125" y2="51.09821428571428" style="visibility: inherit;" fill="rgb(0, 0, 0)" stroke="rgb(204, 204, 204)" stroke-width="1px"></line><line x1="30.78125" y1="35.55803571428571" x2="25.78125" y2="35.55803571428571" style="visibility: inherit;" fill="rgb(0, 0, 0)" stroke="rgb(204, 204, 204)" stroke-width="1px"></line><line x1="30.78125" y1="20.01785714285715" x2="25.78125" y2="20.01785714285715" style="visibility: inherit;" fill="rgb(0, 0, 0)" stroke="rgb(204, 204, 204)" stroke-width="1px"></line><line x1="30.78125" y1="4.477678571428575" x2="25.78125" y2="4.477678571428575" style="visibility: inherit;" fill="rgb(0, 0, 0)" stroke="rgb(204, 204, 204)" stroke-width="1px"></line></g><g transform="translate(20.78125, 0)"><text x="0" y="175.41964285714283" dx="0em" dy="0.3em" style="text-anchor: end; visibility: hidden; font-family: Roboto, sans-serif; font-size: 12px; font-weight: 200;" fill="rgb(33, 33, 33)" stroke="none" stroke-width="1px">24</text><text x="0" y="159.87946428571428" dx="0em" dy="0.3em" style="text-anchor: end; visibility: inherit; font-family: Roboto, sans-serif; font-size: 12px; font-weight: 200;" fill="rgb(33, 33, 33)" stroke="none" stroke-width="1px">26</text><text x="0" y="144.3392857142857" dx="0em" dy="0.3em" style="text-anchor: end; visibility: hidden; font-family: Roboto, sans-serif; font-size: 12px; font-weight: 200;" fill="rgb(33, 33, 33)" stroke="none" stroke-width="1px">28</text><text x="0" y="128.79910714285714" dx="0em" dy="0.3em" style="text-anchor: end; visibility: inherit; font-family: Roboto, sans-serif; font-size: 12px; font-weight: 200;" fill="rgb(33, 33, 33)" stroke="none" stroke-width="1px">30</text><text x="0" y="113.25892857142856" dx="0em" dy="0.3em" style="text-anchor: end; visibility: hidden; font-family: Roboto, sans-serif; font-size: 12px; font-weight: 200;" fill="rgb(33, 33, 33)" stroke="none" stroke-width="1px">32</text><text x="0" y="97.71874999999999" dx="0em" dy="0.3em" style="text-anchor: end; visibility: inherit; font-family: Roboto, sans-serif; font-size: 12px; font-weight: 200;" fill="rgb(33, 33, 33)" stroke="none" stroke-width="1px">34</text><text x="0" y="82.17857142857142" dx="0em" dy="0.3em" style="text-anchor: end; visibility: hidden; font-family: Roboto, sans-serif; font-size: 12px; font-weight: 200;" fill="rgb(33, 33, 33)" stroke="none" stroke-width="1px">36</text><text x="0" y="66.63839285714286" dx="0em" dy="0.3em" style="text-anchor: end; visibility: inherit; font-family: Roboto, sans-serif; font-size: 12px; font-weight: 200;" fill="rgb(33, 33, 33)" stroke="none" stroke-width="1px">38</text><text x="0" y="51.09821428571428" dx="0em" dy="0.3em" style="text-anchor: end; visibility: hidden; font-family: Roboto, sans-serif; font-size: 12px; font-weight: 200;" fill="rgb(33, 33, 33)" stroke="none" stroke-width="1px">40</text><text x="0" y="35.55803571428571" dx="0em" dy="0.3em" style="text-anchor: end; visibility: inherit; font-family: Roboto, sans-serif; font-size: 12px; font-weight: 200;" fill="rgb(33, 33, 33)" stroke="none" stroke-width="1px">42</text><text x="0" y="20.01785714285715" dx="0em" dy="0.3em" style="text-anchor: end; visibility: hidden; font-family: Roboto, sans-serif; font-size: 12px; font-weight: 200;" fill="rgb(33, 33, 33)" stroke="none" stroke-width="1px">44</text><text x="0" y="4.477678571428575" dx="0em" dy="0.3em" style="text-anchor: end; visibility: hidden; font-family: Roboto, sans-serif; font-size: 12px; font-weight: 200;" fill="rgb(33, 33, 33)" stroke="none" stroke-width="1px">46</text></g><line x1="30.78125" y1="0" x2="30.78125" y2="177" fill="rgb(0, 0, 0)" stroke="rgb(204, 204, 204)" stroke-width="1px"></line></g></g><g transform="translate(30, 0)" clip-path="url(#clip_0)"><clipPath id="clip_0"><rect width="299" height="177"></rect></clipPath><g><g><g><line x1="4.326616774582522" y1="0" x2="4.326616774582522" y2="177" fill="rgb(0, 0, 0)" stroke="rgb(66, 66, 66)" stroke-width="1px" opacity="0.25"></line><line x1="33.35769989765726" y1="0" x2="33.35769989765726" y2="177" fill="rgb(0, 0, 0)" stroke="rgb(66, 66, 66)" stroke-width="1px" opacity="0.25"></line><line x1="62.388783020732" y1="0" x2="62.388783020732" y2="177" fill="rgb(0, 0, 0)" stroke="rgb(66, 66, 66)" stroke-width="1px" opacity="0.25"></line><line x1="91.41986614380673" y1="0" x2="91.41986614380673" y2="177" fill="rgb(0, 0, 0)" stroke="rgb(66, 66, 66)" stroke-width="1px" opacity="0.25"></line><line x1="120.45094926688148" y1="0" x2="120.45094926688148" y2="177" fill="rgb(0, 0, 0)" stroke="rgb(66, 66, 66)" stroke-width="1px" opacity="0.25"></line><line x1="149.4820323899562" y1="0" x2="149.4820323899562" y2="177" fill="rgb(0, 0, 0)" stroke="rgb(66, 66, 66)" stroke-width="1px" opacity="0.25"></line><line x1="178.51311551303095" y1="0" x2="178.51311551303095" y2="177" fill="rgb(0, 0, 0)" stroke="rgb(66, 66, 66)" stroke-width="1px" opacity="0.25"></line><line x1="207.5441986361057" y1="0" x2="207.5441986361057" y2="177" fill="rgb(0, 0, 0)" stroke="rgb(66, 66, 66)" stroke-width="1px" opacity="0.25"></line><line x1="236.5752817591804" y1="0" x2="236.5752817591804" y2="177" fill="rgb(0, 0, 0)" stroke="rgb(66, 66, 66)" stroke-width="1px" opacity="0.25"></line><line x1="265.60636488225515" y1="0" x2="265.60636488225515" y2="177" fill="rgb(0, 0, 0)" stroke="rgb(66, 66, 66)" stroke-width="1px" opacity="0.25"></line><line x1="294.63744800532993" y1="0" x2="294.63744800532993" y2="177" fill="rgb(0, 0, 0)" stroke="rgb(66, 66, 66)" stroke-width="1px" opacity="0.25"></line></g><g><line x1="0" y1="175.41964285714283" x2="299.21875" y2="175.41964285714283" fill="rgb(0, 0, 0)" stroke="rgb(66, 66, 66)" stroke-width="1px" opacity="0.25"></line><line x1="0" y1="159.87946428571428" x2="299.21875" y2="159.87946428571428" fill="rgb(0, 0, 0)" stroke="rgb(66, 66, 66)" stroke-width="1px" opacity="0.25"></line><line x1="0" y1="144.3392857142857" x2="299.21875" y2="144.3392857142857" fill="rgb(0, 0, 0)" stroke="rgb(66, 66, 66)" stroke-width="1px" opacity="0.25"></line><line x1="0" y1="128.79910714285714" x2="299.21875" y2="128.79910714285714" fill="rgb(0, 0, 0)" stroke="rgb(66, 66, 66)" stroke-width="1px" opacity="0.25"></line><line x1="0" y1="113.25892857142856" x2="299.21875" y2="113.25892857142856" fill="rgb(0, 0, 0)" stroke="rgb(66, 66, 66)" stroke-width="1px" opacity="0.25"></line><line x1="0" y1="97.71874999999999" x2="299.21875" y2="97.71874999999999" fill="rgb(0, 0, 0)" stroke="rgb(66, 66, 66)" stroke-width="1px" opacity="0.25"></line><line x1="0" y1="82.17857142857142" x2="299.21875" y2="82.17857142857142" fill="rgb(0, 0, 0)" stroke="rgb(66, 66, 66)" stroke-width="1px" opacity="0.25"></line><line x1="0" y1="66.63839285714286" x2="299.21875" y2="66.63839285714286" fill="rgb(0, 0, 0)" stroke="rgb(66, 66, 66)" stroke-width="1px" opacity="0.25"></line><line x1="0" y1="51.09821428571428" x2="299.21875" y2="51.09821428571428" fill="rgb(0, 0, 0)" stroke="rgb(66, 66, 66)" stroke-width="1px" opacity="0.25"></line><line x1="0" y1="35.55803571428571" x2="299.21875" y2="35.55803571428571" fill="rgb(0, 0, 0)" stroke="rgb(66, 66, 66)" stroke-width="1px" opacity="0.25"></line><line x1="0" y1="20.01785714285715" x2="299.21875" y2="20.01785714285715" fill="rgb(0, 0, 0)" stroke="rgb(66, 66, 66)" stroke-width="1px" opacity="0.25"></line><line x1="0" y1="4.477678571428575" x2="299.21875" y2="4.477678571428575" fill="rgb(0, 0, 0)" stroke="rgb(66, 66, 66)" stroke-width="1px" opacity="0.25"></line></g></g></g><g><g><line x1="0" y1="361.90178571428567" x2="299.21875" y2="361.90178571428567" fill="rgb(0, 0, 0)" stroke="rgb(153, 153, 153)" stroke-width="1.5px"></line></g></g><g><g><line x1="4.326616774582522" y1="0" x2="4.326616774582522" y2="177" fill="rgb(0, 0, 0)" stroke="rgb(153, 153, 153)" stroke-width="1.5px"></line></g></g><g><g><g><g><g><path stroke="rgb(51, 187, 238)" stroke-width="2px" d="M4.326616774582522,115.45809349417684L4.9072384370440165,109.59657329320908L5.487860099505512,79.5250022326197L6.068481761967006,71.16577760662351L6.649103424428501,69.04887999807083L7.229725086889996,62.47923251560754L7.810346749351491,62.88533753156662L8.390968411812986,57.17766654491424L8.97159007427448,55.4110904591424L9.552211736735975,53.21386699165616L10.13283339919747,53.22803516898836L10.713455061658966,51.22703206539153L11.29407672412046,49.11126079729624L11.874698386581954,50.06106220824376L12.455320049043449,48.76562247957502L13.035941711504945,50.472621083259575L13.61656337396644,47.83443532671247L14.197185036427934,46.826271695750094L14.777806698889428,45.606148575033465L15.358428361350924,46.844026378222864L15.939050023812419,46.123049923351836L16.51967168627391,44.13553326470511L17.100293348735406,43.480684850897106L17.680915011196902,43.053535052708206L18.261536673658394,43.07511336462838L18.842158336119894,45.78962350743157L19.422779998581387,43.036610305309296L20.003401661042883,41.87458263976234L20.584023323504375,41.95200372593744L21.16464498596587,41.08436588730132L21.745266648427364,41.27877817835127L22.32588831088886,43.36067031111037L22.906509973350353,41.92138504981994L23.487131635811853,40.545738024371005L24.067753298273345,39.656344030584606L24.64837496073484,41.50585434266498L25.228996623196334,39.658092822347356L25.809618285657827,38.569603332451415L26.390239948119323,38.34866275957653L26.970861610580815,39.25083182539259L27.55148327304231,38.466691383293686L28.132104935503804,38.054539697510855L28.712726597965304,37.521573177405756L29.293348260426797,38.25568039076668L29.873969922888293,40.27639445236751L30.454591585349785,39.28239899873732L31.03521324781128,39.53265406404222L31.615834910272774,38.72806165048055L32.19645657273427,38.29874809299196L32.777078235195766,37.43849074840545L33.35769989765726,38.29726606607437L33.93832156011875,36.98427913870131L34.51894322258025,37.200773630823406L35.099564885041744,36.01441108328955L35.68018654750324,36.43687767641884L36.260808209964736,35.97697508335113L36.84142987242623,37.175697735377724L37.42205153488772,36.38026424816675L38.00267319734922,35.93144721644264L38.583294859810714,36.19201718909399L39.1639165222722,36.22340651920862L39.7445381847337,34.88054192917687L40.3251598471952,35.60385998657771L40.9057815096567,36.017730823584955L41.48640317211819,35.22466857944215L42.067024834579684,34.723654559680384L42.64764649704118,35.882569968700416L43.228268159502676,34.84894511529378L43.808889821964165,35.199978010995046L44.38951148442566,33.944701211793074L44.97013314688716,34.35270322220666L45.550754809348646,34.43175453799111L46.13137647181014,33.40032308442251L46.71199813427164,35.15249386855533L47.292619796733135,33.37041578122547L47.873241459194624,34.26751631498337L48.45386312165612,34.00410085065023L49.034484784117616,33.713742136955254L49.61510644657912,33.161479626383105L50.1957281090406,33.384080069405684L50.776349771502105,34.25657895633152L51.3569714339636,33.1070892385074L51.9375930964251,33.19690006971359L52.518214758886586,33.97434175014496L53.09883642134808,32.79942045041493L53.67945808380958,31.782186814716873L54.260079746271074,32.51688683884485L54.84070140873256,33.02999419825417L55.42132307119406,32.317376375198364L56.001944733655556,34.03880992106029L56.58256639611705,33.302509307861335L57.16318805857854,32.682073559079846L57.74380972104004,31.19165836913245L58.32443138350153,31.731590415750226L58.90505304596304,34.29066557543617L59.48567470842452,31.238105092729846L60.06629637088602,31.33135422638484L60.64691803334752,33.14043484415326L61.227539695809014,31.321454286575317L61.8081613582705,30.519885207925515L62.388783020732,31.971204527786796L62.969404683193495,31.14885743175233L63.550026345654985,32.690461831433424L64.13064800811648,30.083724686077662L64.71126967057798,32.75264768089566L65.29189133303947,30.983967116900846L65.87251299550097,31.208375632762902L66.45313465796247,31.44721909080233L67.03375632042396,30.70291553224835L67.61437798288546,29.92141309806278L68.19499964534694,31.290094596999037L68.77562130780844,30.058085620403283L69.35624297026993,31.969011127948754L69.93686463273143,31.69421369688851L70.51748629519292,29.636686086654656L71.09810795765442,29.581436123166768L71.67872962011592,29.394137561321266L72.25935128257741,30.1492302758353L72.8399729450389,29.176368526050016L73.42059460750039,30.062857747077942L74.0012162699619,29.016872789178578L74.5818379324234,29.062608139855524L75.1624595948849,28.524632368768955L75.74308125734639,28.646217857088367L76.32370291980787,30.580737233161926L76.90432458226937,29.769208933625894L77.48494624473086,28.35331005709512L78.06556790719236,29.41619012185506L78.64618956965386,28.7204081245831L79.22681123211535,29.811031733240398L79.80743289457685,30.185954902853275L80.38805455703834,29.048588165215083L80.96867621949983,27.258655335221967L81.54929788196132,27.862848068986622L82.12991954442282,27.979216822556086L82.71054120688432,29.62411849839347L83.29116286934581,28.251435526779716L83.87178453180731,27.46344181469508L84.4524061942688,26.827859750815794L85.03302785673029,29.095924104963032L85.61364951919178,28.854116593088428L86.19427118165328,26.84875633035387L86.77489284411477,29.16537188632148L87.35551450657627,27.37099297557558L87.93613616903777,28.154184920447218L88.51675783149926,26.338583384241367L89.09737949396076,27.1786258816719L89.67800115642224,26.44442974669592L90.25862281888374,26.014671581132067L90.83924448134523,27.428051011902948L91.41986614380673,27.177232776369372L92.00048780626823,26.08494929756436L92.58110946872974,26.239791469914575L93.16173113119123,26.544822250093738L93.74235279365273,26.799671598843165L94.32297445611421,25.867120981216424L94.9035961185757,26.685229480266578L95.4842177810372,28.396555602550507L96.0648394434987,26.1369091612952L96.6454611059602,26.14052530697414L97.22608276842169,25.765009326594207L97.80670443088319,25.380779027938843L98.38732609334468,24.839898484093805L98.96794775580616,25.258511807237355L99.54856941826766,24.842417929853717L100.12919108072916,24.751243633883345L100.70981274319065,24.196194912706098L101.29043440565215,25.718414400305065L101.87105606811365,25.45084926060268L102.45167773057514,24.486583266939434L103.03229939303662,24.943758930478772L103.61292105549812,24.987182319164283L104.19354271795962,24.647679592881875L104.77416438042111,25.45585851158415L105.35478604288261,25.06478124856948L105.9354077053441,24.857060355799543L106.5160293678056,24.321604030472887L107.0966510302671,24.521321977887826L107.67727269272858,24.108340357031132L108.25789435519007,23.526555870260516L108.83851601765157,24.045117088726595L109.41913768011307,23.738752484321594L109.99975934257456,24.086880607264373L110.58038100503606,23.307867978300358L111.16100266749757,24.43569046258927L111.74162432995907,23.56156134605407L112.32224599242053,23.583554625511177L112.90286765488204,23.35718983411789L113.48348931734354,23.43502588782992L114.06411097980504,23.02248887504849L114.64473264226653,24.33935871294566L115.22535430472803,22.528884989874694L115.80597596718953,22.46918894563402L116.38659762965102,23.358701501573833L116.9672192921125,22.61751019954682L117.547840954574,22.268700344221923L118.1284626170355,22.10226872137614L118.70908427949699,22.78409002508435L119.28970594195849,22.818769454956055L119.87032760441998,22.174473072801312L120.45094926688148,23.06371886389596L121.03157092934296,22.824252954551145L121.61219259180446,22.710581489971712L122.19281425426595,22.2042914543833L122.77343591672745,23.893505735056745L123.35405757918895,22.35966715642384L123.93467924165044,21.298861929348543L124.51530090411194,23.25747906310217L125.09592256657344,21.35808372497558L125.67654422903492,21.54271463836942L126.25716589149641,21.184805137770514L126.83778755395791,21.12745069605963L127.4184092164194,20.540034507002154L127.9990308788809,21.021426490374974L128.5796525413424,21.941113114356995L129.1602742038039,20.99027428456715L129.7408958662654,21.55477833747863L130.32151752872687,20.406711365495404L130.90213919118838,21.533555712018686L131.48276085364986,20.99442395993642L132.06338251611137,20.531201626573285L132.64400417857286,20.22667473554612L133.22462584103437,20.82974112885339L133.80524750349585,21.405449305261882L134.38586916595736,20.38222828081676L134.96649082841884,21.566189944744117L135.54711249088032,20.11718258687427L136.12773415334183,20.081080411161686L136.70835581580332,20.578152239322655L137.28897747826483,20.748259288924086L137.8695991407263,19.733248693602423L138.45022080318782,20.174892715045385L139.0308424656493,20.429593861103065L139.61146412811078,19.658228491033825L140.1920857905723,20.18983154637473L140.7727074530338,20.327541487557557L141.35332911549528,22.621867358684547L141.9339507779568,20.273121459143493L142.51457244041828,19.985193269593385L143.0951941028798,19.841733063970285L143.67581576534127,19.728832253387992L144.25643742780275,19.552352488040917L144.83705909026426,19.055636346340172L145.41768075272574,20.092847704887397L145.99830241518725,19.199807924883704L146.57892407764874,19.030738294124596L147.15954574011025,19.18910769053867L147.74016740257173,19.15588064704622L148.3207890650332,19.11376144204822L148.90141072749472,19.704467730862763L149.4820323899562,19.252805207456866L150.0626540524177,19.936908832618172L150.6432757148792,18.42722729274204L151.22389737734068,19.4074398960386L151.8045190398022,19.075673350266047L152.38514070226367,19.024780545915867L152.96576236472518,18.56490759338651L153.54638402718666,18.948634002889904L154.12700568964817,19.42054101399013L154.70762735210965,18.91638509716307L155.28824901457114,18.26755371264048L155.86887067703265,18.16917676585062L156.44949233949413,18.334215283393853L157.03011400195564,17.805161314351214L157.61073566441712,19.153450122901372L158.19135732687866,18.582751197474348L158.7719789893401,17.59708473512105L159.3526006518016,17.57191991806031L159.93322231426313,17.571504950523376L160.5138439767246,17.758744231292173L161.09446563918613,17.187393214021405L161.6750873016476,18.025271952152252L162.25570896410912,17.20381407226834L162.8363306265706,17.549926638603203L163.4169522890321,17.67829981020519L163.9975739514936,17.38951204504286L164.57819561395507,17.22432532480784L165.15881727641658,17.45973048039845L165.73943893887807,17.195603643144885L166.32006060133958,17.197945245674674L166.90068226380106,17.236270461763652L167.48130392626257,17.892749105181018L168.06192558872405,17.29667787892478L168.64254725118553,17.753912823540826L169.22316891364704,17.87271210125514L169.80379057610853,17.75785501514162L170.38441223857004,17.047934481075828L170.96503390103152,17.100546436650408L171.54565556349303,17.137389625821797L172.1262772259545,17.016070902347572L172.70689888841602,16.28187476737159L173.2875205508775,17.54198297432491L173.86814221333898,16.685993867261065L174.4487638758005,17.754090666770928L175.02938553826198,16.939301908016198L175.6100072007235,16.542948629174916L176.19062886318497,16.38197086538587L176.77125052564648,16.17751043183463L177.35187218810796,17.80341252258846L177.93249385056944,17.51628462757382L178.51311551303095,16.3477064030511L179.09373717549244,16.327491555895122L179.67435883795395,16.331611590726038L180.25498050041543,16.09386483260564L180.83560216287694,16.10352764810835L181.41622382533842,16.014635673591062L181.9968454877999,15.91898565632957L182.5774671502614,16.20024472475052L183.1580888127229,16.029663426535468L183.7387104751844,15.567982401166653L184.3193321376459,15.557726774896885L184.8999538001074,15.441031975405549L185.48057546256888,15.456089368888309L186.0611971250304,16.036391828741337L186.64181878749187,15.712746790477201L187.22244044995335,15.551620823996405L187.80306211241486,15.648663946560445L188.38368377487635,15.242499649524682L188.96430543733786,15.603639968803952L189.54492709979934,16.47868794202804L190.12554876226085,15.49482955251422L190.70617042472233,15.271814141954692L191.2867920871838,15.132385049547466L191.86741374964532,15.670153336865557L192.4480354121068,15.302195693765377L193.02865707456832,15.240009844303124L193.6092787370298,14.801804125308983L194.1899003994913,15.130517695631298L194.7705220619528,14.904508590698235L195.35114372441427,14.727762060505999L195.93176538687578,16.190937595708032L196.51238704933726,14.754319982869287L197.0930087117988,15.119521055902744L197.67363037426026,15.291969708033964L198.2542520367218,14.947843057768683L198.83487369918328,14.513875935758854L199.4154953616448,14.858802880559645L199.99611702410627,14.846235292298461L200.57673868656775,15.824550901140483L201.15736034902926,14.86072951555252L201.73798201149074,14.750288869653431L202.31860367395225,14.720766893454966L202.89922533641374,14.332031232970106L203.47984699887525,15.35827559232711L204.06046866133673,14.45927806411471L204.6410903237982,14.655528068542473L205.22171198625972,14.509103809084214L205.8023336487212,14.39211260420936L206.3829553111827,14.553772100380483L206.9635769736442,14.710629829338613L207.5441986361057,14.15842659984317L208.1248202985672,14.084888424192158L208.7054419610287,14.394276363509046L209.28606362349018,14.08159832443509L209.86668528595166,14.068763971328742L210.44730694841317,14.186851876122606L211.02792861087465,13.983102815491815L211.60855027333616,14.33935244594301L212.18917193579765,13.694018644945967L212.76979359825916,13.742125238691054L213.35041526072064,13.669535560267304L213.93103692318212,13.952839825834545L214.51165858564363,13.683763018676219L215.0922802481051,13.638590838227955L215.67290191056662,13.814003544194353L216.2535235730281,13.441718382494782L216.83414523548961,13.372774490288327L217.4147668979511,13.664822714669372L217.99538856041258,13.75463354587555L218.5760102228741,13.594871044158928L219.15663188533557,13.281896599701474L219.73725354779708,13.33510136604309L220.31787521025856,13.658420358385357L220.89849687272007,13.519702638898579L221.47911853518156,13.293486050197062L222.05974019764307,13.311803902898518L222.64036186010455,13.291648336819247L223.22098352256603,13.598813235759742L223.80160518502754,13.09302708932332L224.38222684748902,13.101148596831736L224.96284850995053,13.450551262923648L225.54347017241201,13.241585467542912L226.12409183487352,13.363467361245839L226.704713497335,13.095042645931237L227.2853351597965,13.116294911929538L227.865956822258,13.294167782579159L228.44657848471948,13.353715624128066L229.027200147181,13.228128663131175L229.60782180964247,12.990974715777812L230.18844347210398,12.923720334257402L230.76906513456547,12.924283504486084L231.34968679702698,13.262511687619341L231.93030845948846,12.974702060222626L232.51093012194994,12.908751862389703L233.09155178441145,13.055976416383473L233.67217344687293,13.486238471099302L234.25279510933447,12.828752049377988L234.83341677179592,13.090566924640116L235.41403843425746,12.835213686738692L235.99466009671895,13.073642177241187L236.5752817591804,12.741608866623471L237.15590342164194,12.953924042837965L237.73652508410342,12.780260128634321L238.31714674656493,12.890641493456702L238.8977684090264,12.785239739077436L239.47839007148792,12.727944578443257L240.0590117339494,12.60692226035255L240.6396333964109,12.776436499186923L241.2202550588724,12.737518472330908L241.80087672133388,12.888566655772077L242.3814983837954,12.558341417993821L242.96212004625687,12.53042003086636L243.54274170871838,12.496689098221918L244.12336337117986,12.415711147444586L244.70398503364137,12.763335381235393L245.28460669610286,12.644625025136138L245.86522835856434,12.421817098345066L246.44585002102585,12.606625854969032L247.02647168348733,12.429316154548093L247.60709334594884,12.513080315930498L248.18771500841032,12.74285376923425L248.76833667087183,12.381980214800144L249.34895833333331,12.320476097720007L249.9295799957948,12.353051049368714L250.5102016582563,12.346115163394389L251.0908233207178,12.459905190127234L251.6714449831793,12.502083676201964L252.25206664564078,12.348367844309116L252.8326883081023,12.293088240282874L253.41330997056377,12.322639857019695L253.99393163302526,12.18730115890503L254.57455329548677,12.141387964997982L255.15517495794825,12.322165608406074L255.73579662040976,12.349316341536378L256.31641828287127,12.31179141998291L256.8970399453328,12.615844062396457L257.47766160779423,12.273495844432285L258.05828327025574,12.202921722616471L258.63890493271725,12.153718428952356L259.2195265951787,12.230131736823484L259.8001482576402,12.125115309442796L260.3807699201017,12.231050593512391L260.96139158256324,12.248864557061873L261.5420132450247,12.028457513877317L262.1226349074862,11.958624405520307L262.7032565699477,12.136941884245195L263.28387823240917,12.017223749841953L263.8644998948707,12.069865345954888L264.4451215573322,12.148946302277697L265.0257432197937,11.953022343771803L265.60636488225515,12.070635999952046L266.18698654471666,11.920803078583303L266.76760820717817,11.993778084005632L267.3482298696397,12.134363157408576L267.92885153210113,11.989035597869327L268.50947319456264,11.906160652637475L269.09009485702416,11.93325210469109L269.6707165194856,12.077512604849684L270.2513381819471,12.140558029924117L270.83195984440863,12.260750412940979L271.41258150687014,11.96138097558703L271.9932031693316,12.012066296168735L272.5738248317931,12.002581323896145L273.1544464942546,11.79598677158355L273.73506815671607,12.021966235978258L274.3156898191776,12.016482736383168L274.8963114816391,11.941729298659732L275.4769331441006,11.918876443590428L276.05755480656205,11.9973645891462L276.63817646902356,11.97291114500591L277.2187981314851,12.022114438670027L277.7994197939465,11.896231072289599L278.38004145640804,11.940039787973667L278.96066311886955,11.92696831056049L279.54128478133106,12.164685428142555L280.1219064437925,12.085248785359521L280.702528106254,12.275363198348453L281.28314976871553,11.871273738997315L281.863771431177,11.73021441698075L282.4443930936385,12.057386679308747L283.0250147561,11.741507462092802L283.6056364185615,11.83282996075494L284.18625808102297,11.862292655876699L284.7668797434845,11.824560250554775L285.347501405946,11.738395205565855L285.92812306840744,11.86152200187956L286.50874473086895,11.979758109365193L287.08936639333047,11.971844085625234L287.669988055792,12.034474543162753L288.25060971825343,11.865138147558483L288.83123138071494,11.998994818755557L289.41185304317645,12.062247727598466L289.9924747056379,12.004537599427355L290.5730963680994,11.959691464900963L291.1537180305609,11.88722034863063L291.73433969302243,11.70333044869559L292.3149613554839,11.911703433309292L292.89558301794546,11.8243527667863L293.4762046804069,11.769280646528514L294.0568263428684,12.074844956398003" style="fill: none;" fill="none"></path></g><g><path stroke="rgb(204, 51, 17)" stroke-width="2px" d="M4.326616774582522,136.46551382541654L4.9072384370440165,127.32133364251679L5.487860099505512,95.57950342553002L6.068481761967006,89.14495751687457L6.649103424428501,85.32236548832483L7.229725086889996,83.38242189373287L7.810346749351491,80.58856402976171L8.390968411812986,80.90471001182281L8.97159007427448,78.46523442438671L9.552211736735975,76.19076771395547L10.13283339919747,75.78457377638135L10.713455061658966,74.8160691857338L11.29407672412046,74.53042331763676L11.874698386581954,72.52147654976163L12.455320049043449,71.88058882951736L13.035941711504945,71.92134456975118L13.61656337396644,70.97234345333915L14.197185036427934,69.9830904858453L14.777806698889428,69.62894533361707L15.358428361350924,70.38042190245218L15.939050023812419,68.80707248619623L16.51967168627391,68.4100078344345L17.100293348735406,68.91404518910817L17.680915011196902,67.77475181647708L18.261536673658394,66.37838605472018L18.842158336119894,67.54969120877129L19.422779998581387,67.35687950679232L20.003401661042883,67.26970668349946L20.584023323504375,66.1511616877147L21.16464498596587,65.91854274272919L21.745266648427364,65.98090643542152L22.32588831088886,65.37081523452487L22.906509973350353,64.49962053128651L23.487131635811853,65.22086375100271L24.067753298273345,64.48423709188188L24.64837496073484,64.04683166742325L25.228996623196334,65.17841850008283L25.809618285657827,63.93680598906107L26.390239948119323,64.43968736273901L26.970861610580815,63.943741875035414L27.55148327304231,64.4875568321773L28.132104935503804,63.343106005873L28.712726597965304,64.36887611661638L29.293348260426797,63.170657353741774L29.873969922888293,64.46165100165776L30.454591585349785,63.9460834775652L31.03521324781128,63.00469997950962L31.615834910272774,64.2988948055676L32.19645657273427,63.22489953892572L32.777078235195766,62.43248938662665L33.35769989765726,62.16501316853931L33.93832156011875,61.66681499992097L34.51894322258025,61.40040584121431L35.099564885041744,60.6064840214593L35.68018654750324,60.064566058771945L36.260808209964736,60.20014188119342L36.84142987242623,59.756245178835734L37.42205153488772,59.777260320527205L38.00267319734922,64.86989013637815L38.583294859810714,59.27263015508652L39.1639165222722,60.35726637499673L39.7445381847337,60.122276186943054L40.3251598471952,58.716484733990264L40.9057815096567,60.284291369574404L41.48640317211819,59.020270611558644L42.067024834579684,58.549045332840514L42.64764649704118,58.42565177168164L43.228268159502676,59.56064726625169L43.808889821964165,58.250031581946764L44.38951148442566,59.335023488317205L44.97013314688716,60.37700697353907L45.550754809348646,59.14310100248881L46.13137647181014,58.46154646362577L46.71199813427164,58.348793855735224L47.292619796733135,58.86344252313885L47.873241459194624,57.36579504183361L48.45386312165612,57.145565841879154L49.034484784117616,57.6074839915548L49.61510644657912,58.619441611426204L50.1957281090406,58.82908913918904L50.776349771502105,56.47862408842359L51.3569714339636,56.56143975257873L51.9375930964251,57.45634688649859L52.518214758886586,56.385434235845295L53.09883642134808,57.368107003825045L53.67945808380958,55.98386422225407L54.260079746271074,56.63497792822974L54.84070140873256,55.724509511675144L55.42132307119406,55.72557657105582L56.001944733655556,56.259669431618285L56.58256639611705,56.17113314356122L57.16318805857854,55.390282801219385L57.74380972104004,55.453120742525364L58.32443138350153,55.45398031813756L58.90505304596304,55.262176394462585L59.48567470842452,55.076626624379834L60.06629637088602,55.60040457759584L60.64691803334752,55.8319564632007L61.227539695809014,55.984664516789564L61.8081613582705,54.2966358576502L62.388783020732,54.31148576736449L62.969404683193495,54.78188111100877L63.550026345654985,54.39430143151964L64.13064800811648,55.031306241239825L64.71126967057798,54.49392328092029L65.29189133303947,54.60323758636201L65.87251299550097,54.267113881451735L66.45313465796247,53.606129876204896L67.03375632042396,54.175346774714335L67.61437798288546,53.4719175185476L68.19499964534694,53.18259622369494L68.77562130780844,53.362217886107295L69.35624297026993,53.635592571326654L69.93686463273143,53.45084309577942L70.51748629519292,53.37929083619799L71.09810795765442,53.17008791651045L71.67872962011592,53.013793357781L72.25935128257741,52.8361576114382L72.8399729450389,54.41490160567419L73.42059460750039,53.35131016799382L74.0012162699619,52.67203795058386L74.5818379324234,53.06996217795781L75.1624595948849,53.13709799732481L75.74308125734639,51.553433673722395L76.32370291980787,52.42166432312557L76.90432458226937,52.160353337015415L77.48494624473086,51.83644153390611L78.06556790719236,51.58203679323195L78.64618956965386,51.747371716158725L79.22681123211535,51.554708216871525L79.80743289457685,51.36121478251048L80.38805455703834,51.64324450492859L80.96867621949983,51.581117936543045L81.54929788196132,52.041228013379225L82.12991954442282,51.97029820510319L82.71054120688432,51.59454510041645L83.29116286934581,51.04254935468946L83.87178453180731,51.214019869055065L84.4524061942688,51.60032500539507L85.03302785673029,51.297902592590866L85.61364951919178,51.24134844541549L86.19427118165328,50.65271699428557L86.77489284411477,51.877760444368626L87.35551450657627,51.50108848299298L87.93613616903777,50.62280969108853L88.51675783149926,51.03937781708581L89.09737949396076,50.19228087152754L89.67800115642224,51.206342969621936L90.25862281888374,50.232443800994325L90.83924448134523,49.92430076428822L91.41986614380673,50.09340003558568L92.00048780626823,50.786277260099126L92.58110946872974,50.005011950220386L93.16173113119123,50.035571345261154L93.74235279365273,50.73861527442931L94.32297445611421,50.27272529261452L94.9035961185757,49.26832601002285L95.4842177810372,50.02279627323149L96.0648394434987,49.89217042071478L96.6454611059602,49.99244436195918L97.22608276842169,49.31213472570692L97.80670443088319,49.821122050285325L98.38732609334468,49.50245662246431L98.96794775580616,49.69612790005547L99.54856941826766,49.07062361921583L100.12919108072916,49.49961113078252L100.70981274319065,49.31699577399662L101.29043440565215,49.611415241445805L101.87105606811365,48.67480387006487L102.45167773057514,48.834210685321246L103.03229939303662,48.88949028934751L103.61292105549812,49.169237690312514L104.19354271795962,48.780116702829076L104.77416438042111,49.36910384041922L105.35478604288261,48.22240033320017L105.9354077053441,48.36817250081471L106.5160293678056,48.69854594128471L107.0966510302671,48.69297352007456L107.67727269272858,48.680228088583256L108.25789435519007,48.09491637774876L108.83851601765157,48.33458977086203L109.41913768011307,48.340251113687245L109.99975934257456,47.941230186394286L110.58038100503606,48.72302902596338L111.16100266749757,47.934383222035L111.74162432995907,48.786015169961104L112.32224599242053,48.35578275578363L112.90286765488204,47.411968733583166L113.48348931734354,47.82017822776522L114.06411097980504,47.88346077714647L114.64473264226653,47.941882278238026L115.22535430472803,47.610056451388765L115.80597596718953,48.2845861826624L116.38659762965102,47.73531736646379L116.9672192921125,47.336829968861174L117.547840954574,47.21331784554891L118.1284626170355,47.404351115226746L118.70908427949699,47.23854194368636L119.28970594195849,47.44581822838103L119.87032760441998,47.02530791078295L120.45094926688148,47.52276506594248L121.03157092934296,47.15163588523865L121.61219259180446,46.98929465668541L122.19281425426595,46.68601266826902L122.77343591672745,46.86435978753226L123.35405757918895,46.88768689121519L123.93467924165044,46.765152905668536L124.51530090411194,46.32078195469719L125.09592256657344,45.9647694485528L125.67654422903492,46.21929275138036L126.25716589149641,45.92656279461724L126.83778755395791,46.70981402056557L127.4184092164194,46.68900636264255L127.9990308788809,46.72267801421029L128.5796525413424,45.87006792851857L129.1602742038039,45.884651073387694L129.7408958662654,46.50861404623304L130.32151752872687,45.85115726505006L130.90213919118838,46.117714626448496L131.48276085364986,46.174239133085514L132.06338251611137,45.62117632797785L132.64400417857286,45.62511851957866L133.22462584103437,46.00398388079233L133.80524750349585,45.66445151397159L134.38586916595736,45.24571962867464L134.96649082841884,45.576241271836416L135.54711249088032,45.21699794701167L136.12773415334183,45.626215219497674L136.70835581580332,45.28514154468263L137.28897747826483,44.94362326179231L137.8695991407263,45.422881126403794L138.45022080318782,45.04188164642879L139.0308424656493,45.43918342249734L139.61146412811078,45.711194642952506L140.1920857905723,44.56143816028322L140.7727074530338,44.67167132241384L141.35332911549528,45.559672210897716L141.9339507779568,46.45274163143974L142.51457244041828,45.15771687030791L143.0951941028798,45.132137085710255L143.67581576534127,44.70202323368618L144.25643742780275,45.19212953533445L144.83705909026426,45.811231459890095L145.41768075272574,45.50483721494674L145.99830241518725,44.04358831473758L146.57892407764874,44.677421586854116L147.15954574011025,44.2097531727382L147.74016740257173,44.61573962654386L148.3207890650332,44.27451774903705L148.90141072749472,44.0351407613073L149.4820323899562,44.09860115391866L150.0626540524177,45.123985937663484L150.6432757148792,44.13781558615819L151.22389737734068,44.072369277477264L151.8045190398022,44.005381660802016L152.38514070226367,43.61383014917373L152.96576236472518,43.86580436570302L153.54638402718666,43.76873160260063L154.12700568964817,43.62319655929292L154.70762735210965,43.659180172852096L155.28824901457114,44.14771552596773L155.86887067703265,44.04756014687673L156.44949233949413,43.8392168028014L157.03011400195564,43.83165846552167L157.61073566441712,43.56978430918285L158.19135732687866,44.07159862348011L158.7719789893401,43.27583909034728L159.3526006518016,43.262204442705425L159.93322231426313,43.49200753654753L160.5138439767246,43.157099093709675L161.09446563918613,42.980085798672256L161.6750873016476,43.22186367000853L162.25570896410912,43.303345509937834L162.8363306265706,43.21593556233815L163.4169522890321,43.055520968777785L163.9975739514936,42.63151306765419L164.57819561395507,42.77710739203862L165.15881727641658,42.724169390542166L165.73943893887807,42.794002498899175L166.32006060133958,42.546089036124094L166.90068226380106,43.1614562528474L167.48130392626257,42.95518774645668L168.06192558872405,42.51007578202657L168.64254725118553,42.46662275280271L169.22316891364704,42.98992645740509L169.80379057610853,42.34130255665098L170.38441223857004,42.70259107862199L170.96503390103152,42.64455490452901L171.54565556349303,42.56295450244631L172.1262772259545,42.75790032318659L172.70689888841602,42.44486659765243L173.2875205508775,42.40428870064872L173.86814221333898,42.80680721146719L174.4487638758005,42.5322172641754L175.02938553826198,42.49261750493731L175.6100072007235,41.87974009343556L176.19062886318497,42.433217866080156L176.77125052564648,41.80964022023336L177.35187218810796,41.91711681229727L177.93249385056944,41.979658348219736L178.51311551303095,42.24734205007553L179.09373717549244,41.66760276045119L179.67435883795395,41.83430114814213L180.25498050041543,41.71621324334825L180.83560216287694,41.583720036915366L181.41622382533842,41.709603403295795L181.9968454877999,42.06594195536205L182.5774671502614,41.638999640941606L183.1580888127229,41.68393469708306L183.7387104751844,42.74219083786011L184.3193321376459,41.87828770705632L184.8999538001074,42.221288016864236L185.48057546256888,42.067868590354905L186.0611971250304,41.298904103892184L186.64181878749187,41.49859241076879L187.22244044995335,41.27747399466378L187.80306211241486,41.50022264037813L188.38368377487635,40.94914575134004L188.96430543733786,41.61579109941209L189.54492709979934,41.526187751974376L190.12554876226085,41.261883071490686L190.70617042472233,41.35865942920957L191.2867920871838,41.51445009878704L191.86741374964532,41.66967759813581L192.4480354121068,40.91514805385044L193.02865707456832,40.817749244826175L193.6092787370298,40.79477782760347L194.1899003994913,40.904684943812235L194.7705220619528,41.170856978212086L195.35114372441427,41.60280854361398L195.93176538687578,40.91713396992002L196.51238704933726,40.855481650148114L197.0930087117988,40.50216643299375L197.67363037426026,41.18478803123747L198.2542520367218,40.906611578805105L198.83487369918328,41.06050525392804L199.4154953616448,41.177170412881026L199.99611702410627,40.99393260478973L200.57673868656775,41.01308039256505L201.15736034902926,40.469472919191624L201.73798201149074,40.98379554067339L202.31860367395225,40.587471902370446L202.89922533641374,40.32894712686539L203.47984699887525,41.166055210999076L204.06046866133673,40.42314475774764L204.6410903237982,40.46864298411778L205.22171198625972,40.518261245318826L205.8023336487212,40.754199930599746L206.3829553111827,40.523952228682376L206.9635769736442,40.435356659548624L207.5441986361057,40.40764275618962L208.1248202985672,40.28528661387307L208.7054419610287,40.192126401833114L209.28606362349018,40.880735388823915L209.86668528595166,40.143426997320994L210.44730694841317,40.22221154826028L211.02792861087465,40.53148092542375L211.60855027333616,40.39104405471256L212.18917193579765,40.49576407670975L212.76979359825916,40.25603140251977L213.35041526072064,40.26287836687905L213.93103692318212,40.83923863513128L214.51165858564363,41.046959527901244L215.0922802481051,40.85645978791373L215.67290191056662,40.380551304136L216.2535235730281,40.34029945305414L216.83414523548961,40.38203333105359L217.4147668979511,40.20413081986563L217.99538856041258,40.45361523117337L218.5760102228741,39.94400545528957L219.15663188533557,40.79954995427813L219.73725354779708,39.98956296273639L220.31787521025856,39.50271712030684L220.89849687272007,39.92272354875291L221.47911853518156,40.15723948819297L222.05974019764307,39.90885177680425L222.64036186010455,40.076528302260805L223.22098352256603,39.435433098248076L223.80160518502754,39.439760616847444L224.38222684748902,39.742894402572084L224.96284850995053,39.25501114130019L225.54347017241201,40.036365372794016L226.12409183487352,39.52945288590023L226.704713497335,39.641108793871744L227.2853351597965,39.642057291099L227.865956822258,39.72430978502547L228.44657848471948,39.61496583904539L229.027200147181,39.243955220494946L229.60782180964247,39.48448818922042L230.18844347210398,39.48917139428002L230.76906513456547,39.19072081361497L231.34968679702698,39.591134846210466L231.93030845948846,39.470112528119756L232.51093012194994,39.33044631140572L233.09155178441145,39.400961152144845L233.67217344687293,39.472424490111216L234.25279510933447,39.27235085623605L234.83341677179592,39.488963910511565L235.41403843425746,39.30901620217732L235.99466009671895,39.40949762719018L236.5752817591804,39.443021076066145L237.15590342164194,39.246445025716504L237.73652508410342,39.34953481810434L238.31714674656493,39.56253172670091L238.8977684090264,39.34105762413569L239.47839007148792,39.90736974988664L240.0590117339494,39.18897202185222L240.6396333964109,39.343962396894185L241.2202550588724,39.31177277224404L241.80087672133388,39.19655999967029L242.3814983837954,39.20094679934637L242.96212004625687,39.40241353852408L243.54274170871838,39.080191246100824L244.12336337117986,38.83381909132004L244.70398503364137,39.14276242256164L245.28460669610286,38.96343716553278L245.86522835856434,39.09670102596282L246.44585002102585,39.01770899125508L247.02647168348733,39.40525903020586L247.60709334594884,39.16626736947469L248.18771500841032,39.09661210434776L248.76833667087183,38.89888007300241L249.34895833333331,38.781770305974135L249.9295799957948,39.145933960165294L250.5102016582563,38.6667946577072L251.0908233207178,38.75550878899437L251.6714449831793,39.003807578768054L252.25206664564078,38.76564585311072L252.8326883081023,38.97517481872014L253.41330997056377,38.82969905648912L253.99393163302526,39.15020219768796L254.57455329548677,39.12275505917412L255.15517495794825,38.49653940541404L255.73579662040976,38.68149636472974L256.31641828287127,38.73505681753158L256.8970399453328,38.48832897629057L257.47766160779423,38.77438981192453L258.05828327025574,38.6729006086077L258.63890493271725,38.81064019032886L259.2195265951787,38.723526648112696L259.8001482576402,38.96420781952994L260.3807699201017,38.80204443420683L260.96139158256324,38.85895426784242L261.5420132450247,39.056627018111094L262.1226349074862,38.97194400003978L262.7032565699477,38.8523740683283L263.28387823240917,38.49929597548076L263.8644998948707,38.7399178658213L264.4451215573322,38.76736500433512L265.0257432197937,38.68247450249535L265.60636488225515,39.08671216453824L266.18698654471666,38.57404941320418L266.76760820717817,38.81274466855186L267.3482298696397,38.70378604957036L267.92885153210113,38.78434903281076L268.50947319456264,38.706335135868606L269.09009485702416,38.54731364761079L269.6707165194856,38.670025476387565L270.2513381819471,38.65339713437217L270.83195984440863,38.53510174580983L271.41258150687014,38.7115222300802L271.9932031693316,39.03573043857301L272.5738248317931,39.182243619646336L273.1544464942546,38.509729444980614L273.73506815671607,38.742140906197676L274.3156898191776,38.475464982645846L274.8963114816391,38.94452650206429L275.4769331441006,38.56758777584348L276.05755480656205,39.083540626934585L276.63817646902356,38.710395889622816L277.2187981314851,38.67829518658775L277.7994197939465,38.90839468581335L278.38004145640804,38.90300010783332L278.96066311886955,38.67032188177108L279.54128478133106,38.431004175118034L280.1219064437925,38.661815047264085L280.702528106254,39.00650486775807L281.28314976871553,38.57256738628659L281.863771431177,38.91986557415552L282.4443930936385,38.46986292089734L283.0250147561,38.37074496064867L283.6056364185615,38.28493560211998L284.18625808102297,38.433286496571135L284.7668797434845,38.41108573334557L285.347501405946,38.92114011730466L285.92812306840744,38.48832897629057L286.50874473086895,38.636027778897954L287.08936639333047,38.62648352554866L287.669988055792,38.62855836323328L288.25060971825343,39.30738597256796L288.83123138071494,38.748187576021465L289.41185304317645,38.58335654224669L289.9924747056379,38.496154078415465L290.5730963680994,39.02099909101213L291.1537180305609,38.56800274338041L291.73433969302243,39.040028316634036L292.3149613554839,38.38443888936724L292.89558301794546,38.55890309810638L293.4762046804069,38.844548966203405L294.0568263428684,38.44763251713344" style="fill: none;" fill="none"></path></g><g><path stroke="rgb(0, 119, 187)" stroke-width="2px" d="M4.326616774582522,161.30244725091114L4.9072384370440165,150.85623231955935L5.487860099505512,118.60368080650055L6.068481761967006,114.60450527071953L6.649103424428501,111.83760547637937L7.229725086889996,110.09305231060299L7.810346749351491,108.83104710919515L8.390968411812986,107.48895317316055L8.97159007427448,106.38543593032018L9.552211736735975,104.23397745404924L10.13283339919747,102.61421095473423L10.713455061658966,102.29237398930957L11.29407672412046,100.40587228536604L11.874698386581954,99.88885237489428L12.455320049043449,98.7711669547217L13.035941711504945,98.38252021585193L13.61656337396644,97.79003549473624L14.197185036427934,97.33896578209739L14.777806698889428,97.22979967934744L15.358428361350924,97.39463071312223L15.939050023812419,95.14334290368215L16.51967168627391,94.66168415546414L17.100293348735406,94.73409599065779L17.680915011196902,93.73423171043393L18.261536673658394,95.0230319585119L18.842158336119894,93.14773437806537L19.422779998581387,94.58500408274786L20.003401661042883,93.06331812483921L20.584023323504375,93.92117458581923L21.16464498596587,93.52378388813563L21.745266648427364,92.91870193822042L22.32588831088886,91.42407779182706L22.906509973350353,91.04124059847423L23.487131635811853,93.89085231508527L24.067753298273345,90.81739525284085L24.64837496073484,92.91259598731995L25.228996623196334,89.41886573178425L25.809618285657827,90.33081617525644L26.390239948119323,89.88113956792013L26.970861610580815,89.19792515890937L27.55148327304231,91.01782457317624L28.132104935503804,89.67792403697966L28.712726597965304,89.70667535918099L29.293348260426797,88.73654053892407L29.873969922888293,87.97777239765439L30.454591585349785,88.42987952913555L31.03521324781128,88.94372790200369L31.615834910272774,87.87737989425658L32.19645657273427,88.2059749024255L32.777078235195766,87.01801176582063L33.35769989765726,86.87247672251291L33.93832156011875,87.44053764002662L34.51894322258025,87.4417825426374L35.099564885041744,86.96534052916934L35.68018654750324,86.968512066773L36.260808209964736,86.34019193478993L36.84142987242623,87.1430651971272L37.42205153488772,86.54607511418205L38.00267319734922,86.08347523212431L38.583294859810714,85.77536183595656L39.1639165222722,86.3581244604928L39.7445381847337,86.67050609418322L40.3251598471952,85.89356830290386L40.9057815096567,85.81315352235521L41.48640317211819,85.64731471027646L42.067024834579684,86.90478490931648L42.64764649704118,85.02367778335298L43.228268159502676,85.34498121908732L43.808889821964165,84.60426416567392L44.38951148442566,85.6203714609146L44.97013314688716,84.45837343590598L45.550754809348646,84.56012940406798L46.13137647181014,83.97434344461985L46.71199813427164,84.03386164563041L47.292619796733135,83.60262145314897L47.873241459194624,83.15902115617479L48.45386312165612,83.40518582718711L49.034484784117616,83.20363016639436L49.61510644657912,83.10904720851353L50.1957281090406,83.25155891690935L50.776349771502105,82.8340422936848L51.3569714339636,82.9070469396455L51.9375930964251,82.95817686830246L52.518214758886586,82.36035685028347L53.09883642134808,82.83679886375153L53.67945808380958,82.21550353935787L54.260079746271074,82.50420238290513L54.84070140873256,82.33708902767725L55.42132307119406,82.6318345410483L56.001944733655556,82.18841208730424L56.58256639611705,82.16662629161561L57.16318805857854,81.63469719035284L57.74380972104004,82.00882006543023L58.32443138350153,81.70719794716153L58.90505304596304,82.36735201733453L59.48567470842452,81.87051731348036L60.06629637088602,80.98598436798366L60.64691803334752,80.64914929015296L61.227539695809014,81.2890588726316L61.8081613582705,81.04239031246729L62.388783020732,81.91737900461469L62.969404683193495,81.27791403021129L63.550026345654985,80.47684884071349L64.13064800811648,80.75440284184046L64.71126967057798,79.96614236491065L65.29189133303947,80.89475079093658L65.87251299550097,80.58293232747485L66.45313465796247,81.1578105688095L67.03375632042396,80.46934978451046L67.61437798288546,80.26038398912975L68.19499964534694,79.92826175689697L68.77562130780844,79.89743559701101L69.35624297026993,80.25075081416539L69.93686463273143,79.75619843176433L70.51748629519292,79.88958085434776L71.09810795765442,79.62216391733713L71.67872962011592,79.151442527771L72.25935128257741,79.25097545555658L72.8399729450389,78.81934993607656L73.42059460750039,79.15156108992439L74.0012162699619,79.04319528170994L74.5818379324234,78.7529847707067L75.1624595948849,79.61878489596502L75.74308125734639,78.57760170527867L76.32370291980787,79.17648878267832L76.90432458226937,78.83769742931638L77.48494624473086,80.06588277646473L78.06556790719236,78.30307103906358L78.64618956965386,78.78677498442786L79.22681123211535,78.49555669512065L79.80743289457685,78.19909203052521L80.38805455703834,79.0929913861411L80.96867621949983,78.03346070221491L81.54929788196132,78.21948472091128L82.12991954442282,78.0055689556258L82.71054120688432,77.69253523009162L83.29116286934581,77.56265039103371L83.87178453180731,78.55501561505453L84.4524061942688,77.28850505181721L85.03302785673029,78.12347901718957L85.61364951919178,77.65216481685637L86.19427118165328,78.18859927994865L86.77489284411477,77.33717481579097L87.35551450657627,76.9559678520475L87.93613616903777,77.07992458343506L88.51675783149926,76.8675204856055L89.09737949396076,76.54802512271063L89.67800115642224,76.77468631948743L90.25862281888374,77.20601543358394L90.83924448134523,77.30320675883972L91.41986614380673,79.56249751363481L92.00048780626823,76.70132598706653L92.58110946872974,76.37201960597717L93.16173113119123,76.3312935062817L93.74235279365273,76.99580473559242L94.32297445611421,76.69898438453674L94.9035961185757,76.16661067519867L95.4842177810372,75.97554776498248L96.0648394434987,76.62832134110586L96.6454611059602,76.33855543817792L97.22608276842169,76.42961117199488L97.80670443088319,75.87601483719688L98.38732609334468,75.6061080949647L98.96794775580616,75.48831659555435L99.54856941826766,75.63841628176826L100.12919108072916,75.83638543742042L100.70981274319065,76.02623308556419L101.29043440565215,75.51357033423015L101.87105606811365,76.01061252185276L102.45167773057514,75.82233582224164L103.03229939303662,75.65824580192566L103.61292105549812,74.70343513999666L104.19354271795962,75.48733845778872L104.77416438042111,75.22641279867716L105.35478604288261,74.72121946300778L105.9354077053441,75.08505707127708L106.5160293678056,74.99945519651685L107.0966510302671,74.8185886314937L107.67727269272858,75.05177074670792L108.25789435519007,74.8243092553956L108.83851601765157,74.70260520492279L109.41913768011307,75.22884332282203L109.99975934257456,74.56015277760368L110.58038100503606,74.41298750468661L111.16100266749757,74.26872700452805L111.74162432995907,74.25524055957794L112.32224599242053,74.19195801019667L112.90286765488204,75.13236337048667L113.48348931734354,74.51139409201485L114.06411097980504,73.98076917443956L114.64473264226653,73.79818345819199L115.22535430472803,73.82500814540045L115.80597596718953,74.19210621288845L116.38659762965102,74.41180188315255L116.9672192921125,74.18188022715705L117.547840954574,74.27346949066433L118.1284626170355,73.38567608594894L118.70908427949699,73.619688136237L119.28970594195849,73.69799843856265L119.87032760441998,73.33688775982175L120.45094926688148,73.57487164224897L121.03157092934296,73.36596512794493L121.61219259180446,73.35526489359992L122.19281425426595,73.281904561179L122.77343591672745,73.44347513573508L123.35405757918895,73.8115513409887L123.93467924165044,73.01511007547379L124.51530090411194,73.3928490962301L125.09592256657344,74.28147243601936L125.67654422903492,73.08565455675125L126.25716589149641,72.51741579600743L126.83778755395791,72.95748886891774L127.4184092164194,72.98309829405375L127.9990308788809,72.83928240197045L128.5796525413424,72.7413204227175L129.1602742038039,72.93463601384843L129.7408958662654,73.08372792175837L130.32151752872687,72.70136497701917L130.90213919118838,72.43145823478699L131.48276085364986,72.79523656197955L132.06338251611137,72.21964694772446L132.64400417857286,72.38012082236153L133.22462584103437,73.29847362211771L133.80524750349585,72.31826101882118L134.38586916595736,73.08820364304951L134.96649082841884,71.99728362900869L135.54711249088032,72.46204727036613L136.12773415334183,72.61715620756148L136.70835581580332,71.70573929377964L137.28897747826483,71.77112632138389L137.8695991407263,71.73949986696242L138.45022080318782,72.57133193526947L139.0308424656493,71.79483875206537L139.61146412811078,71.5543650644166L140.1920857905723,71.54784414597918L140.7727074530338,71.47581763778412L141.35332911549528,71.71741766589027L141.9339507779568,71.42919307095663L142.51457244041828,71.18436222417013L143.0951941028798,71.8747200029237L143.67581576534127,71.017900960786L144.25643742780275,71.50824438674108L144.83705909026426,71.55694379125322L145.41768075272574,71.45053425856999L145.99830241518725,71.032810151577L146.57892407764874,71.26551801817756L147.15954574011025,70.894833445549L147.74016740257173,70.6555453794343L148.3207890650332,70.9713949561119L148.90141072749472,70.37393062455313L149.4820323899562,70.93209160225732L150.0626540524177,70.49519006695064L150.6432757148792,70.70854266200746L151.22389737734068,70.73732362474712L151.8045190398022,70.4762497629438L152.38514070226367,70.03834044933318L152.96576236472518,70.63064732721872L153.54638402718666,70.4428152356829L154.12700568964817,70.76601566587175L154.70762735210965,70.7707285114697L155.28824901457114,70.16247502395083L155.86887067703265,70.69363347121647L156.44949233949413,70.53428593703678L157.03011400195564,70.46033279384883L157.61073566441712,70.45745766162872L158.19135732687866,70.44240026814596L158.7719789893401,70.08875900506972L159.3526006518016,70.06030408825193L159.93322231426313,69.853679895401L160.5138439767246,70.20675798824854L161.09446563918613,70.50743160928998L161.6750873016476,70.48152577877043L162.25570896410912,70.34938825879777L162.8363306265706,69.59269495521272L163.4169522890321,69.93563598394392L163.9975739514936,70.01065618651252L164.57819561395507,70.2441050665719L165.15881727641658,69.92787016289573L165.73943893887807,69.17265888622829L166.32006060133958,69.14616024494171L166.90068226380106,69.24252163512365L167.48130392626257,69.36650800704956L168.06192558872405,69.1901468038559L168.64254725118553,69.03032502106257L169.22316891364704,69.12001729011536L169.80379057610853,69.37368101733071L170.38441223857004,69.34039469276155L170.96503390103152,69.66590708494186L171.54565556349303,69.47973486355372L172.1262772259545,69.27977979183197L172.70689888841602,69.21131014823914L173.2875205508775,69.2454560484205L173.86814221333898,68.93805402517319L174.4487638758005,68.67416431222644L175.02938553826198,68.71981074128831L175.6100072007235,69.37258431741168L176.19062886318497,68.99727582080023L176.77125052564648,68.98453038930892L177.35187218810796,68.65842518636157L177.93249385056944,69.32026876722061L178.51311551303095,68.05731506858554L179.09373717549244,69.14008393457956L179.67435883795395,68.5111413512911L180.25498050041543,68.61067427907672L180.83560216287694,68.82989570072718L181.41622382533842,69.26747896841593L181.9968454877999,69.88530634982244L182.5774671502614,69.22761244433265L183.1580888127229,68.81575716393334L183.7387104751844,68.16680721725736L184.3193321376459,68.06235396010534L184.8999538001074,68.31791468177522L185.48057546256888,68.57632089512688L186.0611971250304,68.08496969086784L186.64181878749187,68.31059346880231L187.22244044995335,69.04241836071013L187.80306211241486,68.4622937440872L188.38368377487635,68.406006361757L188.96430543733786,68.38751066582543L189.54492709979934,67.74457774843486L190.12554876226085,67.8347442661013L190.70617042472233,68.00001990795135L191.2867920871838,67.73055777379443L191.86741374964532,68.59191181829998L192.4480354121068,67.51424112490244L193.02865707456832,68.0333655135972L193.6092787370298,67.53448561259677L194.1899003994913,67.9959295136588L194.7705220619528,67.65206962823868L195.35114372441427,67.07517583029609L195.93176538687578,67.25722801685332L196.51238704933726,67.65272172008243L197.0930087117988,67.72276231220789L197.67363037426026,67.42932098252432L198.2542520367218,67.47069917406353L198.83487369918328,67.16786179372241L199.4154953616448,67.11305643830981L199.99611702410627,67.22687610558101L200.57673868656775,66.95035952329634L201.15736034902926,67.83290655272347L201.73798201149074,66.8609636596271L202.31860367395225,66.74895206519534L202.89922533641374,67.75409236124584L203.47984699887525,67.10641695771898L204.06046866133673,67.54897983585084L204.6410903237982,67.29916937862124L205.22171198625972,66.6803045783724L205.8023336487212,67.6878457580294L206.3829553111827,66.66456545250756L206.9635769736442,67.54690499816623L207.5441986361057,67.30139241899761L208.1248202985672,67.00697295154842L208.7054419610287,66.95133766106196L209.28606362349018,66.79519130502428L209.86668528595166,66.64521018096379L210.44730694841317,66.47285045044762L211.02792861087465,67.03607996020997L211.60855027333616,66.51117566653659L212.18917193579765,67.8761224576405L212.76979359825916,66.53645904575075L213.35041526072064,67.19427151339394L213.93103692318212,66.16873852695737L214.51165858564363,67.32208151476723L215.0922802481051,66.69571765831537L215.67290191056662,66.39270243474414L216.2535235730281,66.52768544639858L216.83414523548961,66.85195293596811L217.4147668979511,66.506492461477L217.99538856041258,66.31160592181342L218.5760102228741,66.26584093059812L219.15663188533557,66.01244396822793L219.73725354779708,66.0081460901669L220.31787521025856,65.98114355972834L220.89849687272007,67.23289313486643L221.47911853518156,67.08878083739963L222.05974019764307,66.16793823242186L222.64036186010455,66.4243881702423L223.22098352256603,66.2909168260438L223.80160518502754,66.47572558266775L224.38222684748902,66.02776812655586L224.96284850995053,67.30281516483852L225.54347017241201,66.36321009908403L226.12409183487352,66.95593194450649L226.704713497335,67.48670506477356L227.2853351597965,66.29299166372843L227.865956822258,66.0555709515299L228.44657848471948,65.93656419004712L229.027200147181,65.85280002866472L229.60782180964247,65.70216681276048L230.18844347210398,65.97334809814181L230.76906513456547,65.62575350488933L231.34968679702698,66.37417709827423L231.93030845948846,65.58926600217819L232.51093012194994,66.64239432982036L233.09155178441145,65.96721250670295L233.67217344687293,65.861247582095L234.25279510933447,65.6825744169099L234.83341677179592,65.65622397831507L235.41403843425746,65.76121076515741L235.99466009671895,65.49595758744647L236.5752817591804,65.4863244124821L237.15590342164194,65.7341785941805L237.73652508410342,65.82286308492932L238.31714674656493,65.57729122468402L238.8977684090264,65.60393806866236L239.47839007148792,65.8919848203659L240.0590117339494,65.47589094298226L240.6396333964109,66.31620020525796L241.2202550588724,65.50304167611259L241.80087672133388,65.9220996073314L242.3814983837954,65.7466276202883L242.96212004625687,65.65373417309351L243.54274170871838,65.51563890491212L244.12336337117986,66.11754931722368L244.70398503364137,65.20304978745324L245.28460669610286,65.32371641908372L245.86522835856434,65.48333071810858L246.44585002102585,65.39301599775041L247.02647168348733,65.67445290940148L247.60709334594884,65.76156645161764L248.18771500841032,65.17166045733859L248.76833667087183,65.37606160981315L249.34895833333331,65.45947008473533L249.9295799957948,65.1637167930603L250.5102016582563,66.29539254733494L251.0908233207178,65.20799975735801L251.6714449831793,65.96848704985209L252.25206664564078,65.90541198423931L252.8326883081023,65.97708280597415L253.41330997056377,65.03140142985751L253.99393163302526,65.82105501208986L254.57455329548677,65.44429412909915L255.15517495794825,65.61202993563242L255.73579662040976,65.55280814000538L256.31641828287127,65.27457240649632L256.8970399453328,65.10479140281676L257.47766160779423,65.805819775377L258.05828327025574,65.13671426262174L258.63890493271725,65.19160853964941L259.2195265951787,65.54329352719442L259.8001482576402,64.89499567236217L260.3807699201017,65.20382044145038L260.96139158256324,65.03658852406909L261.5420132450247,65.62222628082547L262.1226349074862,65.28592473268507L262.7032565699477,65.07852988583701L263.28387823240917,65.43258611645017L263.8644998948707,65.10805186203548L264.4451215573322,64.7366262759481L265.0257432197937,65.5695550441742L265.60636488225515,65.25293481349944L266.18698654471666,65.42648016554969L266.76760820717817,65.12210147721427L267.3482298696397,64.88144994633538L267.92885153210113,64.81600363765443L268.50947319456264,64.73206163304192L269.09009485702416,65.37007422106606L269.6707165194856,65.2655913233757L270.2513381819471,65.0657844543457L270.83195984440863,64.79486993380954L271.41258150687014,65.13935227053504L271.9932031693316,64.97401734760828L272.5738248317931,64.98373944418769L273.1544464942546,64.8778041601181L273.73506815671607,64.927748467241L274.3156898191776,65.5444198676518L274.8963114816391,64.73301013026918L275.4769331441006,65.08872623103005L276.05755480656205,64.66077613830566L276.63817646902356,65.72089963299888L277.2187981314851,65.87849837541579L277.7994197939465,64.63427749701907L278.38004145640804,64.63463318347931L278.96066311886955,64.95478063821791L279.54128478133106,64.5912097947938L280.1219064437925,64.81490693773542L280.702528106254,64.9299122265407L281.28314976871553,64.86259856394358L281.863771431177,65.12450236082077L282.4443930936385,64.86621470962251L283.0250147561,64.79795254979814L283.6056364185615,64.68514066083091L284.18625808102297,64.87973079511096L284.7668797434845,65.01785570383072L285.347501405946,64.93889330966131L285.92812306840744,64.95074952500205L286.50874473086895,64.94799295493533L287.08936639333047,65.08685887711388L287.669988055792,64.62114673852919L288.25060971825343,64.80399921962193L288.83123138071494,64.65612257378442L289.41185304317645,64.66658568382262L289.9924747056379,64.83936038187571L290.5730963680994,65.1874885048185L291.1537180305609,64.61459617955343L291.73433969302243,64.47027639831815L292.3149613554839,65.0113347853933L292.89558301794546,64.77501077311379L293.4762046804069,64.64643011774335L294.0568263428684,65.53970702205385" style="fill: none;" fill="none"></path></g><g><path stroke="rgb(255, 112, 67)" stroke-width="2px" d="M4.9072384370440165,178.5709359730993L5.487860099505512,149.34388313123156L6.068481761967006,144.96521978293146L6.649103424428501,142.5834839642048L7.229725086889996,139.99705058762004L7.810346749351491,137.90534743666646L8.390968411812986,137.38957242880545L8.97159007427448,135.32869543773785L9.552211736735975,134.9912082680634L10.13283339919747,133.59977765594206L10.713455061658966,132.9017874385629L11.29407672412046,131.82407228435787L11.874698386581954,131.45890085186275L12.455320049043449,130.25829602565082L13.035941711504945,131.1917358594281L13.61656337396644,130.02847811153956L14.197185036427934,128.8862206850733L14.777806698889428,127.88992808972085L15.358428361350924,128.6536906617028L15.939050023812419,127.64820949946129L16.51967168627391,126.98799614821161L17.100293348735406,126.13085106015204L17.680915011196902,126.21529695391652L18.261536673658394,125.57940366438454L18.842158336119894,124.93294352293013L19.422779998581387,124.82817904012543L20.003401661042883,123.62145344274383L20.584023323504375,125.87453450475418L21.16464498596587,124.28612769501548L21.745266648427364,123.12233641743657L22.32588831088886,121.93169081211089L22.906509973350353,122.70782830885479L23.487131635811853,121.88808958019528L24.067753298273345,121.96694823248045L24.64837496073484,120.93667275990758L25.228996623196334,121.68840127331869L25.809618285657827,120.27263577921049L26.390239948119323,120.37860070381844L26.970861610580815,120.69498381018637L27.55148327304231,119.56533843278882L28.132104935503804,119.0558768595968L28.712726597965304,120.88819565943308L29.293348260426797,120.94729889290672L29.873969922888293,118.27910209127833L30.454591585349785,118.92951924460274L31.03521324781128,118.09659047637666L31.615834910272774,117.48319435545375L32.19645657273427,118.53018709165708L32.777078235195766,117.01924582890102L33.35769989765726,116.8561487666198L33.93832156011875,117.44661793112753L34.51894322258025,117.81029251643588L35.099564885041744,117.22667031628744L35.68018654750324,116.06858484234127L36.260808209964736,115.54975685903003L36.84142987242623,116.87171004925453L37.42205153488772,114.43862199783325L38.00267319734922,114.31764414055006L38.583294859810714,115.70039007493426L39.1639165222722,115.28442957997319L39.7445381847337,117.85174480932099L40.3251598471952,114.30171235118591L40.9057815096567,115.90637699621062L41.48640317211819,114.60963308385439L42.067024834579684,112.90736214603696L42.64764649704118,113.98626292177607L43.228268159502676,114.20352806789533L43.808889821964165,112.27610760075704L44.38951148442566,113.04077420915873L44.97013314688716,113.72861254215238L45.550754809348646,112.27933841943741L46.13137647181014,113.94275061147553L46.71199813427164,112.03151387827737L47.292619796733135,111.83413753339221L47.873241459194624,113.29163690549986L48.45386312165612,111.68288186618258L49.034484784117616,112.7313566293035L49.61510644657912,112.72916322946547L50.1957281090406,110.70157256296702L50.776349771502105,110.95692580086842L51.3569714339636,111.59283391066958L51.9375930964251,109.56767376831598L52.518214758886586,109.76042618921824L53.09883642134808,112.61602529457637L53.67945808380958,110.31704585892811L54.260079746271074,111.70617932932716L54.84070140873256,114.26639564973966L55.42132307119406,110.13804664782116L56.001944733655556,110.82381014313015L56.58256639611705,110.86397307259695L57.16318805857854,109.62908896378107L57.74380972104004,112.23600395236694L58.32443138350153,108.35297486611773L58.90505304596304,108.58574201379501L59.48567470842452,109.60724388701574L60.06629637088602,107.04790196248462L60.64691803334752,111.39169321741376L61.227539695809014,106.67615033047538L61.8081613582705,108.07639900275638L62.388783020732,107.89914858341217L62.969404683193495,108.40644639730453L63.550026345654985,107.40862731422696L64.13064800811648,111.02969332252228L64.71126967057798,108.0030386703355L65.29189133303947,106.97540120567594L65.87251299550097,107.48000173057827L66.45313465796247,105.58348152467181L67.03375632042396,110.85027914387838L67.61437798288546,107.47994244950156L68.19499964534694,104.46306917497088L68.77562130780844,108.26956639119555L69.35624297026993,107.98596572024479L69.93686463273143,106.42183451141628L70.51748629519292,106.76714678321564L71.09810795765442,104.0944297994886L71.67872962011592,104.44380282504217L72.25935128257741,110.8309238723346L72.8399729450389,108.85295146703717L73.42059460750039,103.61446056195666L74.0012162699619,108.02304603372299L74.5818379324234,105.91643369197844L75.1624595948849,107.25846834693635L75.74308125734639,107.46814551523752L76.32370291980787,103.12417641707827L76.90432458226937,105.16777297428676L77.48494624473086,103.22699944462094L78.06556790719236,102.8306165252413L78.64618956965386,106.36302768332617L79.22681123211535,108.5962347643716L79.80743289457685,102.8513649020876L80.38805455703834,102.42682347127368L80.96867621949983,103.8218850493431L81.54929788196132,108.61917654105594L82.12991954442282,107.01049560308454L82.71054120688432,101.8727232473237L83.29116286934581,101.9277953675815L83.87178453180731,100.90928718873431L84.4524061942688,105.66508192675454L85.03302785673029,106.31586958680832L85.61364951919178,102.27533067975726L86.19427118165328,103.75845429727008L86.77489284411477,102.62630429438182L87.35551450657627,108.97222499336515L87.93613616903777,105.62035435438156L88.51675783149926,105.3003551023347L89.09737949396076,102.21151460068565L89.67800115642224,102.20232603379657L90.25862281888374,105.11516101871216L90.83924448134523,99.86362827675681L91.41986614380673,102.68733416284833L92.00048780626823,101.1997644645827L92.58110946872974,99.27538215262547L93.16173113119123,99.65543313537326L93.74235279365273,108.01883707727701L94.32297445611421,103.77632754189625L94.9035961185757,99.24188834428786L95.4842177810372,98.41998585632868L96.0648394434987,104.85545062167303L96.6454611059602,97.92670801707675L97.22608276842169,100.00750344991683L97.80670443088319,99.70173165627887L98.38732609334468,104.48023104667661L98.96794775580616,97.34788758414132L99.54856941826766,103.83738705090113L100.12919108072916,99.19600479091916L100.70981274319065,96.77947098016737L101.29043440565215,103.18084912640707L101.87105606811365,101.61203471251895L102.45167773057514,104.91007813385555L103.03229939303662,99.11117357015608L103.61292105549812,96.76316868407383L104.19354271795962,102.36552683796201L104.77416438042111,96.38436260393688L105.35478604288261,98.33542140041077L105.9354077053441,95.7372503706387L106.5160293678056,97.42738350800104L107.0966510302671,98.64605424233844L107.67727269272858,97.29225229365483L108.25789435519007,96.83626225164959L108.83851601765157,97.35562376465116L109.41913768011307,105.9032732929502L109.99975934257456,96.99122298615319L110.58038100503606,95.14455816575457L111.16100266749757,100.16608033009936L111.74162432995907,96.82431711469377L112.32224599242053,95.59838444846015L112.90286765488204,95.73828778948102L113.48348931734354,94.94602583987371L114.06411097980504,95.55656164884567L114.64473264226653,94.80532220431735L115.22535430472803,96.02227378743034L115.80597596718953,95.41811069420405L116.38659762965102,95.56945528302873L116.9672192921125,99.08168123449597L117.547840954574,96.01637532029832L118.1284626170355,95.3952281985964L118.70908427949699,94.459506043366L119.28970594195849,95.0350363765444L119.87032760441998,95.04235758951732L120.45094926688148,93.09743438448224L121.03157092934296,94.49273308685848L121.61219259180446,99.45112090451376L122.19281425426595,95.08616630520139L122.77343591672745,100.5604476928711L123.35405757918895,94.19570525203432L123.93467924165044,95.01651104007446L124.51530090411194,97.96660418169839L125.09592256657344,95.64162999391554L125.67654422903492,97.24740615912845L126.25716589149641,93.05510769571576L126.83778755395791,93.84935556139264L127.4184092164194,96.78711823906217L127.9990308788809,93.33773022890091L128.5796525413424,92.75971009050096L129.1602742038039,91.7526431594576L129.7408958662654,100.15603218759809L130.32151752872687,96.38237668786729L130.90213919118838,98.81230802195411L131.48276085364986,91.9687819651195L132.06338251611137,94.76957571506499L132.64400417857286,91.2422330890383L133.22462584103437,94.42583439179828L133.80524750349585,91.57862355879374L134.38586916595736,93.22355487516948L134.96649082841884,94.25878031764712L135.54711249088032,95.74228926215851L136.12773415334183,91.74398812225887L136.70835581580332,92.37044090032578L137.28897747826483,90.21827105113437L137.8695991407263,90.3532540627888L138.45022080318782,91.12272243840353L139.0308424656493,90.45785552263258L139.61146412811078,90.81291953154971L140.1920857905723,90.14123529195786L140.7727074530338,90.24281341688972L141.35332911549528,89.93535211256571L141.9339507779568,94.1037010209901L142.51457244041828,89.65524902514048L143.0951941028798,101.66070447649273L143.67581576534127,93.61934498378207L144.25643742780275,89.29256739786692L144.83705909026426,93.39369156530924L145.41768075272574,90.15021637507846L145.99830241518725,99.09134404999868L146.57892407764874,90.31140162263596L147.15954574011025,95.54209706612994L147.74016740257173,91.48478161437168L148.3207890650332,90.4763808591025L148.90141072749472,91.22895412785664L149.4820323899562,88.87525825841085L150.0626540524177,89.26974418333599L150.6432757148792,93.95283068077903L151.22389737734068,92.01143469980784L151.8045190398022,89.16751396656035L152.38514070226367,89.66574177571705L152.96576236472518,94.782884316785L153.54638402718666,92.59831735917498L154.12700568964817,91.76301734788075L154.70762735210965,90.51556565080368L155.28824901457114,91.03142958027975L155.86887067703265,89.16709899902344L156.44949233949413,88.81568077632357L157.03011400195564,94.50138812405721L157.61073566441712,88.04618276017051L158.19135732687866,87.20175346306391L158.7719789893401,87.72384190559387L159.3526006518016,90.61791442973272L159.93322231426313,88.30479645729064L160.5138439767246,88.03752772297177L161.09446563918613,87.33768497194562L161.6750873016476,89.49957691771642L162.25570896410912,88.84964883327484L162.8363306265706,95.58359381982257L163.4169522890321,88.10475246395383L163.9975739514936,91.95769640377588L164.57819561395507,88.77246487140656L165.15881727641658,90.48367243153707L165.73943893887807,86.61267740385871L166.32006060133958,89.41142595665794L166.90068226380106,90.30983067410332L167.48130392626257,88.79104948895318L168.06192558872405,87.77295627764292L168.64254725118553,89.97047615051268L169.22316891364704,91.6701831817627L169.80379057610853,86.91533694096974L170.38441223857004,88.90528412376129L170.96503390103152,88.06132907526832L171.54565556349303,88.48889384099415L172.1262772259545,86.86989799567631L172.70689888841602,87.88730947460446L173.2875205508775,86.10383828197206L173.86814221333898,86.04257128919873L174.4487638758005,85.44098692280905L175.02938553826198,86.48620122671126L175.6100072007235,87.99816508804047L176.19062886318497,85.47178344215665L176.77125052564648,85.41955681358064L177.35187218810796,85.04211419820784L177.93249385056944,88.08115859542573L178.51311551303095,85.58483245543071L179.09373717549244,86.45973222596305L179.67435883795395,84.88012865611483L180.25498050041543,91.38438911097388L180.83560216287694,85.13281424556459L181.41622382533842,87.91202968358992L181.9968454877999,85.20655990498405L182.5774671502614,84.72184818131583L183.1580888127229,85.61604394231522L183.7387104751844,84.97711249760218L184.3193321376459,86.35696847949708L184.8999538001074,90.28499190296445L185.48057546256888,84.43303077561515L186.0611971250304,85.26284728731426L186.64181878749187,85.3367411494255L187.22244044995335,84.66701318536485L187.80306211241486,84.82490833316528L188.38368377487635,85.49908237797872L188.96430543733786,87.53301611968448L189.54492709979934,86.47956174612045L190.12554876226085,91.07731313364846L190.70617042472233,84.06406535421098L191.2867920871838,88.82234989745275L191.86741374964532,84.08682928766522L192.4480354121068,84.09616605724607L193.02865707456832,83.92265034573417L193.6092787370298,84.92026194504328L194.1899003994913,87.69977378845213L194.7705220619528,85.298119527953L195.35114372441427,84.09963400023324L195.93176538687578,83.72758596284048L196.51238704933726,85.30013508456092L197.0930087117988,86.52618631294794L197.67363037426026,84.40104863473346L198.2542520367218,84.6598401750837L198.83487369918328,84.30279025009699L199.4154953616448,85.34100938694816L199.99611702410627,83.19894696133477L200.57673868656775,83.9632282427379L201.15736034902926,87.10737798895154L201.73798201149074,83.6707946913583L202.31860367395225,83.23048449414115L202.89922533641374,85.31661522388457L203.47984699887525,85.52712232725959L204.06046866133673,84.38080414703913L204.6410903237982,84.37543920959745L205.22171198625972,83.77243209736686L205.8023336487212,87.39782562426157L206.3829553111827,86.5539298568453L206.9635769736442,82.64858144521712L207.5441986361057,82.56117149761744L208.1248202985672,83.00394185951777L208.7054419610287,83.63753800732749L209.28606362349018,82.40890805210384L209.86668528595166,86.0294701712472L210.44730694841317,86.09651706899915L211.02792861087465,82.89127817324228L211.60855027333616,86.36260018178395L212.18917193579765,83.30657175609042L212.76979359825916,83.08151114838462L213.35041526072064,83.37862790482383L213.93103692318212,82.11534816026686L214.51165858564363,81.96687870366233L215.0922802481051,81.99803090947013L215.67290191056662,82.32487712587627L216.2535235730281,83.74356221301214L216.83414523548961,82.01045029503959L217.4147668979511,81.72536759717124L217.99538856041258,82.63859258379253L218.5760102228741,82.46172749144691L219.15663188533557,82.25747454166412L219.73725354779708,86.45854660442896L220.31787521025856,82.47992678199495L220.89849687272007,81.65464527266366L221.47911853518156,82.17889747449328L222.05974019764307,83.47564138684953L222.64036186010455,82.64217908893312L223.22098352256603,82.68779587745665L223.80160518502754,82.01400715964179L224.38222684748902,82.22730047362191L224.96284850995053,84.70729467698504L225.54347017241201,84.01409140654972L226.12409183487352,81.48931034973688L226.704713497335,81.26167101519447L227.2853351597965,82.6885072503771L227.865956822258,84.95286653723034L228.44657848471948,80.87569192477635L229.027200147181,82.03306602580206L229.60782180964247,82.87936267682484L230.18844347210398,80.97872243608747L230.76906513456547,81.47256344556808L231.34968679702698,80.73463260275976L231.93030845948846,81.23300861460822L232.51093012194994,85.0390019416809L233.09155178441145,81.05389084134782L233.67217344687293,83.86876384701047L234.25279510933447,81.0804487637111L234.83341677179592,81.29323818853922L235.41403843425746,81.06183450562614L235.99466009671895,82.18017201764242L236.5752817591804,81.11284587212971L237.15590342164194,80.70348039695193L237.73652508410342,80.77485481330326L238.31714674656493,82.85265655176978L238.8977684090264,81.30530188764843L239.47839007148792,83.24815025499889L240.0590117339494,81.28822893755775L240.6396333964109,81.66925805807114L241.2202550588724,82.10764162029537L241.80087672133388,80.74900826386043L242.3814983837954,80.71317285299301L242.96212004625687,80.82960088763917L243.54274170871838,80.76391745465142L244.12336337117986,80.719575209277L244.70398503364137,80.63130568606512L245.28460669610286,80.09184788806097L245.86522835856434,81.32124849728174L246.44585002102585,82.15189494405473L247.02647168348733,81.89363693339483L247.60709334594884,80.31993183067866L248.18771500841032,80.74610349110193L248.76833667087183,80.18355571372169L249.34895833333331,80.26951327494211L249.9295799957948,82.07927562509262L250.5102016582563,81.39354177032197L251.0908233207178,80.89569928816385L251.6714449831793,81.1743796297482L252.25206664564078,81.36333806174142L252.8326883081023,80.0368943299566L253.41330997056377,80.10536397354943L253.99393163302526,81.47125926188059L254.57455329548677,79.96471961906978L255.15517495794825,79.90179275614874L255.73579662040976,82.29464377675735L256.31641828287127,83.3622070465769L256.8970399453328,80.11742767265864L257.47766160779423,80.25768670013971L258.05828327025574,80.0354715841157L258.63890493271725,79.98214825562069L259.2195265951787,80.07148483821324L259.8001482576402,81.72954691307883L260.3807699201017,79.68366803441728L260.96139158256324,80.15604929413114L261.5420132450247,80.79062357970645L262.1226349074862,79.89174461364745L262.7032565699477,79.63656921897615L263.28387823240917,80.03573834896088L263.8644998948707,80.07720546211513L264.4451215573322,79.6388811809676L265.0257432197937,80.48728231021336L265.60636488225515,80.36972793510981L266.18698654471666,80.87323176009315L266.76760820717817,80.30359989404678L267.3482298696397,79.53475396973745L267.92885153210113,80.54499243838445L268.50947319456264,79.58081536633627L269.09009485702416,79.61881453650336L269.6707165194856,81.35960335390908L270.2513381819471,80.50889026267187L270.83195984440863,79.87988839830669L271.41258150687014,79.61635437182017L271.9932031693316,79.92636476244245L272.5738248317931,79.6703001516206L273.1544464942546,79.79366407224109L273.73506815671607,81.39973664283752L274.3156898191776,80.16402259894778L274.8963114816391,79.63556144067218L275.4769331441006,80.0938634446689L276.05755480656205,79.48937430552073L276.63817646902356,80.08953592606953L277.2187981314851,79.60245295933315L277.7994197939465,80.31723454168863L278.38004145640804,80.43493711948395L278.96066311886955,79.90247448853084L279.54128478133106,80.42918685504367L280.1219064437925,80.50811960867473L280.702528106254,79.98852097136633L281.28314976871553,79.70785471371241L281.863771431177,80.36433335712978L282.4443930936385,79.61887381758008L283.0250147561,80.76525127887726L283.6056364185615,79.45745144571576L284.18625808102297,80.28726795741488L284.7668797434845,80.03440452473504L285.347501405946,79.79855476106916L285.92812306840744,79.65257510968617L286.50874473086895,79.54183805840354L287.08936639333047,80.2635555267334L287.669988055792,80.55426992688858L288.25060971825343,80.9421756522996L288.83123138071494,80.02337824446813L289.41185304317645,79.4073589359011L289.9924747056379,80.65069059814725L290.5730963680994,80.07299650566918L291.1537180305609,79.72341599634714L291.73433969302243,79.96546063252856L292.3149613554839,79.74526107311249L292.89558301794546,79.60764005354471L293.4762046804069,79.60749185085297L294.0568263428684,79.51910376548767" style="fill: none;" fill="none"></path></g></g></g></g></g></g><g transform="translate(30, 177)" clip-path="url(#clip_1)"><clipPath id="clip_1"><rect width="299" height="23"></rect></clipPath><g><g><line x1="4.326616774582522" y1="0" x2="4.326616774582522" y2="5" style="visibility: inherit;" fill="rgb(0, 0, 0)" stroke="rgb(204, 204, 204)" stroke-width="1px"></line><line x1="33.35769989765726" y1="0" x2="33.35769989765726" y2="5" style="visibility: inherit;" fill="rgb(0, 0, 0)" stroke="rgb(204, 204, 204)" stroke-width="1px"></line><line x1="62.388783020732" y1="0" x2="62.388783020732" y2="5" style="visibility: inherit;" fill="rgb(0, 0, 0)" stroke="rgb(204, 204, 204)" stroke-width="1px"></line><line x1="91.41986614380673" y1="0" x2="91.41986614380673" y2="5" style="visibility: inherit;" fill="rgb(0, 0, 0)" stroke="rgb(204, 204, 204)" stroke-width="1px"></line><line x1="120.45094926688148" y1="0" x2="120.45094926688148" y2="5" style="visibility: inherit;" fill="rgb(0, 0, 0)" stroke="rgb(204, 204, 204)" stroke-width="1px"></line><line x1="149.4820323899562" y1="0" x2="149.4820323899562" y2="5" style="visibility: inherit;" fill="rgb(0, 0, 0)" stroke="rgb(204, 204, 204)" stroke-width="1px"></line><line x1="178.51311551303095" y1="0" x2="178.51311551303095" y2="5" style="visibility: inherit;" fill="rgb(0, 0, 0)" stroke="rgb(204, 204, 204)" stroke-width="1px"></line><line x1="207.5441986361057" y1="0" x2="207.5441986361057" y2="5" style="visibility: inherit;" fill="rgb(0, 0, 0)" stroke="rgb(204, 204, 204)" stroke-width="1px"></line><line x1="236.5752817591804" y1="0" x2="236.5752817591804" y2="5" style="visibility: inherit;" fill="rgb(0, 0, 0)" stroke="rgb(204, 204, 204)" stroke-width="1px"></line><line x1="265.60636488225515" y1="0" x2="265.60636488225515" y2="5" style="visibility: inherit;" fill="rgb(0, 0, 0)" stroke="rgb(204, 204, 204)" stroke-width="1px"></line><line x1="294.63744800532993" y1="0" x2="294.63744800532993" y2="5" style="visibility: inherit;" fill="rgb(0, 0, 0)" stroke="rgb(204, 204, 204)" stroke-width="1px"></line></g><g transform="translate(0, 8)"><text x="4.326616774582522" y="0" dx="0em" dy="0.95em" style="text-anchor: middle; visibility: inherit; font-family: Roboto, sans-serif; font-size: 12px; font-weight: 200;" fill="rgb(33, 33, 33)" stroke="none" stroke-width="1px">0</text><text x="33.35769989765726" y="0" dx="0em" dy="0.95em" style="text-anchor: middle; visibility: inherit; font-family: Roboto, sans-serif; font-size: 12px; font-weight: 200;" fill="rgb(33, 33, 33)" stroke="none" stroke-width="1px">50</text><text x="62.388783020732" y="0" dx="0em" dy="0.95em" style="text-anchor: middle; visibility: inherit; font-family: Roboto, sans-serif; font-size: 12px; font-weight: 200;" fill="rgb(33, 33, 33)" stroke="none" stroke-width="1px">100</text><text x="91.41986614380673" y="0" dx="0em" dy="0.95em" style="text-anchor: middle; visibility: inherit; font-family: Roboto, sans-serif; font-size: 12px; font-weight: 200;" fill="rgb(33, 33, 33)" stroke="none" stroke-width="1px">150</text><text x="120.45094926688148" y="0" dx="0em" dy="0.95em" style="text-anchor: middle; visibility: inherit; font-family: Roboto, sans-serif; font-size: 12px; font-weight: 200;" fill="rgb(33, 33, 33)" stroke="none" stroke-width="1px">200</text><text x="149.4820323899562" y="0" dx="0em" dy="0.95em" style="text-anchor: middle; visibility: inherit; font-family: Roboto, sans-serif; font-size: 12px; font-weight: 200;" fill="rgb(33, 33, 33)" stroke="none" stroke-width="1px">250</text><text x="178.51311551303095" y="0" dx="0em" dy="0.95em" style="text-anchor: middle; visibility: inherit; font-family: Roboto, sans-serif; font-size: 12px; font-weight: 200;" fill="rgb(33, 33, 33)" stroke="none" stroke-width="1px">300</text><text x="207.5441986361057" y="0" dx="0em" dy="0.95em" style="text-anchor: middle; visibility: inherit; font-family: Roboto, sans-serif; font-size: 12px; font-weight: 200;" fill="rgb(33, 33, 33)" stroke="none" stroke-width="1px">350</text><text x="236.5752817591804" y="0" dx="0em" dy="0.95em" style="text-anchor: middle; visibility: inherit; font-family: Roboto, sans-serif; font-size: 12px; font-weight: 200;" fill="rgb(33, 33, 33)" stroke="none" stroke-width="1px">400</text><text x="265.60636488225515" y="0" dx="0em" dy="0.95em" style="text-anchor: middle; visibility: inherit; font-family: Roboto, sans-serif; font-size: 12px; font-weight: 200;" fill="rgb(33, 33, 33)" stroke="none" stroke-width="1px">450</text><text x="294.63744800532993" y="0" dx="0em" dy="0.95em" style="text-anchor: middle; visibility: hidden; font-family: Roboto, sans-serif; font-size: 12px; font-weight: 200;" fill="rgb(33, 33, 33)" stroke="none" stroke-width="1px">500</text></g><line x1="0" y1="0" x2="299.21875" y2="0" fill="rgb(0, 0, 0)" stroke="rgb(204, 204, 204)" stroke-width="1px"></line></g></g></g></g></svg>